<svg width="394" height="129" viewBox="0 0 394 129" fill="none" xmlns="http://www.w3.org/2000/svg">
<g filter="url(#filter0_d_45_91)">
<rect x="4" width="386" height="121" rx="5" fill="white"/>
<path d="M45.98 89C45.86 89 45.758 88.964 45.674 88.892C45.602 88.808 45.566 88.706 45.566 88.586V76.832C45.566 76.7 45.602 76.598 45.674 76.526C45.758 76.442 45.86 76.4 45.98 76.4H46.88C47.024 76.4 47.132 76.436 47.204 76.508C47.276 76.58 47.318 76.64 47.33 76.688L51.146 83.96L54.98 76.688C55.004 76.64 55.046 76.58 55.106 76.508C55.178 76.436 55.286 76.4 55.43 76.4H56.312C56.444 76.4 56.546 76.442 56.618 76.526C56.702 76.598 56.744 76.7 56.744 76.832V88.586C56.744 88.706 56.702 88.808 56.618 88.892C56.546 88.964 56.444 89 56.312 89H55.43C55.31 89 55.208 88.964 55.124 88.892C55.052 88.808 55.016 88.706 55.016 88.586V79.73L52.01 85.598C51.962 85.718 51.89 85.814 51.794 85.886C51.698 85.946 51.578 85.976 51.434 85.976H50.876C50.72 85.976 50.594 85.946 50.498 85.886C50.414 85.814 50.342 85.718 50.282 85.598L47.276 79.73V88.586C47.276 88.706 47.234 88.808 47.15 88.892C47.078 88.964 46.982 89 46.862 89H45.98ZM60.919 92.06C60.655 92.06 60.523 91.928 60.523 91.664V87.38L59.461 88.172C59.377 88.232 59.281 88.256 59.173 88.244C59.065 88.232 58.975 88.178 58.903 88.082L58.669 87.776C58.597 87.68 58.567 87.584 58.579 87.488C58.603 87.38 58.657 87.29 58.741 87.218L60.523 85.886C60.643 85.802 60.781 85.76 60.937 85.76H61.441C61.705 85.76 61.837 85.892 61.837 86.156V91.664C61.837 91.928 61.705 92.06 61.441 92.06H60.919ZM69.3363 81.872C69.2163 81.872 69.1203 81.836 69.0483 81.764C68.9763 81.692 68.9403 81.596 68.9403 81.476V81.224C68.9403 81.104 68.9763 81.008 69.0483 80.936C69.1203 80.864 69.2163 80.828 69.3363 80.828H76.0863C76.2063 80.828 76.3023 80.864 76.3743 80.936C76.4463 81.008 76.4823 81.104 76.4823 81.224V81.476C76.4823 81.596 76.4463 81.692 76.3743 81.764C76.3023 81.836 76.2063 81.872 76.0863 81.872H69.3363ZM69.3363 86.372C69.2163 86.372 69.1203 86.336 69.0483 86.264C68.9763 86.192 68.9403 86.096 68.9403 85.976V85.724C68.9403 85.604 68.9763 85.508 69.0483 85.436C69.1203 85.364 69.2163 85.328 69.3363 85.328H76.0863C76.2063 85.328 76.3023 85.364 76.3743 85.436C76.4463 85.508 76.4823 85.604 76.4823 85.724V85.976C76.4823 86.096 76.4463 86.192 76.3743 86.264C76.3023 86.336 76.2063 86.372 76.0863 86.372H69.3363ZM84.2241 84.122C84.1041 84.122 84.0081 84.086 83.9361 84.014C83.8641 83.942 83.8281 83.846 83.8281 83.726V83.474C83.8281 83.354 83.8641 83.258 83.9361 83.186C84.0081 83.114 84.1041 83.078 84.2241 83.078H89.5341C89.6541 83.078 89.7501 83.114 89.8221 83.186C89.8941 83.258 89.9301 83.354 89.9301 83.474V83.726C89.9301 83.846 89.8941 83.942 89.8221 84.014C89.7501 84.086 89.6541 84.122 89.5341 84.122H84.2241ZM94.8743 89C94.7183 89 94.5983 88.964 94.5143 88.892C94.4303 88.82 94.3583 88.706 94.2983 88.55L91.7603 80.198C91.7363 80.126 91.7243 80.06 91.7243 80C91.7243 79.904 91.7603 79.82 91.8323 79.748C91.9043 79.676 91.9883 79.64 92.0843 79.64H92.4263C92.5463 79.64 92.6363 79.676 92.6963 79.748C92.7683 79.808 92.8103 79.862 92.8223 79.91L95.0363 87.398L97.3943 80C97.4183 79.928 97.4663 79.85 97.5383 79.766C97.6103 79.682 97.7243 79.64 97.8803 79.64H98.2403C98.3963 79.64 98.5103 79.682 98.5823 79.766C98.6663 79.85 98.7143 79.928 98.7263 80L101.084 87.398L103.298 79.91C103.31 79.862 103.346 79.808 103.406 79.748C103.478 79.676 103.574 79.64 103.694 79.64H104.036C104.132 79.64 104.216 79.676 104.288 79.748C104.36 79.82 104.396 79.904 104.396 80C104.396 80.06 104.384 80.126 104.36 80.198L101.822 88.55C101.774 88.706 101.708 88.82 101.624 88.892C101.54 88.964 101.414 89 101.246 89H100.94C100.784 89 100.652 88.964 100.544 88.892C100.448 88.82 100.376 88.706 100.328 88.55L98.0603 81.458L95.7923 88.55C95.7443 88.706 95.6723 88.82 95.5763 88.892C95.4803 88.964 95.3483 89 95.1803 89H94.8743ZM107.225 89C107.105 89 107.009 88.964 106.937 88.892C106.865 88.82 106.829 88.724 106.829 88.604V76.796C106.829 76.676 106.865 76.58 106.937 76.508C107.009 76.436 107.105 76.4 107.225 76.4H107.567C107.687 76.4 107.783 76.436 107.855 76.508C107.927 76.58 107.963 76.676 107.963 76.796V87.92H114.173C114.305 87.92 114.407 87.956 114.479 88.028C114.551 88.1 114.587 88.202 114.587 88.334V88.604C114.587 88.724 114.551 88.82 114.479 88.892C114.407 88.964 114.305 89 114.173 89H107.225ZM115.952 82.7C115.688 82.7 115.556 82.568 115.556 82.304V81.998C115.556 81.902 115.586 81.812 115.646 81.728C115.706 81.632 115.82 81.524 115.988 81.404C116.756 80.852 117.368 80.414 117.824 80.09C118.292 79.754 118.628 79.454 118.832 79.19C119.048 78.926 119.156 78.632 119.156 78.308C119.156 77.996 119.036 77.75 118.796 77.57C118.568 77.39 118.298 77.3 117.986 77.3C117.662 77.3 117.416 77.354 117.248 77.462C117.092 77.558 116.978 77.666 116.906 77.786C116.846 77.906 116.798 78.002 116.762 78.074C116.69 78.206 116.624 78.296 116.564 78.344C116.504 78.38 116.426 78.398 116.33 78.398H116.06C115.82 78.398 115.712 78.284 115.736 78.056C115.76 77.768 115.874 77.492 116.078 77.228C116.282 76.964 116.552 76.748 116.888 76.58C117.224 76.4 117.59 76.31 117.986 76.31C118.67 76.31 119.21 76.514 119.606 76.922C120.002 77.318 120.2 77.78 120.2 78.308C120.2 78.752 120.104 79.142 119.912 79.478C119.72 79.802 119.414 80.138 118.994 80.486C118.574 80.822 118.022 81.224 117.338 81.692H120.074C120.338 81.692 120.47 81.824 120.47 82.088V82.304C120.47 82.568 120.338 82.7 120.074 82.7H115.952ZM126.514 90.512C126.418 90.512 126.334 90.476 126.262 90.404C126.19 90.332 126.154 90.248 126.154 90.152C126.154 90.092 126.172 90.02 126.208 89.936L132.4 75.122C132.424 75.074 132.466 75.02 132.526 74.96C132.586 74.888 132.676 74.852 132.796 74.852H133.102C133.198 74.852 133.282 74.888 133.354 74.96C133.426 75.032 133.462 75.116 133.462 75.212C133.462 75.26 133.444 75.332 133.408 75.428L127.216 90.242C127.204 90.29 127.162 90.344 127.09 90.404C127.03 90.476 126.94 90.512 126.82 90.512H126.514ZM143.538 89C143.418 89 143.322 88.964 143.25 88.892C143.178 88.82 143.142 88.724 143.142 88.604V77.876L139.92 80.36C139.824 80.432 139.722 80.462 139.614 80.45C139.518 80.438 139.434 80.384 139.362 80.288L139.164 80.036C139.092 79.94 139.062 79.844 139.074 79.748C139.086 79.64 139.14 79.55 139.236 79.478L143.07 76.526C143.154 76.466 143.232 76.43 143.304 76.418C143.376 76.406 143.454 76.4 143.538 76.4H143.88C144 76.4 144.096 76.436 144.168 76.508C144.24 76.58 144.276 76.676 144.276 76.796V88.604C144.276 88.724 144.24 88.82 144.168 88.892C144.096 88.964 144 89 143.88 89H143.538ZM147.074 89C146.954 89 146.858 88.964 146.786 88.892C146.714 88.82 146.678 88.724 146.678 88.604V88.334C146.678 88.214 146.708 88.1 146.768 87.992C146.84 87.872 146.96 87.734 147.128 87.578L151.79 82.916C152.246 82.496 152.594 82.13 152.834 81.818C153.074 81.506 153.236 81.2 153.32 80.9C153.416 80.588 153.464 80.246 153.464 79.874C153.464 79.07 153.23 78.44 152.762 77.984C152.306 77.528 151.652 77.3 150.8 77.3C150.26 77.3 149.792 77.408 149.396 77.624C149 77.84 148.688 78.146 148.46 78.542C148.232 78.926 148.082 79.376 148.01 79.892C147.998 80.036 147.944 80.144 147.848 80.216C147.752 80.276 147.668 80.306 147.596 80.306H147.236C147.116 80.306 147.02 80.276 146.948 80.216C146.888 80.144 146.858 80.06 146.858 79.964C146.87 79.556 146.954 79.136 147.11 78.704C147.266 78.26 147.5 77.852 147.812 77.48C148.136 77.108 148.544 76.808 149.036 76.58C149.528 76.34 150.116 76.22 150.8 76.22C151.712 76.22 152.444 76.394 152.996 76.742C153.56 77.09 153.968 77.54 154.22 78.092C154.472 78.644 154.598 79.238 154.598 79.874C154.598 80.366 154.526 80.822 154.382 81.242C154.238 81.65 154.022 82.052 153.734 82.448C153.446 82.832 153.08 83.228 152.636 83.636L148.424 87.92H154.454C154.586 87.92 154.688 87.956 154.76 88.028C154.832 88.1 154.868 88.202 154.868 88.334V88.604C154.868 88.724 154.832 88.82 154.76 88.892C154.688 88.964 154.586 89 154.454 89H147.074Z" fill="#4E4E4E"/>
<path d="M238.98 89C238.86 89 238.758 88.964 238.674 88.892C238.602 88.808 238.566 88.706 238.566 88.586V76.832C238.566 76.7 238.602 76.598 238.674 76.526C238.758 76.442 238.86 76.4 238.98 76.4H239.88C240.024 76.4 240.132 76.436 240.204 76.508C240.276 76.58 240.318 76.64 240.33 76.688L244.146 83.96L247.98 76.688C248.004 76.64 248.046 76.58 248.106 76.508C248.178 76.436 248.286 76.4 248.43 76.4H249.312C249.444 76.4 249.546 76.442 249.618 76.526C249.702 76.598 249.744 76.7 249.744 76.832V88.586C249.744 88.706 249.702 88.808 249.618 88.892C249.546 88.964 249.444 89 249.312 89H248.43C248.31 89 248.208 88.964 248.124 88.892C248.052 88.808 248.016 88.706 248.016 88.586V79.73L245.01 85.598C244.962 85.718 244.89 85.814 244.794 85.886C244.698 85.946 244.578 85.976 244.434 85.976H243.876C243.72 85.976 243.594 85.946 243.498 85.886C243.414 85.814 243.342 85.718 243.282 85.598L240.276 79.73V88.586C240.276 88.706 240.234 88.808 240.15 88.892C240.078 88.964 239.982 89 239.862 89H238.98ZM252.227 92.06C251.963 92.06 251.831 91.928 251.831 91.664V91.268C251.831 91.172 251.861 91.076 251.921 90.98C251.981 90.896 252.095 90.794 252.263 90.674C252.995 90.134 253.589 89.702 254.045 89.378C254.501 89.054 254.831 88.766 255.035 88.514C255.239 88.262 255.341 87.986 255.341 87.686C255.341 87.422 255.245 87.212 255.053 87.056C254.861 86.888 254.621 86.804 254.333 86.804C254.045 86.804 253.829 86.852 253.685 86.948C253.553 87.032 253.457 87.128 253.397 87.236C253.337 87.344 253.289 87.434 253.253 87.506C253.181 87.638 253.115 87.728 253.055 87.776C252.995 87.812 252.917 87.83 252.821 87.83H252.317C252.077 87.83 251.969 87.716 251.993 87.488C252.017 87.164 252.131 86.87 252.335 86.606C252.551 86.33 252.833 86.108 253.181 85.94C253.529 85.76 253.913 85.67 254.333 85.67C255.041 85.67 255.599 85.868 256.007 86.264C256.427 86.66 256.637 87.128 256.637 87.668C256.637 88.1 256.541 88.478 256.349 88.802C256.157 89.114 255.863 89.432 255.467 89.756C255.071 90.08 254.561 90.458 253.937 90.89H256.493C256.757 90.89 256.889 91.022 256.889 91.286V91.664C256.889 91.928 256.757 92.06 256.493 92.06H252.227ZM263.83 81.872C263.71 81.872 263.614 81.836 263.542 81.764C263.47 81.692 263.434 81.596 263.434 81.476V81.224C263.434 81.104 263.47 81.008 263.542 80.936C263.614 80.864 263.71 80.828 263.83 80.828H270.58C270.7 80.828 270.796 80.864 270.868 80.936C270.94 81.008 270.976 81.104 270.976 81.224V81.476C270.976 81.596 270.94 81.692 270.868 81.764C270.796 81.836 270.7 81.872 270.58 81.872H263.83ZM263.83 86.372C263.71 86.372 263.614 86.336 263.542 86.264C263.47 86.192 263.434 86.096 263.434 85.976V85.724C263.434 85.604 263.47 85.508 263.542 85.436C263.614 85.364 263.71 85.328 263.83 85.328H270.58C270.7 85.328 270.796 85.364 270.868 85.436C270.94 85.508 270.976 85.604 270.976 85.724V85.976C270.976 86.096 270.94 86.192 270.868 86.264C270.796 86.336 270.7 86.372 270.58 86.372H263.83ZM280.456 89C280.3 89 280.18 88.964 280.096 88.892C280.012 88.82 279.94 88.706 279.88 88.55L277.342 80.198C277.318 80.126 277.306 80.06 277.306 80C277.306 79.904 277.342 79.82 277.414 79.748C277.486 79.676 277.57 79.64 277.666 79.64H278.008C278.128 79.64 278.218 79.676 278.278 79.748C278.35 79.808 278.392 79.862 278.404 79.91L280.618 87.398L282.976 80C283 79.928 283.048 79.85 283.12 79.766C283.192 79.682 283.306 79.64 283.462 79.64H283.822C283.978 79.64 284.092 79.682 284.164 79.766C284.248 79.85 284.296 79.928 284.308 80L286.666 87.398L288.88 79.91C288.892 79.862 288.928 79.808 288.988 79.748C289.06 79.676 289.156 79.64 289.276 79.64H289.618C289.714 79.64 289.798 79.676 289.87 79.748C289.942 79.82 289.978 79.904 289.978 80C289.978 80.06 289.966 80.126 289.942 80.198L287.404 88.55C287.356 88.706 287.29 88.82 287.206 88.892C287.122 88.964 286.996 89 286.828 89H286.522C286.366 89 286.234 88.964 286.126 88.892C286.03 88.82 285.958 88.706 285.91 88.55L283.642 81.458L281.374 88.55C281.326 88.706 281.254 88.82 281.158 88.892C281.062 88.964 280.93 89 280.762 89H280.456ZM292.807 89C292.687 89 292.591 88.964 292.519 88.892C292.447 88.82 292.411 88.724 292.411 88.604V76.796C292.411 76.676 292.447 76.58 292.519 76.508C292.591 76.436 292.687 76.4 292.807 76.4H293.149C293.269 76.4 293.365 76.436 293.437 76.508C293.509 76.58 293.545 76.676 293.545 76.796V87.92H299.755C299.887 87.92 299.989 87.956 300.061 88.028C300.133 88.1 300.169 88.202 300.169 88.334V88.604C300.169 88.724 300.133 88.82 300.061 88.892C299.989 88.964 299.887 89 299.755 89H292.807ZM301.534 82.7C301.27 82.7 301.138 82.568 301.138 82.304V81.998C301.138 81.902 301.168 81.812 301.228 81.728C301.288 81.632 301.402 81.524 301.57 81.404C302.338 80.852 302.95 80.414 303.406 80.09C303.874 79.754 304.21 79.454 304.414 79.19C304.63 78.926 304.738 78.632 304.738 78.308C304.738 77.996 304.618 77.75 304.378 77.57C304.15 77.39 303.88 77.3 303.568 77.3C303.244 77.3 302.998 77.354 302.83 77.462C302.674 77.558 302.56 77.666 302.488 77.786C302.428 77.906 302.38 78.002 302.344 78.074C302.272 78.206 302.206 78.296 302.146 78.344C302.086 78.38 302.008 78.398 301.912 78.398H301.642C301.402 78.398 301.294 78.284 301.318 78.056C301.342 77.768 301.456 77.492 301.66 77.228C301.864 76.964 302.134 76.748 302.47 76.58C302.806 76.4 303.172 76.31 303.568 76.31C304.252 76.31 304.792 76.514 305.188 76.922C305.584 77.318 305.782 77.78 305.782 78.308C305.782 78.752 305.686 79.142 305.494 79.478C305.302 79.802 304.996 80.138 304.576 80.486C304.156 80.822 303.604 81.224 302.92 81.692H305.656C305.92 81.692 306.052 81.824 306.052 82.088V82.304C306.052 82.568 305.92 82.7 305.656 82.7H301.534ZM312.096 90.512C312 90.512 311.916 90.476 311.844 90.404C311.772 90.332 311.736 90.248 311.736 90.152C311.736 90.092 311.754 90.02 311.79 89.936L317.982 75.122C318.006 75.074 318.048 75.02 318.108 74.96C318.168 74.888 318.258 74.852 318.378 74.852H318.684C318.78 74.852 318.864 74.888 318.936 74.96C319.008 75.032 319.044 75.116 319.044 75.212C319.044 75.26 319.026 75.332 318.99 75.428L312.798 90.242C312.786 90.29 312.744 90.344 312.672 90.404C312.612 90.476 312.522 90.512 312.402 90.512H312.096ZM329.12 89C329 89 328.904 88.964 328.832 88.892C328.76 88.82 328.724 88.724 328.724 88.604V77.876L325.502 80.36C325.406 80.432 325.304 80.462 325.196 80.45C325.1 80.438 325.016 80.384 324.944 80.288L324.746 80.036C324.674 79.94 324.644 79.844 324.656 79.748C324.668 79.64 324.722 79.55 324.818 79.478L328.652 76.526C328.736 76.466 328.814 76.43 328.886 76.418C328.958 76.406 329.036 76.4 329.12 76.4H329.462C329.582 76.4 329.678 76.436 329.75 76.508C329.822 76.58 329.858 76.676 329.858 76.796V88.604C329.858 88.724 329.822 88.82 329.75 88.892C329.678 88.964 329.582 89 329.462 89H329.12ZM332.656 89C332.536 89 332.44 88.964 332.368 88.892C332.296 88.82 332.26 88.724 332.26 88.604V88.334C332.26 88.214 332.29 88.1 332.35 87.992C332.422 87.872 332.542 87.734 332.71 87.578L337.372 82.916C337.828 82.496 338.176 82.13 338.416 81.818C338.656 81.506 338.818 81.2 338.902 80.9C338.998 80.588 339.046 80.246 339.046 79.874C339.046 79.07 338.812 78.44 338.344 77.984C337.888 77.528 337.234 77.3 336.382 77.3C335.842 77.3 335.374 77.408 334.978 77.624C334.582 77.84 334.27 78.146 334.042 78.542C333.814 78.926 333.664 79.376 333.592 79.892C333.58 80.036 333.526 80.144 333.43 80.216C333.334 80.276 333.25 80.306 333.178 80.306H332.818C332.698 80.306 332.602 80.276 332.53 80.216C332.47 80.144 332.44 80.06 332.44 79.964C332.452 79.556 332.536 79.136 332.692 78.704C332.848 78.26 333.082 77.852 333.394 77.48C333.718 77.108 334.126 76.808 334.618 76.58C335.11 76.34 335.698 76.22 336.382 76.22C337.294 76.22 338.026 76.394 338.578 76.742C339.142 77.09 339.55 77.54 339.802 78.092C340.054 78.644 340.18 79.238 340.18 79.874C340.18 80.366 340.108 80.822 339.964 81.242C339.82 81.65 339.604 82.052 339.316 82.448C339.028 82.832 338.662 83.228 338.218 83.636L334.006 87.92H340.036C340.168 87.92 340.27 87.956 340.342 88.028C340.414 88.1 340.45 88.202 340.45 88.334V88.604C340.45 88.724 340.414 88.82 340.342 88.892C340.27 88.964 340.168 89 340.036 89H332.656Z" fill="#4E4E4E"/>
<path d="M49.31 41C49.13 41 48.986 40.958 48.878 40.874C48.782 40.79 48.704 40.676 48.644 40.532L44.63 28.958C44.606 28.886 44.594 28.82 44.594 28.76C44.594 28.664 44.63 28.58 44.702 28.508C44.774 28.436 44.858 28.4 44.954 28.4H45.89C46.034 28.4 46.142 28.442 46.214 28.526C46.298 28.598 46.346 28.664 46.358 28.724L49.886 38.93L53.414 28.724C53.438 28.664 53.486 28.598 53.558 28.526C53.63 28.442 53.738 28.4 53.882 28.4H54.818C54.914 28.4 54.998 28.436 55.07 28.508C55.154 28.58 55.196 28.664 55.196 28.76C55.196 28.82 55.184 28.886 55.16 28.958L51.128 40.532C51.08 40.676 51.002 40.79 50.894 40.874C50.798 40.958 50.66 41 50.48 41H49.31ZM58.4053 44.06C58.1413 44.06 58.0093 43.928 58.0093 43.664V39.38L56.9473 40.172C56.8633 40.232 56.7673 40.256 56.6593 40.244C56.5513 40.232 56.4613 40.178 56.3893 40.082L56.1553 39.776C56.0833 39.68 56.0533 39.584 56.0653 39.488C56.0893 39.38 56.1433 39.29 56.2273 39.218L58.0093 37.886C58.1293 37.802 58.2673 37.76 58.4233 37.76H58.9273C59.1913 37.76 59.3233 37.892 59.3233 38.156V43.664C59.3233 43.928 59.1913 44.06 58.9273 44.06H58.4053ZM66.5941 33.872C66.4741 33.872 66.3781 33.836 66.3061 33.764C66.2341 33.692 66.1981 33.596 66.1981 33.476V33.224C66.1981 33.104 66.2341 33.008 66.3061 32.936C66.3781 32.864 66.4741 32.828 66.5941 32.828H73.3441C73.4641 32.828 73.5601 32.864 73.6321 32.936C73.7041 33.008 73.7401 33.104 73.7401 33.224V33.476C73.7401 33.596 73.7041 33.692 73.6321 33.764C73.5601 33.836 73.4641 33.872 73.3441 33.872H66.5941ZM66.5941 38.372C66.4741 38.372 66.3781 38.336 66.3061 38.264C66.2341 38.192 66.1981 38.096 66.1981 37.976V37.724C66.1981 37.604 66.2341 37.508 66.3061 37.436C66.3781 37.364 66.4741 37.328 66.5941 37.328H73.3441C73.4641 37.328 73.5601 37.364 73.6321 37.436C73.7041 37.508 73.7401 37.604 73.7401 37.724V37.976C73.7401 38.096 73.7041 38.192 73.6321 38.264C73.5601 38.336 73.4641 38.372 73.3441 38.372H66.5941ZM83.22 41C83.064 41 82.944 40.964 82.86 40.892C82.776 40.82 82.704 40.706 82.644 40.55L80.106 32.198C80.082 32.126 80.07 32.06 80.07 32C80.07 31.904 80.106 31.82 80.178 31.748C80.25 31.676 80.334 31.64 80.43 31.64H80.772C80.892 31.64 80.982 31.676 81.042 31.748C81.114 31.808 81.156 31.862 81.168 31.91L83.382 39.398L85.74 32C85.764 31.928 85.812 31.85 85.884 31.766C85.956 31.682 86.07 31.64 86.226 31.64H86.586C86.742 31.64 86.856 31.682 86.928 31.766C87.012 31.85 87.06 31.928 87.072 32L89.43 39.398L91.644 31.91C91.656 31.862 91.692 31.808 91.752 31.748C91.824 31.676 91.92 31.64 92.04 31.64H92.382C92.478 31.64 92.562 31.676 92.634 31.748C92.706 31.82 92.742 31.904 92.742 32C92.742 32.06 92.73 32.126 92.706 32.198L90.168 40.55C90.12 40.706 90.054 40.82 89.97 40.892C89.886 40.964 89.76 41 89.592 41H89.286C89.13 41 88.998 40.964 88.89 40.892C88.794 40.82 88.722 40.706 88.674 40.55L86.406 33.458L84.138 40.55C84.09 40.706 84.018 40.82 83.922 40.892C83.826 40.964 83.694 41 83.526 41H83.22ZM95.5704 41C95.4504 41 95.3544 40.964 95.2824 40.892C95.2104 40.82 95.1744 40.724 95.1744 40.604V28.796C95.1744 28.676 95.2104 28.58 95.2824 28.508C95.3544 28.436 95.4504 28.4 95.5704 28.4H95.9124C96.0324 28.4 96.1284 28.436 96.2004 28.508C96.2724 28.58 96.3084 28.676 96.3084 28.796V39.92H102.518C102.65 39.92 102.752 39.956 102.824 40.028C102.896 40.1 102.932 40.202 102.932 40.334V40.604C102.932 40.724 102.896 40.82 102.824 40.892C102.752 40.964 102.65 41 102.518 41H95.5704ZM108.338 42.512C108.242 42.512 108.158 42.476 108.086 42.404C108.014 42.332 107.978 42.248 107.978 42.152C107.978 42.092 107.996 42.02 108.032 41.936L114.224 27.122C114.248 27.074 114.29 27.02 114.35 26.96C114.41 26.888 114.5 26.852 114.62 26.852H114.926C115.022 26.852 115.106 26.888 115.178 26.96C115.25 27.032 115.286 27.116 115.286 27.212C115.286 27.26 115.268 27.332 115.232 27.428L109.04 42.242C109.028 42.29 108.986 42.344 108.914 42.404C108.854 42.476 108.764 42.512 108.644 42.512H108.338ZM121.727 41C121.607 41 121.511 40.964 121.439 40.892C121.367 40.82 121.331 40.724 121.331 40.604V40.334C121.331 40.214 121.361 40.1 121.421 39.992C121.493 39.872 121.613 39.734 121.781 39.578L126.443 34.916C126.899 34.496 127.247 34.13 127.487 33.818C127.727 33.506 127.889 33.2 127.973 32.9C128.069 32.588 128.117 32.246 128.117 31.874C128.117 31.07 127.883 30.44 127.415 29.984C126.959 29.528 126.305 29.3 125.453 29.3C124.913 29.3 124.445 29.408 124.049 29.624C123.653 29.84 123.341 30.146 123.113 30.542C122.885 30.926 122.735 31.376 122.663 31.892C122.651 32.036 122.597 32.144 122.501 32.216C122.405 32.276 122.321 32.306 122.249 32.306H121.889C121.769 32.306 121.673 32.276 121.601 32.216C121.541 32.144 121.511 32.06 121.511 31.964C121.523 31.556 121.607 31.136 121.763 30.704C121.919 30.26 122.153 29.852 122.465 29.48C122.789 29.108 123.197 28.808 123.689 28.58C124.181 28.34 124.769 28.22 125.453 28.22C126.365 28.22 127.097 28.394 127.649 28.742C128.213 29.09 128.621 29.54 128.873 30.092C129.125 30.644 129.251 31.238 129.251 31.874C129.251 32.366 129.179 32.822 129.035 33.242C128.891 33.65 128.675 34.052 128.387 34.448C128.099 34.832 127.733 35.228 127.289 35.636L123.077 39.92H129.107C129.239 39.92 129.341 39.956 129.413 40.028C129.485 40.1 129.521 40.202 129.521 40.334V40.604C129.521 40.724 129.485 40.82 129.413 40.892C129.341 40.964 129.239 41 129.107 41H121.727Z" fill="#4E4E4E"/>
<path d="M242.31 41C242.13 41 241.986 40.958 241.878 40.874C241.782 40.79 241.704 40.676 241.644 40.532L237.63 28.958C237.606 28.886 237.594 28.82 237.594 28.76C237.594 28.664 237.63 28.58 237.702 28.508C237.774 28.436 237.858 28.4 237.954 28.4H238.89C239.034 28.4 239.142 28.442 239.214 28.526C239.298 28.598 239.346 28.664 239.358 28.724L242.886 38.93L246.414 28.724C246.438 28.664 246.486 28.598 246.558 28.526C246.63 28.442 246.738 28.4 246.882 28.4H247.818C247.914 28.4 247.998 28.436 248.07 28.508C248.154 28.58 248.196 28.664 248.196 28.76C248.196 28.82 248.184 28.886 248.16 28.958L244.128 40.532C244.08 40.676 244.002 40.79 243.894 40.874C243.798 40.958 243.66 41 243.48 41H242.31ZM249.713 44.06C249.449 44.06 249.317 43.928 249.317 43.664V43.268C249.317 43.172 249.347 43.076 249.407 42.98C249.467 42.896 249.581 42.794 249.749 42.674C250.481 42.134 251.075 41.702 251.531 41.378C251.987 41.054 252.317 40.766 252.521 40.514C252.725 40.262 252.827 39.986 252.827 39.686C252.827 39.422 252.731 39.212 252.539 39.056C252.347 38.888 252.107 38.804 251.819 38.804C251.531 38.804 251.315 38.852 251.171 38.948C251.039 39.032 250.943 39.128 250.883 39.236C250.823 39.344 250.775 39.434 250.739 39.506C250.667 39.638 250.601 39.728 250.541 39.776C250.481 39.812 250.403 39.83 250.307 39.83H249.803C249.563 39.83 249.455 39.716 249.479 39.488C249.503 39.164 249.617 38.87 249.821 38.606C250.037 38.33 250.319 38.108 250.667 37.94C251.015 37.76 251.399 37.67 251.819 37.67C252.527 37.67 253.085 37.868 253.493 38.264C253.913 38.66 254.123 39.128 254.123 39.668C254.123 40.1 254.027 40.478 253.835 40.802C253.643 41.114 253.349 41.432 252.953 41.756C252.557 42.08 252.047 42.458 251.423 42.89H253.979C254.243 42.89 254.375 43.022 254.375 43.286V43.664C254.375 43.928 254.243 44.06 253.979 44.06H249.713ZM261.088 33.872C260.968 33.872 260.872 33.836 260.8 33.764C260.728 33.692 260.692 33.596 260.692 33.476V33.224C260.692 33.104 260.728 33.008 260.8 32.936C260.872 32.864 260.968 32.828 261.088 32.828H267.838C267.958 32.828 268.054 32.864 268.126 32.936C268.198 33.008 268.234 33.104 268.234 33.224V33.476C268.234 33.596 268.198 33.692 268.126 33.764C268.054 33.836 267.958 33.872 267.838 33.872H261.088ZM261.088 38.372C260.968 38.372 260.872 38.336 260.8 38.264C260.728 38.192 260.692 38.096 260.692 37.976V37.724C260.692 37.604 260.728 37.508 260.8 37.436C260.872 37.364 260.968 37.328 261.088 37.328H267.838C267.958 37.328 268.054 37.364 268.126 37.436C268.198 37.508 268.234 37.604 268.234 37.724V37.976C268.234 38.096 268.198 38.192 268.126 38.264C268.054 38.336 267.958 38.372 267.838 38.372H261.088ZM277.714 41C277.558 41 277.438 40.964 277.354 40.892C277.27 40.82 277.198 40.706 277.138 40.55L274.6 32.198C274.576 32.126 274.564 32.06 274.564 32C274.564 31.904 274.6 31.82 274.672 31.748C274.744 31.676 274.828 31.64 274.924 31.64H275.266C275.386 31.64 275.476 31.676 275.536 31.748C275.608 31.808 275.65 31.862 275.662 31.91L277.876 39.398L280.234 32C280.258 31.928 280.306 31.85 280.378 31.766C280.45 31.682 280.564 31.64 280.72 31.64H281.08C281.236 31.64 281.35 31.682 281.422 31.766C281.506 31.85 281.554 31.928 281.566 32L283.924 39.398L286.138 31.91C286.15 31.862 286.186 31.808 286.246 31.748C286.318 31.676 286.414 31.64 286.534 31.64H286.876C286.972 31.64 287.056 31.676 287.128 31.748C287.2 31.82 287.236 31.904 287.236 32C287.236 32.06 287.224 32.126 287.2 32.198L284.662 40.55C284.614 40.706 284.548 40.82 284.464 40.892C284.38 40.964 284.254 41 284.086 41H283.78C283.624 41 283.492 40.964 283.384 40.892C283.288 40.82 283.216 40.706 283.168 40.55L280.9 33.458L278.632 40.55C278.584 40.706 278.512 40.82 278.416 40.892C278.32 40.964 278.188 41 278.02 41H277.714ZM290.065 41C289.945 41 289.849 40.964 289.777 40.892C289.705 40.82 289.669 40.724 289.669 40.604V28.796C289.669 28.676 289.705 28.58 289.777 28.508C289.849 28.436 289.945 28.4 290.065 28.4H290.407C290.527 28.4 290.623 28.436 290.695 28.508C290.767 28.58 290.803 28.676 290.803 28.796V39.92H297.013C297.145 39.92 297.247 39.956 297.319 40.028C297.391 40.1 297.427 40.202 297.427 40.334V40.604C297.427 40.724 297.391 40.82 297.319 40.892C297.247 40.964 297.145 41 297.013 41H290.065ZM302.832 42.512C302.736 42.512 302.652 42.476 302.58 42.404C302.508 42.332 302.472 42.248 302.472 42.152C302.472 42.092 302.49 42.02 302.526 41.936L308.718 27.122C308.742 27.074 308.784 27.02 308.844 26.96C308.904 26.888 308.994 26.852 309.114 26.852H309.42C309.516 26.852 309.6 26.888 309.672 26.96C309.744 27.032 309.78 27.116 309.78 27.212C309.78 27.26 309.762 27.332 309.726 27.428L303.534 42.242C303.522 42.29 303.48 42.344 303.408 42.404C303.348 42.476 303.258 42.512 303.138 42.512H302.832ZM316.221 41C316.101 41 316.005 40.964 315.933 40.892C315.861 40.82 315.825 40.724 315.825 40.604V40.334C315.825 40.214 315.855 40.1 315.915 39.992C315.987 39.872 316.107 39.734 316.275 39.578L320.937 34.916C321.393 34.496 321.741 34.13 321.981 33.818C322.221 33.506 322.383 33.2 322.467 32.9C322.563 32.588 322.611 32.246 322.611 31.874C322.611 31.07 322.377 30.44 321.909 29.984C321.453 29.528 320.799 29.3 319.947 29.3C319.407 29.3 318.939 29.408 318.543 29.624C318.147 29.84 317.835 30.146 317.607 30.542C317.379 30.926 317.229 31.376 317.157 31.892C317.145 32.036 317.091 32.144 316.995 32.216C316.899 32.276 316.815 32.306 316.743 32.306H316.383C316.263 32.306 316.167 32.276 316.095 32.216C316.035 32.144 316.005 32.06 316.005 31.964C316.017 31.556 316.101 31.136 316.257 30.704C316.413 30.26 316.647 29.852 316.959 29.48C317.283 29.108 317.691 28.808 318.183 28.58C318.675 28.34 319.263 28.22 319.947 28.22C320.859 28.22 321.591 28.394 322.143 28.742C322.707 29.09 323.115 29.54 323.367 30.092C323.619 30.644 323.745 31.238 323.745 31.874C323.745 32.366 323.673 32.822 323.529 33.242C323.385 33.65 323.169 34.052 322.881 34.448C322.593 34.832 322.227 35.228 321.783 35.636L317.571 39.92H323.601C323.733 39.92 323.835 39.956 323.907 40.028C323.979 40.1 324.015 40.202 324.015 40.334V40.604C324.015 40.724 323.979 40.82 323.907 40.892C323.835 40.964 323.733 41 323.601 41H316.221Z" fill="#4E4E4E"/>
</g>
<defs>
<filter id="filter0_d_45_91" x="0" y="0" width="394" height="129" filterUnits="userSpaceOnUse" color-interpolation-filters="sRGB">
<feFlood flood-opacity="0" result="BackgroundImageFix"/>
<feColorMatrix in="SourceAlpha" type="matrix" values="0 0 0 0 0 0 0 0 0 0 0 0 0 0 0 0 0 0 127 0" result="hardAlpha"/>
<feOffset dy="4"/>
<feGaussianBlur stdDeviation="2"/>
<feComposite in2="hardAlpha" operator="out"/>
<feColorMatrix type="matrix" values="0 0 0 0 0 0 0 0 0 0 0 0 0 0 0 0 0 0 0.25 0"/>
<feBlend mode="normal" in2="BackgroundImageFix" result="effect1_dropShadow_45_91"/>
<feBlend mode="normal" in="SourceGraphic" in2="effect1_dropShadow_45_91" result="shape"/>
</filter>
</defs>
</svg>
