<svg width="394" height="129" viewBox="0 0 394 129" fill="none" xmlns="http://www.w3.org/2000/svg">
<g filter="url(#filter0_d_444_39)">
<rect x="4" width="386" height="121" rx="5" fill="white"/>
<path d="M45.98 89C45.86 89 45.758 88.964 45.674 88.892C45.602 88.808 45.566 88.706 45.566 88.586V76.832C45.566 76.7 45.602 76.598 45.674 76.526C45.758 76.442 45.86 76.4 45.98 76.4H46.88C47.024 76.4 47.132 76.436 47.204 76.508C47.276 76.58 47.318 76.64 47.33 76.688L51.146 83.96L54.98 76.688C55.004 76.64 55.046 76.58 55.106 76.508C55.178 76.436 55.286 76.4 55.43 76.4H56.312C56.444 76.4 56.546 76.442 56.618 76.526C56.702 76.598 56.744 76.7 56.744 76.832V88.586C56.744 88.706 56.702 88.808 56.618 88.892C56.546 88.964 56.444 89 56.312 89H55.43C55.31 89 55.208 88.964 55.124 88.892C55.052 88.808 55.016 88.706 55.016 88.586V79.73L52.01 85.598C51.962 85.718 51.89 85.814 51.794 85.886C51.698 85.946 51.578 85.976 51.434 85.976H50.876C50.72 85.976 50.594 85.946 50.498 85.886C50.414 85.814 50.342 85.718 50.282 85.598L47.276 79.73V88.586C47.276 88.706 47.234 88.808 47.15 88.892C47.078 88.964 46.982 89 46.862 89H45.98ZM60.919 92.06C60.655 92.06 60.523 91.928 60.523 91.664V87.38L59.461 88.172C59.377 88.232 59.281 88.256 59.173 88.244C59.065 88.232 58.975 88.178 58.903 88.082L58.669 87.776C58.597 87.68 58.567 87.584 58.579 87.488C58.603 87.38 58.657 87.29 58.741 87.218L60.523 85.886C60.643 85.802 60.781 85.76 60.937 85.76H61.441C61.705 85.76 61.837 85.892 61.837 86.156V91.664C61.837 91.928 61.705 92.06 61.441 92.06H60.919ZM69.3363 81.872C69.2163 81.872 69.1203 81.836 69.0483 81.764C68.9763 81.692 68.9403 81.596 68.9403 81.476V81.224C68.9403 81.104 68.9763 81.008 69.0483 80.936C69.1203 80.864 69.2163 80.828 69.3363 80.828H76.0863C76.2063 80.828 76.3023 80.864 76.3743 80.936C76.4463 81.008 76.4823 81.104 76.4823 81.224V81.476C76.4823 81.596 76.4463 81.692 76.3743 81.764C76.3023 81.836 76.2063 81.872 76.0863 81.872H69.3363ZM69.3363 86.372C69.2163 86.372 69.1203 86.336 69.0483 86.264C68.9763 86.192 68.9403 86.096 68.9403 85.976V85.724C68.9403 85.604 68.9763 85.508 69.0483 85.436C69.1203 85.364 69.2163 85.328 69.3363 85.328H76.0863C76.2063 85.328 76.3023 85.364 76.3743 85.436C76.4463 85.508 76.4823 85.604 76.4823 85.724V85.976C76.4823 86.096 76.4463 86.192 76.3743 86.264C76.3023 86.336 76.2063 86.372 76.0863 86.372H69.3363ZM84.2241 84.122C84.1041 84.122 84.0081 84.086 83.9361 84.014C83.8641 83.942 83.8281 83.846 83.8281 83.726V83.474C83.8281 83.354 83.8641 83.258 83.9361 83.186C84.0081 83.114 84.1041 83.078 84.2241 83.078H89.5341C89.6541 83.078 89.7501 83.114 89.8221 83.186C89.8941 83.258 89.9301 83.354 89.9301 83.474V83.726C89.9301 83.846 89.8941 83.942 89.8221 84.014C89.7501 84.086 89.6541 84.122 89.5341 84.122H84.2241ZM94.8743 89C94.7183 89 94.5983 88.964 94.5143 88.892C94.4303 88.82 94.3583 88.706 94.2983 88.55L91.7603 80.198C91.7363 80.126 91.7243 80.06 91.7243 80C91.7243 79.904 91.7603 79.82 91.8323 79.748C91.9043 79.676 91.9883 79.64 92.0843 79.64H92.4263C92.5463 79.64 92.6363 79.676 92.6963 79.748C92.7683 79.808 92.8103 79.862 92.8223 79.91L95.0363 87.398L97.3943 80C97.4183 79.928 97.4663 79.85 97.5383 79.766C97.6103 79.682 97.7243 79.64 97.8803 79.64H98.2403C98.3963 79.64 98.5103 79.682 98.5823 79.766C98.6663 79.85 98.7143 79.928 98.7263 80L101.084 87.398L103.298 79.91C103.31 79.862 103.346 79.808 103.406 79.748C103.478 79.676 103.574 79.64 103.694 79.64H104.036C104.132 79.64 104.216 79.676 104.288 79.748C104.36 79.82 104.396 79.904 104.396 80C104.396 80.06 104.384 80.126 104.36 80.198L101.822 88.55C101.774 88.706 101.708 88.82 101.624 88.892C101.54 88.964 101.414 89 101.246 89H100.94C100.784 89 100.652 88.964 100.544 88.892C100.448 88.82 100.376 88.706 100.328 88.55L98.0603 81.458L95.7923 88.55C95.7443 88.706 95.6723 88.82 95.5763 88.892C95.4803 88.964 95.3483 89 95.1803 89H94.8743ZM107.225 89C107.105 89 107.009 88.964 106.937 88.892C106.865 88.82 106.829 88.724 106.829 88.604V76.796C106.829 76.676 106.865 76.58 106.937 76.508C107.009 76.436 107.105 76.4 107.225 76.4H107.567C107.687 76.4 107.783 76.436 107.855 76.508C107.927 76.58 107.963 76.676 107.963 76.796V87.92H114.173C114.305 87.92 114.407 87.956 114.479 88.028C114.551 88.1 114.587 88.202 114.587 88.334V88.604C114.587 88.724 114.551 88.82 114.479 88.892C114.407 88.964 114.305 89 114.173 89H107.225ZM115.952 82.7C115.688 82.7 115.556 82.568 115.556 82.304V81.998C115.556 81.902 115.586 81.812 115.646 81.728C115.706 81.632 115.82 81.524 115.988 81.404C116.756 80.852 117.368 80.414 117.824 80.09C118.292 79.754 118.628 79.454 118.832 79.19C119.048 78.926 119.156 78.632 119.156 78.308C119.156 77.996 119.036 77.75 118.796 77.57C118.568 77.39 118.298 77.3 117.986 77.3C117.662 77.3 117.416 77.354 117.248 77.462C117.092 77.558 116.978 77.666 116.906 77.786C116.846 77.906 116.798 78.002 116.762 78.074C116.69 78.206 116.624 78.296 116.564 78.344C116.504 78.38 116.426 78.398 116.33 78.398H116.06C115.82 78.398 115.712 78.284 115.736 78.056C115.76 77.768 115.874 77.492 116.078 77.228C116.282 76.964 116.552 76.748 116.888 76.58C117.224 76.4 117.59 76.31 117.986 76.31C118.67 76.31 119.21 76.514 119.606 76.922C120.002 77.318 120.2 77.78 120.2 78.308C120.2 78.752 120.104 79.142 119.912 79.478C119.72 79.802 119.414 80.138 118.994 80.486C118.574 80.822 118.022 81.224 117.338 81.692H120.074C120.338 81.692 120.47 81.824 120.47 82.088V82.304C120.47 82.568 120.338 82.7 120.074 82.7H115.952ZM126.514 90.512C126.418 90.512 126.334 90.476 126.262 90.404C126.19 90.332 126.154 90.248 126.154 90.152C126.154 90.092 126.172 90.02 126.208 89.936L132.4 75.122C132.424 75.074 132.466 75.02 132.526 74.96C132.586 74.888 132.676 74.852 132.796 74.852H133.102C133.198 74.852 133.282 74.888 133.354 74.96C133.426 75.032 133.462 75.116 133.462 75.212C133.462 75.26 133.444 75.332 133.408 75.428L127.216 90.242C127.204 90.29 127.162 90.344 127.09 90.404C127.03 90.476 126.94 90.512 126.82 90.512H126.514ZM139.902 89C139.782 89 139.686 88.964 139.614 88.892C139.542 88.82 139.506 88.724 139.506 88.604V88.334C139.506 88.214 139.536 88.1 139.596 87.992C139.668 87.872 139.788 87.734 139.956 87.578L144.618 82.916C145.074 82.496 145.422 82.13 145.662 81.818C145.902 81.506 146.064 81.2 146.148 80.9C146.244 80.588 146.292 80.246 146.292 79.874C146.292 79.07 146.058 78.44 145.59 77.984C145.134 77.528 144.48 77.3 143.628 77.3C143.088 77.3 142.62 77.408 142.224 77.624C141.828 77.84 141.516 78.146 141.288 78.542C141.06 78.926 140.91 79.376 140.838 79.892C140.826 80.036 140.772 80.144 140.676 80.216C140.58 80.276 140.496 80.306 140.424 80.306H140.064C139.944 80.306 139.848 80.276 139.776 80.216C139.716 80.144 139.686 80.06 139.686 79.964C139.698 79.556 139.782 79.136 139.938 78.704C140.094 78.26 140.328 77.852 140.64 77.48C140.964 77.108 141.372 76.808 141.864 76.58C142.356 76.34 142.944 76.22 143.628 76.22C144.54 76.22 145.272 76.394 145.824 76.742C146.388 77.09 146.796 77.54 147.048 78.092C147.3 78.644 147.426 79.238 147.426 79.874C147.426 80.366 147.354 80.822 147.21 81.242C147.066 81.65 146.85 82.052 146.562 82.448C146.274 82.832 145.908 83.228 145.464 83.636L141.252 87.92H147.282C147.414 87.92 147.516 87.956 147.588 88.028C147.66 88.1 147.696 88.202 147.696 88.334V88.604C147.696 88.724 147.66 88.82 147.588 88.892C147.516 88.964 147.414 89 147.282 89H139.902ZM154.187 89.18C153.371 89.18 152.687 89.048 152.135 88.784C151.595 88.52 151.157 88.16 150.821 87.704C150.497 87.236 150.263 86.702 150.119 86.102C149.975 85.502 149.891 84.872 149.867 84.212C149.867 83.888 149.861 83.558 149.849 83.222C149.849 82.886 149.849 82.55 149.849 82.214C149.861 81.866 149.867 81.524 149.867 81.188C149.879 80.528 149.957 79.898 150.101 79.298C150.257 78.698 150.497 78.17 150.821 77.714C151.157 77.246 151.595 76.88 152.135 76.616C152.687 76.352 153.371 76.22 154.187 76.22C155.003 76.22 155.681 76.352 156.221 76.616C156.773 76.88 157.211 77.246 157.535 77.714C157.871 78.17 158.111 78.698 158.255 79.298C158.411 79.898 158.495 80.528 158.507 81.188C158.519 81.524 158.525 81.866 158.525 82.214C158.525 82.55 158.525 82.886 158.525 83.222C158.525 83.558 158.519 83.888 158.507 84.212C158.495 84.872 158.411 85.502 158.255 86.102C158.111 86.702 157.871 87.236 157.535 87.704C157.211 88.16 156.773 88.52 156.221 88.784C155.681 89.048 155.003 89.18 154.187 89.18ZM154.187 88.1C155.255 88.1 156.047 87.746 156.563 87.038C157.079 86.33 157.349 85.358 157.373 84.122C157.385 83.774 157.391 83.45 157.391 83.15C157.391 82.838 157.391 82.532 157.391 82.232C157.391 81.92 157.385 81.602 157.373 81.278C157.349 80.066 157.079 79.1 156.563 78.38C156.047 77.66 155.255 77.3 154.187 77.3C153.131 77.3 152.339 77.66 151.811 78.38C151.295 79.1 151.025 80.066 151.001 81.278C151.001 81.602 150.995 81.92 150.983 82.232C150.983 82.532 150.983 82.838 150.983 83.15C150.995 83.45 151.001 83.774 151.001 84.122C151.025 85.358 151.295 86.33 151.811 87.038C152.339 87.746 153.131 88.1 154.187 88.1Z" fill="#4E4E4E"/>
<path d="M238.98 89C238.86 89 238.758 88.964 238.674 88.892C238.602 88.808 238.566 88.706 238.566 88.586V76.832C238.566 76.7 238.602 76.598 238.674 76.526C238.758 76.442 238.86 76.4 238.98 76.4H239.88C240.024 76.4 240.132 76.436 240.204 76.508C240.276 76.58 240.318 76.64 240.33 76.688L244.146 83.96L247.98 76.688C248.004 76.64 248.046 76.58 248.106 76.508C248.178 76.436 248.286 76.4 248.43 76.4H249.312C249.444 76.4 249.546 76.442 249.618 76.526C249.702 76.598 249.744 76.7 249.744 76.832V88.586C249.744 88.706 249.702 88.808 249.618 88.892C249.546 88.964 249.444 89 249.312 89H248.43C248.31 89 248.208 88.964 248.124 88.892C248.052 88.808 248.016 88.706 248.016 88.586V79.73L245.01 85.598C244.962 85.718 244.89 85.814 244.794 85.886C244.698 85.946 244.578 85.976 244.434 85.976H243.876C243.72 85.976 243.594 85.946 243.498 85.886C243.414 85.814 243.342 85.718 243.282 85.598L240.276 79.73V88.586C240.276 88.706 240.234 88.808 240.15 88.892C240.078 88.964 239.982 89 239.862 89H238.98ZM252.227 92.06C251.963 92.06 251.831 91.928 251.831 91.664V91.268C251.831 91.172 251.861 91.076 251.921 90.98C251.981 90.896 252.095 90.794 252.263 90.674C252.995 90.134 253.589 89.702 254.045 89.378C254.501 89.054 254.831 88.766 255.035 88.514C255.239 88.262 255.341 87.986 255.341 87.686C255.341 87.422 255.245 87.212 255.053 87.056C254.861 86.888 254.621 86.804 254.333 86.804C254.045 86.804 253.829 86.852 253.685 86.948C253.553 87.032 253.457 87.128 253.397 87.236C253.337 87.344 253.289 87.434 253.253 87.506C253.181 87.638 253.115 87.728 253.055 87.776C252.995 87.812 252.917 87.83 252.821 87.83H252.317C252.077 87.83 251.969 87.716 251.993 87.488C252.017 87.164 252.131 86.87 252.335 86.606C252.551 86.33 252.833 86.108 253.181 85.94C253.529 85.76 253.913 85.67 254.333 85.67C255.041 85.67 255.599 85.868 256.007 86.264C256.427 86.66 256.637 87.128 256.637 87.668C256.637 88.1 256.541 88.478 256.349 88.802C256.157 89.114 255.863 89.432 255.467 89.756C255.071 90.08 254.561 90.458 253.937 90.89H256.493C256.757 90.89 256.889 91.022 256.889 91.286V91.664C256.889 91.928 256.757 92.06 256.493 92.06H252.227ZM263.83 81.872C263.71 81.872 263.614 81.836 263.542 81.764C263.47 81.692 263.434 81.596 263.434 81.476V81.224C263.434 81.104 263.47 81.008 263.542 80.936C263.614 80.864 263.71 80.828 263.83 80.828H270.58C270.7 80.828 270.796 80.864 270.868 80.936C270.94 81.008 270.976 81.104 270.976 81.224V81.476C270.976 81.596 270.94 81.692 270.868 81.764C270.796 81.836 270.7 81.872 270.58 81.872H263.83ZM263.83 86.372C263.71 86.372 263.614 86.336 263.542 86.264C263.47 86.192 263.434 86.096 263.434 85.976V85.724C263.434 85.604 263.47 85.508 263.542 85.436C263.614 85.364 263.71 85.328 263.83 85.328H270.58C270.7 85.328 270.796 85.364 270.868 85.436C270.94 85.508 270.976 85.604 270.976 85.724V85.976C270.976 86.096 270.94 86.192 270.868 86.264C270.796 86.336 270.7 86.372 270.58 86.372H263.83ZM280.456 89C280.3 89 280.18 88.964 280.096 88.892C280.012 88.82 279.94 88.706 279.88 88.55L277.342 80.198C277.318 80.126 277.306 80.06 277.306 80C277.306 79.904 277.342 79.82 277.414 79.748C277.486 79.676 277.57 79.64 277.666 79.64H278.008C278.128 79.64 278.218 79.676 278.278 79.748C278.35 79.808 278.392 79.862 278.404 79.91L280.618 87.398L282.976 80C283 79.928 283.048 79.85 283.12 79.766C283.192 79.682 283.306 79.64 283.462 79.64H283.822C283.978 79.64 284.092 79.682 284.164 79.766C284.248 79.85 284.296 79.928 284.308 80L286.666 87.398L288.88 79.91C288.892 79.862 288.928 79.808 288.988 79.748C289.06 79.676 289.156 79.64 289.276 79.64H289.618C289.714 79.64 289.798 79.676 289.87 79.748C289.942 79.82 289.978 79.904 289.978 80C289.978 80.06 289.966 80.126 289.942 80.198L287.404 88.55C287.356 88.706 287.29 88.82 287.206 88.892C287.122 88.964 286.996 89 286.828 89H286.522C286.366 89 286.234 88.964 286.126 88.892C286.03 88.82 285.958 88.706 285.91 88.55L283.642 81.458L281.374 88.55C281.326 88.706 281.254 88.82 281.158 88.892C281.062 88.964 280.93 89 280.762 89H280.456ZM292.807 89C292.687 89 292.591 88.964 292.519 88.892C292.447 88.82 292.411 88.724 292.411 88.604V76.796C292.411 76.676 292.447 76.58 292.519 76.508C292.591 76.436 292.687 76.4 292.807 76.4H293.149C293.269 76.4 293.365 76.436 293.437 76.508C293.509 76.58 293.545 76.676 293.545 76.796V87.92H299.755C299.887 87.92 299.989 87.956 300.061 88.028C300.133 88.1 300.169 88.202 300.169 88.334V88.604C300.169 88.724 300.133 88.82 300.061 88.892C299.989 88.964 299.887 89 299.755 89H292.807ZM301.534 82.7C301.27 82.7 301.138 82.568 301.138 82.304V81.998C301.138 81.902 301.168 81.812 301.228 81.728C301.288 81.632 301.402 81.524 301.57 81.404C302.338 80.852 302.95 80.414 303.406 80.09C303.874 79.754 304.21 79.454 304.414 79.19C304.63 78.926 304.738 78.632 304.738 78.308C304.738 77.996 304.618 77.75 304.378 77.57C304.15 77.39 303.88 77.3 303.568 77.3C303.244 77.3 302.998 77.354 302.83 77.462C302.674 77.558 302.56 77.666 302.488 77.786C302.428 77.906 302.38 78.002 302.344 78.074C302.272 78.206 302.206 78.296 302.146 78.344C302.086 78.38 302.008 78.398 301.912 78.398H301.642C301.402 78.398 301.294 78.284 301.318 78.056C301.342 77.768 301.456 77.492 301.66 77.228C301.864 76.964 302.134 76.748 302.47 76.58C302.806 76.4 303.172 76.31 303.568 76.31C304.252 76.31 304.792 76.514 305.188 76.922C305.584 77.318 305.782 77.78 305.782 78.308C305.782 78.752 305.686 79.142 305.494 79.478C305.302 79.802 304.996 80.138 304.576 80.486C304.156 80.822 303.604 81.224 302.92 81.692H305.656C305.92 81.692 306.052 81.824 306.052 82.088V82.304C306.052 82.568 305.92 82.7 305.656 82.7H301.534ZM312.096 90.512C312 90.512 311.916 90.476 311.844 90.404C311.772 90.332 311.736 90.248 311.736 90.152C311.736 90.092 311.754 90.02 311.79 89.936L317.982 75.122C318.006 75.074 318.048 75.02 318.108 74.96C318.168 74.888 318.258 74.852 318.378 74.852H318.684C318.78 74.852 318.864 74.888 318.936 74.96C319.008 75.032 319.044 75.116 319.044 75.212C319.044 75.26 319.026 75.332 318.99 75.428L312.798 90.242C312.786 90.29 312.744 90.344 312.672 90.404C312.612 90.476 312.522 90.512 312.402 90.512H312.096ZM329.3 89.18C328.628 89.18 328.028 89.096 327.5 88.928C326.972 88.748 326.522 88.514 326.15 88.226C325.79 87.938 325.508 87.614 325.304 87.254C325.112 86.882 325.01 86.498 324.998 86.102C324.998 85.994 325.034 85.91 325.106 85.85C325.178 85.79 325.268 85.76 325.376 85.76H325.628C325.724 85.76 325.814 85.784 325.898 85.832C325.994 85.88 326.066 85.994 326.114 86.174C326.246 86.69 326.48 87.092 326.816 87.38C327.164 87.656 327.554 87.848 327.986 87.956C328.43 88.052 328.868 88.1 329.3 88.1C330.224 88.1 330.98 87.878 331.568 87.434C332.168 86.99 332.468 86.324 332.468 85.436C332.468 84.548 332.198 83.912 331.658 83.528C331.13 83.144 330.404 82.952 329.48 82.952H327.896C327.776 82.952 327.68 82.916 327.608 82.844C327.536 82.772 327.5 82.676 327.5 82.556V82.286C327.5 82.19 327.512 82.112 327.536 82.052C327.572 81.98 327.614 81.914 327.662 81.854L331.37 77.48H325.934C325.814 77.48 325.718 77.444 325.646 77.372C325.574 77.3 325.538 77.204 325.538 77.084V76.814C325.538 76.682 325.574 76.58 325.646 76.508C325.718 76.436 325.814 76.4 325.934 76.4H332.648C332.78 76.4 332.882 76.436 332.954 76.508C333.026 76.58 333.062 76.682 333.062 76.814V77.084C333.062 77.156 333.044 77.222 333.008 77.282C332.984 77.33 332.954 77.378 332.918 77.426L329.12 81.872H329.48C330.308 81.872 331.028 82.004 331.64 82.268C332.264 82.52 332.744 82.91 333.08 83.438C333.428 83.966 333.602 84.632 333.602 85.436C333.602 86.228 333.416 86.906 333.044 87.47C332.672 88.022 332.162 88.448 331.514 88.748C330.866 89.036 330.128 89.18 329.3 89.18ZM340.067 89.18C339.251 89.18 338.567 89.048 338.015 88.784C337.475 88.52 337.037 88.16 336.701 87.704C336.377 87.236 336.143 86.702 335.999 86.102C335.855 85.502 335.771 84.872 335.747 84.212C335.747 83.888 335.741 83.558 335.729 83.222C335.729 82.886 335.729 82.55 335.729 82.214C335.741 81.866 335.747 81.524 335.747 81.188C335.759 80.528 335.837 79.898 335.981 79.298C336.137 78.698 336.377 78.17 336.701 77.714C337.037 77.246 337.475 76.88 338.015 76.616C338.567 76.352 339.251 76.22 340.067 76.22C340.883 76.22 341.561 76.352 342.101 76.616C342.653 76.88 343.091 77.246 343.415 77.714C343.751 78.17 343.991 78.698 344.135 79.298C344.291 79.898 344.375 80.528 344.387 81.188C344.399 81.524 344.405 81.866 344.405 82.214C344.405 82.55 344.405 82.886 344.405 83.222C344.405 83.558 344.399 83.888 344.387 84.212C344.375 84.872 344.291 85.502 344.135 86.102C343.991 86.702 343.751 87.236 343.415 87.704C343.091 88.16 342.653 88.52 342.101 88.784C341.561 89.048 340.883 89.18 340.067 89.18ZM340.067 88.1C341.135 88.1 341.927 87.746 342.443 87.038C342.959 86.33 343.229 85.358 343.253 84.122C343.265 83.774 343.271 83.45 343.271 83.15C343.271 82.838 343.271 82.532 343.271 82.232C343.271 81.92 343.265 81.602 343.253 81.278C343.229 80.066 342.959 79.1 342.443 78.38C341.927 77.66 341.135 77.3 340.067 77.3C339.011 77.3 338.219 77.66 337.691 78.38C337.175 79.1 336.905 80.066 336.881 81.278C336.881 81.602 336.875 81.92 336.863 82.232C336.863 82.532 336.863 82.838 336.863 83.15C336.875 83.45 336.881 83.774 336.881 84.122C336.905 85.358 337.175 86.33 337.691 87.038C338.219 87.746 339.011 88.1 340.067 88.1Z" fill="#4E4E4E"/>
<path d="M49.31 41C49.13 41 48.986 40.958 48.878 40.874C48.782 40.79 48.704 40.676 48.644 40.532L44.63 28.958C44.606 28.886 44.594 28.82 44.594 28.76C44.594 28.664 44.63 28.58 44.702 28.508C44.774 28.436 44.858 28.4 44.954 28.4H45.89C46.034 28.4 46.142 28.442 46.214 28.526C46.298 28.598 46.346 28.664 46.358 28.724L49.886 38.93L53.414 28.724C53.438 28.664 53.486 28.598 53.558 28.526C53.63 28.442 53.738 28.4 53.882 28.4H54.818C54.914 28.4 54.998 28.436 55.07 28.508C55.154 28.58 55.196 28.664 55.196 28.76C55.196 28.82 55.184 28.886 55.16 28.958L51.128 40.532C51.08 40.676 51.002 40.79 50.894 40.874C50.798 40.958 50.66 41 50.48 41H49.31ZM58.4053 44.06C58.1413 44.06 58.0093 43.928 58.0093 43.664V39.38L56.9473 40.172C56.8633 40.232 56.7673 40.256 56.6593 40.244C56.5513 40.232 56.4613 40.178 56.3893 40.082L56.1553 39.776C56.0833 39.68 56.0533 39.584 56.0653 39.488C56.0893 39.38 56.1433 39.29 56.2273 39.218L58.0093 37.886C58.1293 37.802 58.2673 37.76 58.4233 37.76H58.9273C59.1913 37.76 59.3233 37.892 59.3233 38.156V43.664C59.3233 43.928 59.1913 44.06 58.9273 44.06H58.4053ZM66.5941 33.872C66.4741 33.872 66.3781 33.836 66.3061 33.764C66.2341 33.692 66.1981 33.596 66.1981 33.476V33.224C66.1981 33.104 66.2341 33.008 66.3061 32.936C66.3781 32.864 66.4741 32.828 66.5941 32.828H73.3441C73.4641 32.828 73.5601 32.864 73.6321 32.936C73.7041 33.008 73.7401 33.104 73.7401 33.224V33.476C73.7401 33.596 73.7041 33.692 73.6321 33.764C73.5601 33.836 73.4641 33.872 73.3441 33.872H66.5941ZM66.5941 38.372C66.4741 38.372 66.3781 38.336 66.3061 38.264C66.2341 38.192 66.1981 38.096 66.1981 37.976V37.724C66.1981 37.604 66.2341 37.508 66.3061 37.436C66.3781 37.364 66.4741 37.328 66.5941 37.328H73.3441C73.4641 37.328 73.5601 37.364 73.6321 37.436C73.7041 37.508 73.7401 37.604 73.7401 37.724V37.976C73.7401 38.096 73.7041 38.192 73.6321 38.264C73.5601 38.336 73.4641 38.372 73.3441 38.372H66.5941ZM82.5079 41C82.3999 41 82.3099 40.964 82.2379 40.892C82.1779 40.808 82.1479 40.712 82.1479 40.604C82.1479 40.568 82.1599 40.514 82.1839 40.442L86.8099 29.48H80.6719C80.5519 29.48 80.4559 29.444 80.3839 29.372C80.3119 29.3 80.2759 29.204 80.2759 29.084V28.814C80.2759 28.682 80.3119 28.58 80.3839 28.508C80.4559 28.436 80.5519 28.4 80.6719 28.4H87.6199C87.7519 28.4 87.8539 28.436 87.9259 28.508C87.9979 28.58 88.0339 28.682 88.0339 28.814V29.084C88.0339 29.228 88.0219 29.348 87.9979 29.444C87.9859 29.528 87.9559 29.63 87.9079 29.75L83.3539 40.55C83.3059 40.646 83.2459 40.748 83.1739 40.856C83.1139 40.952 83.0179 41 82.8859 41H82.5079ZM92.4134 41C92.2574 41 92.1374 40.964 92.0534 40.892C91.9694 40.82 91.8974 40.706 91.8374 40.55L89.2994 32.198C89.2754 32.126 89.2634 32.06 89.2634 32C89.2634 31.904 89.2994 31.82 89.3714 31.748C89.4434 31.676 89.5274 31.64 89.6234 31.64H89.9654C90.0854 31.64 90.1754 31.676 90.2354 31.748C90.3074 31.808 90.3494 31.862 90.3614 31.91L92.5754 39.398L94.9334 32C94.9574 31.928 95.0054 31.85 95.0774 31.766C95.1494 31.682 95.2634 31.64 95.4194 31.64H95.7794C95.9354 31.64 96.0494 31.682 96.1214 31.766C96.2054 31.85 96.2534 31.928 96.2654 32L98.6234 39.398L100.837 31.91C100.849 31.862 100.885 31.808 100.945 31.748C101.017 31.676 101.113 31.64 101.233 31.64H101.575C101.671 31.64 101.755 31.676 101.827 31.748C101.899 31.82 101.935 31.904 101.935 32C101.935 32.06 101.923 32.126 101.899 32.198L99.3614 40.55C99.3134 40.706 99.2474 40.82 99.1634 40.892C99.0794 40.964 98.9534 41 98.7854 41H98.4794C98.3234 41 98.1914 40.964 98.0834 40.892C97.9874 40.82 97.9154 40.706 97.8674 40.55L95.5994 33.458L93.3314 40.55C93.2834 40.706 93.2114 40.82 93.1154 40.892C93.0194 40.964 92.8874 41 92.7194 41H92.4134ZM104.764 41C104.644 41 104.548 40.964 104.476 40.892C104.404 40.82 104.368 40.724 104.368 40.604V28.796C104.368 28.676 104.404 28.58 104.476 28.508C104.548 28.436 104.644 28.4 104.764 28.4H105.106C105.226 28.4 105.322 28.436 105.394 28.508C105.466 28.58 105.502 28.676 105.502 28.796V39.92H111.712C111.844 39.92 111.946 39.956 112.018 40.028C112.09 40.1 112.126 40.202 112.126 40.334V40.604C112.126 40.724 112.09 40.82 112.018 40.892C111.946 40.964 111.844 41 111.712 41H104.764ZM117.532 42.512C117.436 42.512 117.352 42.476 117.28 42.404C117.208 42.332 117.172 42.248 117.172 42.152C117.172 42.092 117.19 42.02 117.226 41.936L123.418 27.122C123.442 27.074 123.484 27.02 123.544 26.96C123.604 26.888 123.694 26.852 123.814 26.852H124.12C124.216 26.852 124.3 26.888 124.372 26.96C124.444 27.032 124.48 27.116 124.48 27.212C124.48 27.26 124.462 27.332 124.426 27.428L118.234 42.242C118.222 42.29 118.18 42.344 118.108 42.404C118.048 42.476 117.958 42.512 117.838 42.512H117.532ZM130.92 41C130.8 41 130.704 40.964 130.632 40.892C130.56 40.82 130.524 40.724 130.524 40.604V40.334C130.524 40.214 130.554 40.1 130.614 39.992C130.686 39.872 130.806 39.734 130.974 39.578L135.636 34.916C136.092 34.496 136.44 34.13 136.68 33.818C136.92 33.506 137.082 33.2 137.166 32.9C137.262 32.588 137.31 32.246 137.31 31.874C137.31 31.07 137.076 30.44 136.608 29.984C136.152 29.528 135.498 29.3 134.646 29.3C134.106 29.3 133.638 29.408 133.242 29.624C132.846 29.84 132.534 30.146 132.306 30.542C132.078 30.926 131.928 31.376 131.856 31.892C131.844 32.036 131.79 32.144 131.694 32.216C131.598 32.276 131.514 32.306 131.442 32.306H131.082C130.962 32.306 130.866 32.276 130.794 32.216C130.734 32.144 130.704 32.06 130.704 31.964C130.716 31.556 130.8 31.136 130.956 30.704C131.112 30.26 131.346 29.852 131.658 29.48C131.982 29.108 132.39 28.808 132.882 28.58C133.374 28.34 133.962 28.22 134.646 28.22C135.558 28.22 136.29 28.394 136.842 28.742C137.406 29.09 137.814 29.54 138.066 30.092C138.318 30.644 138.444 31.238 138.444 31.874C138.444 32.366 138.372 32.822 138.228 33.242C138.084 33.65 137.868 34.052 137.58 34.448C137.292 34.832 136.926 35.228 136.482 35.636L132.27 39.92H138.3C138.432 39.92 138.534 39.956 138.606 40.028C138.678 40.1 138.714 40.202 138.714 40.334V40.604C138.714 40.724 138.678 40.82 138.606 40.892C138.534 40.964 138.432 41 138.3 41H130.92ZM145.204 41.18C144.388 41.18 143.704 41.048 143.152 40.784C142.612 40.52 142.174 40.16 141.838 39.704C141.514 39.236 141.28 38.702 141.136 38.102C140.992 37.502 140.908 36.872 140.884 36.212C140.884 35.888 140.878 35.558 140.866 35.222C140.866 34.886 140.866 34.55 140.866 34.214C140.878 33.866 140.884 33.524 140.884 33.188C140.896 32.528 140.974 31.898 141.118 31.298C141.274 30.698 141.514 30.17 141.838 29.714C142.174 29.246 142.612 28.88 143.152 28.616C143.704 28.352 144.388 28.22 145.204 28.22C146.02 28.22 146.698 28.352 147.238 28.616C147.79 28.88 148.228 29.246 148.552 29.714C148.888 30.17 149.128 30.698 149.272 31.298C149.428 31.898 149.512 32.528 149.524 33.188C149.536 33.524 149.542 33.866 149.542 34.214C149.542 34.55 149.542 34.886 149.542 35.222C149.542 35.558 149.536 35.888 149.524 36.212C149.512 36.872 149.428 37.502 149.272 38.102C149.128 38.702 148.888 39.236 148.552 39.704C148.228 40.16 147.79 40.52 147.238 40.784C146.698 41.048 146.02 41.18 145.204 41.18ZM145.204 40.1C146.272 40.1 147.064 39.746 147.58 39.038C148.096 38.33 148.366 37.358 148.39 36.122C148.402 35.774 148.408 35.45 148.408 35.15C148.408 34.838 148.408 34.532 148.408 34.232C148.408 33.92 148.402 33.602 148.39 33.278C148.366 32.066 148.096 31.1 147.58 30.38C147.064 29.66 146.272 29.3 145.204 29.3C144.148 29.3 143.356 29.66 142.828 30.38C142.312 31.1 142.042 32.066 142.018 33.278C142.018 33.602 142.012 33.92 142 34.232C142 34.532 142 34.838 142 35.15C142.012 35.45 142.018 35.774 142.018 36.122C142.042 37.358 142.312 38.33 142.828 39.038C143.356 39.746 144.148 40.1 145.204 40.1Z" fill="#4E4E4E"/>
<path d="M242.31 41C242.13 41 241.986 40.958 241.878 40.874C241.782 40.79 241.704 40.676 241.644 40.532L237.63 28.958C237.606 28.886 237.594 28.82 237.594 28.76C237.594 28.664 237.63 28.58 237.702 28.508C237.774 28.436 237.858 28.4 237.954 28.4H238.89C239.034 28.4 239.142 28.442 239.214 28.526C239.298 28.598 239.346 28.664 239.358 28.724L242.886 38.93L246.414 28.724C246.438 28.664 246.486 28.598 246.558 28.526C246.63 28.442 246.738 28.4 246.882 28.4H247.818C247.914 28.4 247.998 28.436 248.07 28.508C248.154 28.58 248.196 28.664 248.196 28.76C248.196 28.82 248.184 28.886 248.16 28.958L244.128 40.532C244.08 40.676 244.002 40.79 243.894 40.874C243.798 40.958 243.66 41 243.48 41H242.31ZM249.713 44.06C249.449 44.06 249.317 43.928 249.317 43.664V43.268C249.317 43.172 249.347 43.076 249.407 42.98C249.467 42.896 249.581 42.794 249.749 42.674C250.481 42.134 251.075 41.702 251.531 41.378C251.987 41.054 252.317 40.766 252.521 40.514C252.725 40.262 252.827 39.986 252.827 39.686C252.827 39.422 252.731 39.212 252.539 39.056C252.347 38.888 252.107 38.804 251.819 38.804C251.531 38.804 251.315 38.852 251.171 38.948C251.039 39.032 250.943 39.128 250.883 39.236C250.823 39.344 250.775 39.434 250.739 39.506C250.667 39.638 250.601 39.728 250.541 39.776C250.481 39.812 250.403 39.83 250.307 39.83H249.803C249.563 39.83 249.455 39.716 249.479 39.488C249.503 39.164 249.617 38.87 249.821 38.606C250.037 38.33 250.319 38.108 250.667 37.94C251.015 37.76 251.399 37.67 251.819 37.67C252.527 37.67 253.085 37.868 253.493 38.264C253.913 38.66 254.123 39.128 254.123 39.668C254.123 40.1 254.027 40.478 253.835 40.802C253.643 41.114 253.349 41.432 252.953 41.756C252.557 42.08 252.047 42.458 251.423 42.89H253.979C254.243 42.89 254.375 43.022 254.375 43.286V43.664C254.375 43.928 254.243 44.06 253.979 44.06H249.713ZM261.088 33.872C260.968 33.872 260.872 33.836 260.8 33.764C260.728 33.692 260.692 33.596 260.692 33.476V33.224C260.692 33.104 260.728 33.008 260.8 32.936C260.872 32.864 260.968 32.828 261.088 32.828H267.838C267.958 32.828 268.054 32.864 268.126 32.936C268.198 33.008 268.234 33.104 268.234 33.224V33.476C268.234 33.596 268.198 33.692 268.126 33.764C268.054 33.836 267.958 33.872 267.838 33.872H261.088ZM261.088 38.372C260.968 38.372 260.872 38.336 260.8 38.264C260.728 38.192 260.692 38.096 260.692 37.976V37.724C260.692 37.604 260.728 37.508 260.8 37.436C260.872 37.364 260.968 37.328 261.088 37.328H267.838C267.958 37.328 268.054 37.364 268.126 37.436C268.198 37.508 268.234 37.604 268.234 37.724V37.976C268.234 38.096 268.198 38.192 268.126 38.264C268.054 38.336 267.958 38.372 267.838 38.372H261.088ZM279.396 41.18C278.724 41.18 278.124 41.096 277.596 40.928C277.068 40.748 276.618 40.514 276.246 40.226C275.886 39.938 275.604 39.614 275.4 39.254C275.208 38.882 275.106 38.498 275.094 38.102C275.094 37.994 275.13 37.91 275.202 37.85C275.274 37.79 275.364 37.76 275.472 37.76H275.724C275.82 37.76 275.91 37.784 275.994 37.832C276.09 37.88 276.162 37.994 276.21 38.174C276.342 38.69 276.576 39.092 276.912 39.38C277.26 39.656 277.65 39.848 278.082 39.956C278.526 40.052 278.964 40.1 279.396 40.1C280.32 40.1 281.076 39.878 281.664 39.434C282.264 38.99 282.564 38.324 282.564 37.436C282.564 36.548 282.294 35.912 281.754 35.528C281.226 35.144 280.5 34.952 279.576 34.952H277.992C277.872 34.952 277.776 34.916 277.704 34.844C277.632 34.772 277.596 34.676 277.596 34.556V34.286C277.596 34.19 277.608 34.112 277.632 34.052C277.668 33.98 277.71 33.914 277.758 33.854L281.466 29.48H276.03C275.91 29.48 275.814 29.444 275.742 29.372C275.67 29.3 275.634 29.204 275.634 29.084V28.814C275.634 28.682 275.67 28.58 275.742 28.508C275.814 28.436 275.91 28.4 276.03 28.4H282.744C282.876 28.4 282.978 28.436 283.05 28.508C283.122 28.58 283.158 28.682 283.158 28.814V29.084C283.158 29.156 283.14 29.222 283.104 29.282C283.08 29.33 283.05 29.378 283.014 29.426L279.216 33.872H279.576C280.404 33.872 281.124 34.004 281.736 34.268C282.36 34.52 282.84 34.91 283.176 35.438C283.524 35.966 283.698 36.632 283.698 37.436C283.698 38.228 283.512 38.906 283.14 39.47C282.768 40.022 282.258 40.448 281.61 40.748C280.962 41.036 280.224 41.18 279.396 41.18ZM288.507 41C288.351 41 288.231 40.964 288.147 40.892C288.063 40.82 287.991 40.706 287.931 40.55L285.393 32.198C285.369 32.126 285.357 32.06 285.357 32C285.357 31.904 285.393 31.82 285.465 31.748C285.537 31.676 285.621 31.64 285.717 31.64H286.059C286.179 31.64 286.269 31.676 286.329 31.748C286.401 31.808 286.443 31.862 286.455 31.91L288.669 39.398L291.027 32C291.051 31.928 291.099 31.85 291.171 31.766C291.243 31.682 291.357 31.64 291.513 31.64H291.873C292.029 31.64 292.143 31.682 292.215 31.766C292.299 31.85 292.347 31.928 292.359 32L294.717 39.398L296.931 31.91C296.943 31.862 296.979 31.808 297.039 31.748C297.111 31.676 297.207 31.64 297.327 31.64H297.669C297.765 31.64 297.849 31.676 297.921 31.748C297.993 31.82 298.029 31.904 298.029 32C298.029 32.06 298.017 32.126 297.993 32.198L295.455 40.55C295.407 40.706 295.341 40.82 295.257 40.892C295.173 40.964 295.047 41 294.879 41H294.573C294.417 41 294.285 40.964 294.177 40.892C294.081 40.82 294.009 40.706 293.961 40.55L291.693 33.458L289.425 40.55C289.377 40.706 289.305 40.82 289.209 40.892C289.113 40.964 288.981 41 288.813 41H288.507ZM300.858 41C300.738 41 300.642 40.964 300.57 40.892C300.498 40.82 300.462 40.724 300.462 40.604V28.796C300.462 28.676 300.498 28.58 300.57 28.508C300.642 28.436 300.738 28.4 300.858 28.4H301.2C301.32 28.4 301.416 28.436 301.488 28.508C301.56 28.58 301.596 28.676 301.596 28.796V39.92H307.806C307.938 39.92 308.04 39.956 308.112 40.028C308.184 40.1 308.22 40.202 308.22 40.334V40.604C308.22 40.724 308.184 40.82 308.112 40.892C308.04 40.964 307.938 41 307.806 41H300.858ZM313.625 42.512C313.529 42.512 313.445 42.476 313.373 42.404C313.301 42.332 313.265 42.248 313.265 42.152C313.265 42.092 313.283 42.02 313.319 41.936L319.511 27.122C319.535 27.074 319.577 27.02 319.637 26.96C319.697 26.888 319.787 26.852 319.907 26.852H320.213C320.309 26.852 320.393 26.888 320.465 26.96C320.537 27.032 320.573 27.116 320.573 27.212C320.573 27.26 320.555 27.332 320.519 27.428L314.327 42.242C314.315 42.29 314.273 42.344 314.201 42.404C314.141 42.476 314.051 42.512 313.931 42.512H313.625ZM327.014 41C326.894 41 326.798 40.964 326.726 40.892C326.654 40.82 326.618 40.724 326.618 40.604V40.334C326.618 40.214 326.648 40.1 326.708 39.992C326.78 39.872 326.9 39.734 327.068 39.578L331.73 34.916C332.186 34.496 332.534 34.13 332.774 33.818C333.014 33.506 333.176 33.2 333.26 32.9C333.356 32.588 333.404 32.246 333.404 31.874C333.404 31.07 333.17 30.44 332.702 29.984C332.246 29.528 331.592 29.3 330.74 29.3C330.2 29.3 329.732 29.408 329.336 29.624C328.94 29.84 328.628 30.146 328.4 30.542C328.172 30.926 328.022 31.376 327.95 31.892C327.938 32.036 327.884 32.144 327.788 32.216C327.692 32.276 327.608 32.306 327.536 32.306H327.176C327.056 32.306 326.96 32.276 326.888 32.216C326.828 32.144 326.798 32.06 326.798 31.964C326.81 31.556 326.894 31.136 327.05 30.704C327.206 30.26 327.44 29.852 327.752 29.48C328.076 29.108 328.484 28.808 328.976 28.58C329.468 28.34 330.056 28.22 330.74 28.22C331.652 28.22 332.384 28.394 332.936 28.742C333.5 29.09 333.908 29.54 334.16 30.092C334.412 30.644 334.538 31.238 334.538 31.874C334.538 32.366 334.466 32.822 334.322 33.242C334.178 33.65 333.962 34.052 333.674 34.448C333.386 34.832 333.02 35.228 332.576 35.636L328.364 39.92H334.394C334.526 39.92 334.628 39.956 334.7 40.028C334.772 40.1 334.808 40.202 334.808 40.334V40.604C334.808 40.724 334.772 40.82 334.7 40.892C334.628 40.964 334.526 41 334.394 41H327.014ZM341.298 41.18C340.482 41.18 339.798 41.048 339.246 40.784C338.706 40.52 338.268 40.16 337.932 39.704C337.608 39.236 337.374 38.702 337.23 38.102C337.086 37.502 337.002 36.872 336.978 36.212C336.978 35.888 336.972 35.558 336.96 35.222C336.96 34.886 336.96 34.55 336.96 34.214C336.972 33.866 336.978 33.524 336.978 33.188C336.99 32.528 337.068 31.898 337.212 31.298C337.368 30.698 337.608 30.17 337.932 29.714C338.268 29.246 338.706 28.88 339.246 28.616C339.798 28.352 340.482 28.22 341.298 28.22C342.114 28.22 342.792 28.352 343.332 28.616C343.884 28.88 344.322 29.246 344.646 29.714C344.982 30.17 345.222 30.698 345.366 31.298C345.522 31.898 345.606 32.528 345.618 33.188C345.63 33.524 345.636 33.866 345.636 34.214C345.636 34.55 345.636 34.886 345.636 35.222C345.636 35.558 345.63 35.888 345.618 36.212C345.606 36.872 345.522 37.502 345.366 38.102C345.222 38.702 344.982 39.236 344.646 39.704C344.322 40.16 343.884 40.52 343.332 40.784C342.792 41.048 342.114 41.18 341.298 41.18ZM341.298 40.1C342.366 40.1 343.158 39.746 343.674 39.038C344.19 38.33 344.46 37.358 344.484 36.122C344.496 35.774 344.502 35.45 344.502 35.15C344.502 34.838 344.502 34.532 344.502 34.232C344.502 33.92 344.496 33.602 344.484 33.278C344.46 32.066 344.19 31.1 343.674 30.38C343.158 29.66 342.366 29.3 341.298 29.3C340.242 29.3 339.45 29.66 338.922 30.38C338.406 31.1 338.136 32.066 338.112 33.278C338.112 33.602 338.106 33.92 338.094 34.232C338.094 34.532 338.094 34.838 338.094 35.15C338.106 35.45 338.112 35.774 338.112 36.122C338.136 37.358 338.406 38.33 338.922 39.038C339.45 39.746 340.242 40.1 341.298 40.1Z" fill="#4E4E4E"/>
</g>
<defs>
<filter id="filter0_d_444_39" x="0" y="0" width="394" height="129" filterUnits="userSpaceOnUse" color-interpolation-filters="sRGB">
<feFlood flood-opacity="0" result="BackgroundImageFix"/>
<feColorMatrix in="SourceAlpha" type="matrix" values="0 0 0 0 0 0 0 0 0 0 0 0 0 0 0 0 0 0 127 0" result="hardAlpha"/>
<feOffset dy="4"/>
<feGaussianBlur stdDeviation="2"/>
<feComposite in2="hardAlpha" operator="out"/>
<feColorMatrix type="matrix" values="0 0 0 0 0 0 0 0 0 0 0 0 0 0 0 0 0 0 0.25 0"/>
<feBlend mode="normal" in2="BackgroundImageFix" result="effect1_dropShadow_444_39"/>
<feBlend mode="normal" in="SourceGraphic" in2="effect1_dropShadow_444_39" result="shape"/>
</filter>
</defs>
</svg>
