<svg width="394" height="129" viewBox="0 0 394 129" fill="none" xmlns="http://www.w3.org/2000/svg">
<g filter="url(#filter0_d_444_86)">
<rect x="4" width="386" height="121" rx="5" fill="white"/>
<path d="M45.98 89C45.86 89 45.758 88.964 45.674 88.892C45.602 88.808 45.566 88.706 45.566 88.586V76.832C45.566 76.7 45.602 76.598 45.674 76.526C45.758 76.442 45.86 76.4 45.98 76.4H46.88C47.024 76.4 47.132 76.436 47.204 76.508C47.276 76.58 47.318 76.64 47.33 76.688L51.146 83.96L54.98 76.688C55.004 76.64 55.046 76.58 55.106 76.508C55.178 76.436 55.286 76.4 55.43 76.4H56.312C56.444 76.4 56.546 76.442 56.618 76.526C56.702 76.598 56.744 76.7 56.744 76.832V88.586C56.744 88.706 56.702 88.808 56.618 88.892C56.546 88.964 56.444 89 56.312 89H55.43C55.31 89 55.208 88.964 55.124 88.892C55.052 88.808 55.016 88.706 55.016 88.586V79.73L52.01 85.598C51.962 85.718 51.89 85.814 51.794 85.886C51.698 85.946 51.578 85.976 51.434 85.976H50.876C50.72 85.976 50.594 85.946 50.498 85.886C50.414 85.814 50.342 85.718 50.282 85.598L47.276 79.73V88.586C47.276 88.706 47.234 88.808 47.15 88.892C47.078 88.964 46.982 89 46.862 89H45.98ZM60.919 92.06C60.655 92.06 60.523 91.928 60.523 91.664V87.38L59.461 88.172C59.377 88.232 59.281 88.256 59.173 88.244C59.065 88.232 58.975 88.178 58.903 88.082L58.669 87.776C58.597 87.68 58.567 87.584 58.579 87.488C58.603 87.38 58.657 87.29 58.741 87.218L60.523 85.886C60.643 85.802 60.781 85.76 60.937 85.76H61.441C61.705 85.76 61.837 85.892 61.837 86.156V91.664C61.837 91.928 61.705 92.06 61.441 92.06H60.919ZM69.3363 81.872C69.2163 81.872 69.1203 81.836 69.0483 81.764C68.9763 81.692 68.9403 81.596 68.9403 81.476V81.224C68.9403 81.104 68.9763 81.008 69.0483 80.936C69.1203 80.864 69.2163 80.828 69.3363 80.828H76.0863C76.2063 80.828 76.3023 80.864 76.3743 80.936C76.4463 81.008 76.4823 81.104 76.4823 81.224V81.476C76.4823 81.596 76.4463 81.692 76.3743 81.764C76.3023 81.836 76.2063 81.872 76.0863 81.872H69.3363ZM69.3363 86.372C69.2163 86.372 69.1203 86.336 69.0483 86.264C68.9763 86.192 68.9403 86.096 68.9403 85.976V85.724C68.9403 85.604 68.9763 85.508 69.0483 85.436C69.1203 85.364 69.2163 85.328 69.3363 85.328H76.0863C76.2063 85.328 76.3023 85.364 76.3743 85.436C76.4463 85.508 76.4823 85.604 76.4823 85.724V85.976C76.4823 86.096 76.4463 86.192 76.3743 86.264C76.3023 86.336 76.2063 86.372 76.0863 86.372H69.3363ZM84.2241 84.122C84.1041 84.122 84.0081 84.086 83.9361 84.014C83.8641 83.942 83.8281 83.846 83.8281 83.726V83.474C83.8281 83.354 83.8641 83.258 83.9361 83.186C84.0081 83.114 84.1041 83.078 84.2241 83.078H89.5341C89.6541 83.078 89.7501 83.114 89.8221 83.186C89.8941 83.258 89.9301 83.354 89.9301 83.474V83.726C89.9301 83.846 89.8941 83.942 89.8221 84.014C89.7501 84.086 89.6541 84.122 89.5341 84.122H84.2241ZM94.8743 89C94.7183 89 94.5983 88.964 94.5143 88.892C94.4303 88.82 94.3583 88.706 94.2983 88.55L91.7603 80.198C91.7363 80.126 91.7243 80.06 91.7243 80C91.7243 79.904 91.7603 79.82 91.8323 79.748C91.9043 79.676 91.9883 79.64 92.0843 79.64H92.4263C92.5463 79.64 92.6363 79.676 92.6963 79.748C92.7683 79.808 92.8103 79.862 92.8223 79.91L95.0363 87.398L97.3943 80C97.4183 79.928 97.4663 79.85 97.5383 79.766C97.6103 79.682 97.7243 79.64 97.8803 79.64H98.2403C98.3963 79.64 98.5103 79.682 98.5823 79.766C98.6663 79.85 98.7143 79.928 98.7263 80L101.084 87.398L103.298 79.91C103.31 79.862 103.346 79.808 103.406 79.748C103.478 79.676 103.574 79.64 103.694 79.64H104.036C104.132 79.64 104.216 79.676 104.288 79.748C104.36 79.82 104.396 79.904 104.396 80C104.396 80.06 104.384 80.126 104.36 80.198L101.822 88.55C101.774 88.706 101.708 88.82 101.624 88.892C101.54 88.964 101.414 89 101.246 89H100.94C100.784 89 100.652 88.964 100.544 88.892C100.448 88.82 100.376 88.706 100.328 88.55L98.0603 81.458L95.7923 88.55C95.7443 88.706 95.6723 88.82 95.5763 88.892C95.4803 88.964 95.3483 89 95.1803 89H94.8743ZM107.225 89C107.105 89 107.009 88.964 106.937 88.892C106.865 88.82 106.829 88.724 106.829 88.604V76.796C106.829 76.676 106.865 76.58 106.937 76.508C107.009 76.436 107.105 76.4 107.225 76.4H107.567C107.687 76.4 107.783 76.436 107.855 76.508C107.927 76.58 107.963 76.676 107.963 76.796V87.92H114.173C114.305 87.92 114.407 87.956 114.479 88.028C114.551 88.1 114.587 88.202 114.587 88.334V88.604C114.587 88.724 114.551 88.82 114.479 88.892C114.407 88.964 114.305 89 114.173 89H107.225ZM115.952 82.7C115.688 82.7 115.556 82.568 115.556 82.304V81.998C115.556 81.902 115.586 81.812 115.646 81.728C115.706 81.632 115.82 81.524 115.988 81.404C116.756 80.852 117.368 80.414 117.824 80.09C118.292 79.754 118.628 79.454 118.832 79.19C119.048 78.926 119.156 78.632 119.156 78.308C119.156 77.996 119.036 77.75 118.796 77.57C118.568 77.39 118.298 77.3 117.986 77.3C117.662 77.3 117.416 77.354 117.248 77.462C117.092 77.558 116.978 77.666 116.906 77.786C116.846 77.906 116.798 78.002 116.762 78.074C116.69 78.206 116.624 78.296 116.564 78.344C116.504 78.38 116.426 78.398 116.33 78.398H116.06C115.82 78.398 115.712 78.284 115.736 78.056C115.76 77.768 115.874 77.492 116.078 77.228C116.282 76.964 116.552 76.748 116.888 76.58C117.224 76.4 117.59 76.31 117.986 76.31C118.67 76.31 119.21 76.514 119.606 76.922C120.002 77.318 120.2 77.78 120.2 78.308C120.2 78.752 120.104 79.142 119.912 79.478C119.72 79.802 119.414 80.138 118.994 80.486C118.574 80.822 118.022 81.224 117.338 81.692H120.074C120.338 81.692 120.47 81.824 120.47 82.088V82.304C120.47 82.568 120.338 82.7 120.074 82.7H115.952ZM126.514 90.512C126.418 90.512 126.334 90.476 126.262 90.404C126.19 90.332 126.154 90.248 126.154 90.152C126.154 90.092 126.172 90.02 126.208 89.936L132.4 75.122C132.424 75.074 132.466 75.02 132.526 74.96C132.586 74.888 132.676 74.852 132.796 74.852H133.102C133.198 74.852 133.282 74.888 133.354 74.96C133.426 75.032 133.462 75.116 133.462 75.212C133.462 75.26 133.444 75.332 133.408 75.428L127.216 90.242C127.204 90.29 127.162 90.344 127.09 90.404C127.03 90.476 126.94 90.512 126.82 90.512H126.514ZM143.718 89.18C143.046 89.18 142.446 89.096 141.918 88.928C141.39 88.748 140.94 88.514 140.568 88.226C140.208 87.938 139.926 87.614 139.722 87.254C139.53 86.882 139.428 86.498 139.416 86.102C139.416 85.994 139.452 85.91 139.524 85.85C139.596 85.79 139.686 85.76 139.794 85.76H140.046C140.142 85.76 140.232 85.784 140.316 85.832C140.412 85.88 140.484 85.994 140.532 86.174C140.664 86.69 140.898 87.092 141.234 87.38C141.582 87.656 141.972 87.848 142.404 87.956C142.848 88.052 143.286 88.1 143.718 88.1C144.642 88.1 145.398 87.878 145.986 87.434C146.586 86.99 146.886 86.324 146.886 85.436C146.886 84.548 146.616 83.912 146.076 83.528C145.548 83.144 144.822 82.952 143.898 82.952H142.314C142.194 82.952 142.098 82.916 142.026 82.844C141.954 82.772 141.918 82.676 141.918 82.556V82.286C141.918 82.19 141.93 82.112 141.954 82.052C141.99 81.98 142.032 81.914 142.08 81.854L145.788 77.48H140.352C140.232 77.48 140.136 77.444 140.064 77.372C139.992 77.3 139.956 77.204 139.956 77.084V76.814C139.956 76.682 139.992 76.58 140.064 76.508C140.136 76.436 140.232 76.4 140.352 76.4H147.066C147.198 76.4 147.3 76.436 147.372 76.508C147.444 76.58 147.48 76.682 147.48 76.814V77.084C147.48 77.156 147.462 77.222 147.426 77.282C147.402 77.33 147.372 77.378 147.336 77.426L143.538 81.872H143.898C144.726 81.872 145.446 82.004 146.058 82.268C146.682 82.52 147.162 82.91 147.498 83.438C147.846 83.966 148.02 84.632 148.02 85.436C148.02 86.228 147.834 86.906 147.462 87.47C147.09 88.022 146.58 88.448 145.932 88.748C145.284 89.036 144.546 89.18 143.718 89.18ZM154.485 89.18C153.669 89.18 152.985 89.048 152.433 88.784C151.893 88.52 151.455 88.16 151.119 87.704C150.795 87.236 150.561 86.702 150.417 86.102C150.273 85.502 150.189 84.872 150.165 84.212C150.165 83.888 150.159 83.558 150.147 83.222C150.147 82.886 150.147 82.55 150.147 82.214C150.159 81.866 150.165 81.524 150.165 81.188C150.177 80.528 150.255 79.898 150.399 79.298C150.555 78.698 150.795 78.17 151.119 77.714C151.455 77.246 151.893 76.88 152.433 76.616C152.985 76.352 153.669 76.22 154.485 76.22C155.301 76.22 155.979 76.352 156.519 76.616C157.071 76.88 157.509 77.246 157.833 77.714C158.169 78.17 158.409 78.698 158.553 79.298C158.709 79.898 158.793 80.528 158.805 81.188C158.817 81.524 158.823 81.866 158.823 82.214C158.823 82.55 158.823 82.886 158.823 83.222C158.823 83.558 158.817 83.888 158.805 84.212C158.793 84.872 158.709 85.502 158.553 86.102C158.409 86.702 158.169 87.236 157.833 87.704C157.509 88.16 157.071 88.52 156.519 88.784C155.979 89.048 155.301 89.18 154.485 89.18ZM154.485 88.1C155.553 88.1 156.345 87.746 156.861 87.038C157.377 86.33 157.647 85.358 157.671 84.122C157.683 83.774 157.689 83.45 157.689 83.15C157.689 82.838 157.689 82.532 157.689 82.232C157.689 81.92 157.683 81.602 157.671 81.278C157.647 80.066 157.377 79.1 156.861 78.38C156.345 77.66 155.553 77.3 154.485 77.3C153.429 77.3 152.637 77.66 152.109 78.38C151.593 79.1 151.323 80.066 151.299 81.278C151.299 81.602 151.293 81.92 151.281 82.232C151.281 82.532 151.281 82.838 151.281 83.15C151.293 83.45 151.299 83.774 151.299 84.122C151.323 85.358 151.593 86.33 152.109 87.038C152.637 87.746 153.429 88.1 154.485 88.1Z" fill="#4E4E4E"/>
<path d="M238.98 89C238.86 89 238.758 88.964 238.674 88.892C238.602 88.808 238.566 88.706 238.566 88.586V76.832C238.566 76.7 238.602 76.598 238.674 76.526C238.758 76.442 238.86 76.4 238.98 76.4H239.88C240.024 76.4 240.132 76.436 240.204 76.508C240.276 76.58 240.318 76.64 240.33 76.688L244.146 83.96L247.98 76.688C248.004 76.64 248.046 76.58 248.106 76.508C248.178 76.436 248.286 76.4 248.43 76.4H249.312C249.444 76.4 249.546 76.442 249.618 76.526C249.702 76.598 249.744 76.7 249.744 76.832V88.586C249.744 88.706 249.702 88.808 249.618 88.892C249.546 88.964 249.444 89 249.312 89H248.43C248.31 89 248.208 88.964 248.124 88.892C248.052 88.808 248.016 88.706 248.016 88.586V79.73L245.01 85.598C244.962 85.718 244.89 85.814 244.794 85.886C244.698 85.946 244.578 85.976 244.434 85.976H243.876C243.72 85.976 243.594 85.946 243.498 85.886C243.414 85.814 243.342 85.718 243.282 85.598L240.276 79.73V88.586C240.276 88.706 240.234 88.808 240.15 88.892C240.078 88.964 239.982 89 239.862 89H238.98ZM252.227 92.06C251.963 92.06 251.831 91.928 251.831 91.664V91.268C251.831 91.172 251.861 91.076 251.921 90.98C251.981 90.896 252.095 90.794 252.263 90.674C252.995 90.134 253.589 89.702 254.045 89.378C254.501 89.054 254.831 88.766 255.035 88.514C255.239 88.262 255.341 87.986 255.341 87.686C255.341 87.422 255.245 87.212 255.053 87.056C254.861 86.888 254.621 86.804 254.333 86.804C254.045 86.804 253.829 86.852 253.685 86.948C253.553 87.032 253.457 87.128 253.397 87.236C253.337 87.344 253.289 87.434 253.253 87.506C253.181 87.638 253.115 87.728 253.055 87.776C252.995 87.812 252.917 87.83 252.821 87.83H252.317C252.077 87.83 251.969 87.716 251.993 87.488C252.017 87.164 252.131 86.87 252.335 86.606C252.551 86.33 252.833 86.108 253.181 85.94C253.529 85.76 253.913 85.67 254.333 85.67C255.041 85.67 255.599 85.868 256.007 86.264C256.427 86.66 256.637 87.128 256.637 87.668C256.637 88.1 256.541 88.478 256.349 88.802C256.157 89.114 255.863 89.432 255.467 89.756C255.071 90.08 254.561 90.458 253.937 90.89H256.493C256.757 90.89 256.889 91.022 256.889 91.286V91.664C256.889 91.928 256.757 92.06 256.493 92.06H252.227ZM263.602 81.872C263.482 81.872 263.386 81.836 263.314 81.764C263.242 81.692 263.206 81.596 263.206 81.476V81.224C263.206 81.104 263.242 81.008 263.314 80.936C263.386 80.864 263.482 80.828 263.602 80.828H270.352C270.472 80.828 270.568 80.864 270.64 80.936C270.712 81.008 270.748 81.104 270.748 81.224V81.476C270.748 81.596 270.712 81.692 270.64 81.764C270.568 81.836 270.472 81.872 270.352 81.872H263.602ZM263.602 86.372C263.482 86.372 263.386 86.336 263.314 86.264C263.242 86.192 263.206 86.096 263.206 85.976V85.724C263.206 85.604 263.242 85.508 263.314 85.436C263.386 85.364 263.482 85.328 263.602 85.328H270.352C270.472 85.328 270.568 85.364 270.64 85.436C270.712 85.508 270.748 85.604 270.748 85.724V85.976C270.748 86.096 270.712 86.192 270.64 86.264C270.568 86.336 270.472 86.372 270.352 86.372H263.602ZM280.228 89C280.072 89 279.952 88.964 279.868 88.892C279.784 88.82 279.712 88.706 279.652 88.55L277.114 80.198C277.09 80.126 277.078 80.06 277.078 80C277.078 79.904 277.114 79.82 277.186 79.748C277.258 79.676 277.342 79.64 277.438 79.64H277.78C277.9 79.64 277.99 79.676 278.05 79.748C278.122 79.808 278.164 79.862 278.176 79.91L280.39 87.398L282.748 80C282.772 79.928 282.82 79.85 282.892 79.766C282.964 79.682 283.078 79.64 283.234 79.64H283.594C283.75 79.64 283.864 79.682 283.936 79.766C284.02 79.85 284.068 79.928 284.08 80L286.438 87.398L288.652 79.91C288.664 79.862 288.7 79.808 288.76 79.748C288.832 79.676 288.928 79.64 289.048 79.64H289.39C289.486 79.64 289.57 79.676 289.642 79.748C289.714 79.82 289.75 79.904 289.75 80C289.75 80.06 289.738 80.126 289.714 80.198L287.176 88.55C287.128 88.706 287.062 88.82 286.978 88.892C286.894 88.964 286.768 89 286.6 89H286.294C286.138 89 286.006 88.964 285.898 88.892C285.802 88.82 285.73 88.706 285.682 88.55L283.414 81.458L281.146 88.55C281.098 88.706 281.026 88.82 280.93 88.892C280.834 88.964 280.702 89 280.534 89H280.228ZM292.578 89C292.458 89 292.362 88.964 292.29 88.892C292.218 88.82 292.182 88.724 292.182 88.604V76.796C292.182 76.676 292.218 76.58 292.29 76.508C292.362 76.436 292.458 76.4 292.578 76.4H292.92C293.04 76.4 293.136 76.436 293.208 76.508C293.28 76.58 293.316 76.676 293.316 76.796V87.92H299.526C299.658 87.92 299.76 87.956 299.832 88.028C299.904 88.1 299.94 88.202 299.94 88.334V88.604C299.94 88.724 299.904 88.82 299.832 88.892C299.76 88.964 299.658 89 299.526 89H292.578ZM301.306 82.7C301.042 82.7 300.91 82.568 300.91 82.304V81.998C300.91 81.902 300.94 81.812 301 81.728C301.06 81.632 301.174 81.524 301.342 81.404C302.11 80.852 302.722 80.414 303.178 80.09C303.646 79.754 303.982 79.454 304.186 79.19C304.402 78.926 304.51 78.632 304.51 78.308C304.51 77.996 304.39 77.75 304.15 77.57C303.922 77.39 303.652 77.3 303.34 77.3C303.016 77.3 302.77 77.354 302.602 77.462C302.446 77.558 302.332 77.666 302.26 77.786C302.2 77.906 302.152 78.002 302.116 78.074C302.044 78.206 301.978 78.296 301.918 78.344C301.858 78.38 301.78 78.398 301.684 78.398H301.414C301.174 78.398 301.066 78.284 301.09 78.056C301.114 77.768 301.228 77.492 301.432 77.228C301.636 76.964 301.906 76.748 302.242 76.58C302.578 76.4 302.944 76.31 303.34 76.31C304.024 76.31 304.564 76.514 304.96 76.922C305.356 77.318 305.554 77.78 305.554 78.308C305.554 78.752 305.458 79.142 305.266 79.478C305.074 79.802 304.768 80.138 304.348 80.486C303.928 80.822 303.376 81.224 302.692 81.692H305.428C305.692 81.692 305.824 81.824 305.824 82.088V82.304C305.824 82.568 305.692 82.7 305.428 82.7H301.306ZM311.867 90.512C311.771 90.512 311.687 90.476 311.615 90.404C311.543 90.332 311.507 90.248 311.507 90.152C311.507 90.092 311.525 90.02 311.561 89.936L317.753 75.122C317.777 75.074 317.819 75.02 317.879 74.96C317.939 74.888 318.029 74.852 318.149 74.852H318.455C318.551 74.852 318.635 74.888 318.707 74.96C318.779 75.032 318.815 75.116 318.815 75.212C318.815 75.26 318.797 75.332 318.761 75.428L312.569 90.242C312.557 90.29 312.515 90.344 312.443 90.404C312.383 90.476 312.293 90.512 312.173 90.512H311.867ZM325.256 89C325.136 89 325.04 88.964 324.968 88.892C324.896 88.82 324.86 88.724 324.86 88.604V88.334C324.86 88.214 324.89 88.1 324.95 87.992C325.022 87.872 325.142 87.734 325.31 87.578L329.972 82.916C330.428 82.496 330.776 82.13 331.016 81.818C331.256 81.506 331.418 81.2 331.502 80.9C331.598 80.588 331.646 80.246 331.646 79.874C331.646 79.07 331.412 78.44 330.944 77.984C330.488 77.528 329.834 77.3 328.982 77.3C328.442 77.3 327.974 77.408 327.578 77.624C327.182 77.84 326.87 78.146 326.642 78.542C326.414 78.926 326.264 79.376 326.192 79.892C326.18 80.036 326.126 80.144 326.03 80.216C325.934 80.276 325.85 80.306 325.778 80.306H325.418C325.298 80.306 325.202 80.276 325.13 80.216C325.07 80.144 325.04 80.06 325.04 79.964C325.052 79.556 325.136 79.136 325.292 78.704C325.448 78.26 325.682 77.852 325.994 77.48C326.318 77.108 326.726 76.808 327.218 76.58C327.71 76.34 328.298 76.22 328.982 76.22C329.894 76.22 330.626 76.394 331.178 76.742C331.742 77.09 332.15 77.54 332.402 78.092C332.654 78.644 332.78 79.238 332.78 79.874C332.78 80.366 332.708 80.822 332.564 81.242C332.42 81.65 332.204 82.052 331.916 82.448C331.628 82.832 331.262 83.228 330.818 83.636L326.606 87.92H332.636C332.768 87.92 332.87 87.956 332.942 88.028C333.014 88.1 333.05 88.202 333.05 88.334V88.604C333.05 88.724 333.014 88.82 332.942 88.892C332.87 88.964 332.768 89 332.636 89H325.256ZM339.54 89.18C338.724 89.18 338.04 89.048 337.488 88.784C336.948 88.52 336.51 88.16 336.174 87.704C335.85 87.236 335.616 86.702 335.472 86.102C335.328 85.502 335.244 84.872 335.22 84.212C335.22 83.888 335.214 83.558 335.202 83.222C335.202 82.886 335.202 82.55 335.202 82.214C335.214 81.866 335.22 81.524 335.22 81.188C335.232 80.528 335.31 79.898 335.454 79.298C335.61 78.698 335.85 78.17 336.174 77.714C336.51 77.246 336.948 76.88 337.488 76.616C338.04 76.352 338.724 76.22 339.54 76.22C340.356 76.22 341.034 76.352 341.574 76.616C342.126 76.88 342.564 77.246 342.888 77.714C343.224 78.17 343.464 78.698 343.608 79.298C343.764 79.898 343.848 80.528 343.86 81.188C343.872 81.524 343.878 81.866 343.878 82.214C343.878 82.55 343.878 82.886 343.878 83.222C343.878 83.558 343.872 83.888 343.86 84.212C343.848 84.872 343.764 85.502 343.608 86.102C343.464 86.702 343.224 87.236 342.888 87.704C342.564 88.16 342.126 88.52 341.574 88.784C341.034 89.048 340.356 89.18 339.54 89.18ZM339.54 88.1C340.608 88.1 341.4 87.746 341.916 87.038C342.432 86.33 342.702 85.358 342.726 84.122C342.738 83.774 342.744 83.45 342.744 83.15C342.744 82.838 342.744 82.532 342.744 82.232C342.744 81.92 342.738 81.602 342.726 81.278C342.702 80.066 342.432 79.1 341.916 78.38C341.4 77.66 340.608 77.3 339.54 77.3C338.484 77.3 337.692 77.66 337.164 78.38C336.648 79.1 336.378 80.066 336.354 81.278C336.354 81.602 336.348 81.92 336.336 82.232C336.336 82.532 336.336 82.838 336.336 83.15C336.348 83.45 336.354 83.774 336.354 84.122C336.378 85.358 336.648 86.33 337.164 87.038C337.692 87.746 338.484 88.1 339.54 88.1Z" fill="#4E4E4E"/>
<path d="M49.31 41C49.13 41 48.986 40.958 48.878 40.874C48.782 40.79 48.704 40.676 48.644 40.532L44.63 28.958C44.606 28.886 44.594 28.82 44.594 28.76C44.594 28.664 44.63 28.58 44.702 28.508C44.774 28.436 44.858 28.4 44.954 28.4H45.89C46.034 28.4 46.142 28.442 46.214 28.526C46.298 28.598 46.346 28.664 46.358 28.724L49.886 38.93L53.414 28.724C53.438 28.664 53.486 28.598 53.558 28.526C53.63 28.442 53.738 28.4 53.882 28.4H54.818C54.914 28.4 54.998 28.436 55.07 28.508C55.154 28.58 55.196 28.664 55.196 28.76C55.196 28.82 55.184 28.886 55.16 28.958L51.128 40.532C51.08 40.676 51.002 40.79 50.894 40.874C50.798 40.958 50.66 41 50.48 41H49.31ZM58.4053 44.06C58.1413 44.06 58.0093 43.928 58.0093 43.664V39.38L56.9473 40.172C56.8633 40.232 56.7673 40.256 56.6593 40.244C56.5513 40.232 56.4613 40.178 56.3893 40.082L56.1553 39.776C56.0833 39.68 56.0533 39.584 56.0653 39.488C56.0893 39.38 56.1433 39.29 56.2273 39.218L58.0093 37.886C58.1293 37.802 58.2673 37.76 58.4233 37.76H58.9273C59.1913 37.76 59.3233 37.892 59.3233 38.156V43.664C59.3233 43.928 59.1913 44.06 58.9273 44.06H58.4053ZM66.5941 33.872C66.4741 33.872 66.3781 33.836 66.3061 33.764C66.2341 33.692 66.1981 33.596 66.1981 33.476V33.224C66.1981 33.104 66.2341 33.008 66.3061 32.936C66.3781 32.864 66.4741 32.828 66.5941 32.828H73.3441C73.4641 32.828 73.5601 32.864 73.6321 32.936C73.7041 33.008 73.7401 33.104 73.7401 33.224V33.476C73.7401 33.596 73.7041 33.692 73.6321 33.764C73.5601 33.836 73.4641 33.872 73.3441 33.872H66.5941ZM66.5941 38.372C66.4741 38.372 66.3781 38.336 66.3061 38.264C66.2341 38.192 66.1981 38.096 66.1981 37.976V37.724C66.1981 37.604 66.2341 37.508 66.3061 37.436C66.3781 37.364 66.4741 37.328 66.5941 37.328H73.3441C73.4641 37.328 73.5601 37.364 73.6321 37.436C73.7041 37.508 73.7401 37.604 73.7401 37.724V37.976C73.7401 38.096 73.7041 38.192 73.6321 38.264C73.5601 38.336 73.4641 38.372 73.3441 38.372H66.5941ZM84.9019 41.18C84.2299 41.18 83.6299 41.096 83.1019 40.928C82.5739 40.748 82.1239 40.514 81.7519 40.226C81.3919 39.938 81.1099 39.614 80.9059 39.254C80.7139 38.882 80.6119 38.498 80.5999 38.102C80.5999 37.994 80.6359 37.91 80.7079 37.85C80.7799 37.79 80.8699 37.76 80.9779 37.76H81.2299C81.3259 37.76 81.4159 37.784 81.4999 37.832C81.5959 37.88 81.6679 37.994 81.7159 38.174C81.8479 38.69 82.0819 39.092 82.4179 39.38C82.7659 39.656 83.1559 39.848 83.5879 39.956C84.0319 40.052 84.4699 40.1 84.9019 40.1C85.8259 40.1 86.5819 39.878 87.1699 39.434C87.7699 38.99 88.0699 38.324 88.0699 37.436C88.0699 36.548 87.7999 35.912 87.2599 35.528C86.7319 35.144 86.0059 34.952 85.0819 34.952H83.4979C83.3779 34.952 83.2819 34.916 83.2099 34.844C83.1379 34.772 83.1019 34.676 83.1019 34.556V34.286C83.1019 34.19 83.1139 34.112 83.1379 34.052C83.1739 33.98 83.2159 33.914 83.2639 33.854L86.9719 29.48H81.5359C81.4159 29.48 81.3199 29.444 81.2479 29.372C81.1759 29.3 81.1399 29.204 81.1399 29.084V28.814C81.1399 28.682 81.1759 28.58 81.2479 28.508C81.3199 28.436 81.4159 28.4 81.5359 28.4H88.2499C88.3819 28.4 88.4839 28.436 88.5559 28.508C88.6279 28.58 88.6639 28.682 88.6639 28.814V29.084C88.6639 29.156 88.6459 29.222 88.6099 29.282C88.5859 29.33 88.5559 29.378 88.5199 29.426L84.7219 33.872H85.0819C85.9099 33.872 86.6299 34.004 87.2419 34.268C87.8659 34.52 88.3459 34.91 88.6819 35.438C89.0299 35.966 89.2039 36.632 89.2039 37.436C89.2039 38.228 89.0179 38.906 88.6459 39.47C88.2739 40.022 87.7639 40.448 87.1159 40.748C86.4679 41.036 85.7299 41.18 84.9019 41.18ZM94.013 41C93.857 41 93.737 40.964 93.653 40.892C93.569 40.82 93.497 40.706 93.437 40.55L90.899 32.198C90.875 32.126 90.863 32.06 90.863 32C90.863 31.904 90.899 31.82 90.971 31.748C91.043 31.676 91.127 31.64 91.223 31.64H91.565C91.685 31.64 91.775 31.676 91.835 31.748C91.907 31.808 91.949 31.862 91.961 31.91L94.175 39.398L96.533 32C96.557 31.928 96.605 31.85 96.677 31.766C96.749 31.682 96.863 31.64 97.019 31.64H97.379C97.535 31.64 97.649 31.682 97.721 31.766C97.805 31.85 97.853 31.928 97.865 32L100.223 39.398L102.437 31.91C102.449 31.862 102.485 31.808 102.545 31.748C102.617 31.676 102.713 31.64 102.833 31.64H103.175C103.271 31.64 103.355 31.676 103.427 31.748C103.499 31.82 103.535 31.904 103.535 32C103.535 32.06 103.523 32.126 103.499 32.198L100.961 40.55C100.913 40.706 100.847 40.82 100.763 40.892C100.679 40.964 100.553 41 100.385 41H100.079C99.923 41 99.791 40.964 99.683 40.892C99.587 40.82 99.515 40.706 99.467 40.55L97.199 33.458L94.931 40.55C94.883 40.706 94.811 40.82 94.715 40.892C94.619 40.964 94.487 41 94.319 41H94.013ZM106.363 41C106.243 41 106.147 40.964 106.075 40.892C106.003 40.82 105.967 40.724 105.967 40.604V28.796C105.967 28.676 106.003 28.58 106.075 28.508C106.147 28.436 106.243 28.4 106.363 28.4H106.705C106.825 28.4 106.921 28.436 106.993 28.508C107.065 28.58 107.101 28.676 107.101 28.796V39.92H113.311C113.443 39.92 113.545 39.956 113.617 40.028C113.689 40.1 113.725 40.202 113.725 40.334V40.604C113.725 40.724 113.689 40.82 113.617 40.892C113.545 40.964 113.443 41 113.311 41H106.363ZM119.131 42.512C119.035 42.512 118.951 42.476 118.879 42.404C118.807 42.332 118.771 42.248 118.771 42.152C118.771 42.092 118.789 42.02 118.825 41.936L125.017 27.122C125.041 27.074 125.083 27.02 125.143 26.96C125.203 26.888 125.293 26.852 125.413 26.852H125.719C125.815 26.852 125.899 26.888 125.971 26.96C126.043 27.032 126.079 27.116 126.079 27.212C126.079 27.26 126.061 27.332 126.025 27.428L119.833 42.242C119.821 42.29 119.779 42.344 119.707 42.404C119.647 42.476 119.557 42.512 119.437 42.512H119.131ZM132.52 41C132.4 41 132.304 40.964 132.232 40.892C132.16 40.82 132.124 40.724 132.124 40.604V40.334C132.124 40.214 132.154 40.1 132.214 39.992C132.286 39.872 132.406 39.734 132.574 39.578L137.236 34.916C137.692 34.496 138.04 34.13 138.28 33.818C138.52 33.506 138.682 33.2 138.766 32.9C138.862 32.588 138.91 32.246 138.91 31.874C138.91 31.07 138.676 30.44 138.208 29.984C137.752 29.528 137.098 29.3 136.246 29.3C135.706 29.3 135.238 29.408 134.842 29.624C134.446 29.84 134.134 30.146 133.906 30.542C133.678 30.926 133.528 31.376 133.456 31.892C133.444 32.036 133.39 32.144 133.294 32.216C133.198 32.276 133.114 32.306 133.042 32.306H132.682C132.562 32.306 132.466 32.276 132.394 32.216C132.334 32.144 132.304 32.06 132.304 31.964C132.316 31.556 132.4 31.136 132.556 30.704C132.712 30.26 132.946 29.852 133.258 29.48C133.582 29.108 133.99 28.808 134.482 28.58C134.974 28.34 135.562 28.22 136.246 28.22C137.158 28.22 137.89 28.394 138.442 28.742C139.006 29.09 139.414 29.54 139.666 30.092C139.918 30.644 140.044 31.238 140.044 31.874C140.044 32.366 139.972 32.822 139.828 33.242C139.684 33.65 139.468 34.052 139.18 34.448C138.892 34.832 138.526 35.228 138.082 35.636L133.87 39.92H139.9C140.032 39.92 140.134 39.956 140.206 40.028C140.278 40.1 140.314 40.202 140.314 40.334V40.604C140.314 40.724 140.278 40.82 140.206 40.892C140.134 40.964 140.032 41 139.9 41H132.52ZM146.804 41.18C145.988 41.18 145.304 41.048 144.752 40.784C144.212 40.52 143.774 40.16 143.438 39.704C143.114 39.236 142.88 38.702 142.736 38.102C142.592 37.502 142.508 36.872 142.484 36.212C142.484 35.888 142.478 35.558 142.466 35.222C142.466 34.886 142.466 34.55 142.466 34.214C142.478 33.866 142.484 33.524 142.484 33.188C142.496 32.528 142.574 31.898 142.718 31.298C142.874 30.698 143.114 30.17 143.438 29.714C143.774 29.246 144.212 28.88 144.752 28.616C145.304 28.352 145.988 28.22 146.804 28.22C147.62 28.22 148.298 28.352 148.838 28.616C149.39 28.88 149.828 29.246 150.152 29.714C150.488 30.17 150.728 30.698 150.872 31.298C151.028 31.898 151.112 32.528 151.124 33.188C151.136 33.524 151.142 33.866 151.142 34.214C151.142 34.55 151.142 34.886 151.142 35.222C151.142 35.558 151.136 35.888 151.124 36.212C151.112 36.872 151.028 37.502 150.872 38.102C150.728 38.702 150.488 39.236 150.152 39.704C149.828 40.16 149.39 40.52 148.838 40.784C148.298 41.048 147.62 41.18 146.804 41.18ZM146.804 40.1C147.872 40.1 148.664 39.746 149.18 39.038C149.696 38.33 149.966 37.358 149.99 36.122C150.002 35.774 150.008 35.45 150.008 35.15C150.008 34.838 150.008 34.532 150.008 34.232C150.008 33.92 150.002 33.602 149.99 33.278C149.966 32.066 149.696 31.1 149.18 30.38C148.664 29.66 147.872 29.3 146.804 29.3C145.748 29.3 144.956 29.66 144.428 30.38C143.912 31.1 143.642 32.066 143.618 33.278C143.618 33.602 143.612 33.92 143.6 34.232C143.6 34.532 143.6 34.838 143.6 35.15C143.612 35.45 143.618 35.774 143.618 36.122C143.642 37.358 143.912 38.33 144.428 39.038C144.956 39.746 145.748 40.1 146.804 40.1Z" fill="#4E4E4E"/>
<path d="M242.31 41C242.13 41 241.986 40.958 241.878 40.874C241.782 40.79 241.704 40.676 241.644 40.532L237.63 28.958C237.606 28.886 237.594 28.82 237.594 28.76C237.594 28.664 237.63 28.58 237.702 28.508C237.774 28.436 237.858 28.4 237.954 28.4H238.89C239.034 28.4 239.142 28.442 239.214 28.526C239.298 28.598 239.346 28.664 239.358 28.724L242.886 38.93L246.414 28.724C246.438 28.664 246.486 28.598 246.558 28.526C246.63 28.442 246.738 28.4 246.882 28.4H247.818C247.914 28.4 247.998 28.436 248.07 28.508C248.154 28.58 248.196 28.664 248.196 28.76C248.196 28.82 248.184 28.886 248.16 28.958L244.128 40.532C244.08 40.676 244.002 40.79 243.894 40.874C243.798 40.958 243.66 41 243.48 41H242.31ZM249.713 44.06C249.449 44.06 249.317 43.928 249.317 43.664V43.268C249.317 43.172 249.347 43.076 249.407 42.98C249.467 42.896 249.581 42.794 249.749 42.674C250.481 42.134 251.075 41.702 251.531 41.378C251.987 41.054 252.317 40.766 252.521 40.514C252.725 40.262 252.827 39.986 252.827 39.686C252.827 39.422 252.731 39.212 252.539 39.056C252.347 38.888 252.107 38.804 251.819 38.804C251.531 38.804 251.315 38.852 251.171 38.948C251.039 39.032 250.943 39.128 250.883 39.236C250.823 39.344 250.775 39.434 250.739 39.506C250.667 39.638 250.601 39.728 250.541 39.776C250.481 39.812 250.403 39.83 250.307 39.83H249.803C249.563 39.83 249.455 39.716 249.479 39.488C249.503 39.164 249.617 38.87 249.821 38.606C250.037 38.33 250.319 38.108 250.667 37.94C251.015 37.76 251.399 37.67 251.819 37.67C252.527 37.67 253.085 37.868 253.493 38.264C253.913 38.66 254.123 39.128 254.123 39.668C254.123 40.1 254.027 40.478 253.835 40.802C253.643 41.114 253.349 41.432 252.953 41.756C252.557 42.08 252.047 42.458 251.423 42.89H253.979C254.243 42.89 254.375 43.022 254.375 43.286V43.664C254.375 43.928 254.243 44.06 253.979 44.06H249.713ZM261.088 33.872C260.968 33.872 260.872 33.836 260.8 33.764C260.728 33.692 260.692 33.596 260.692 33.476V33.224C260.692 33.104 260.728 33.008 260.8 32.936C260.872 32.864 260.968 32.828 261.088 32.828H267.838C267.958 32.828 268.054 32.864 268.126 32.936C268.198 33.008 268.234 33.104 268.234 33.224V33.476C268.234 33.596 268.198 33.692 268.126 33.764C268.054 33.836 267.958 33.872 267.838 33.872H261.088ZM261.088 38.372C260.968 38.372 260.872 38.336 260.8 38.264C260.728 38.192 260.692 38.096 260.692 37.976V37.724C260.692 37.604 260.728 37.508 260.8 37.436C260.872 37.364 260.968 37.328 261.088 37.328H267.838C267.958 37.328 268.054 37.364 268.126 37.436C268.198 37.508 268.234 37.604 268.234 37.724V37.976C268.234 38.096 268.198 38.192 268.126 38.264C268.054 38.336 267.958 38.372 267.838 38.372H261.088ZM277.002 41C276.894 41 276.804 40.964 276.732 40.892C276.672 40.808 276.642 40.712 276.642 40.604C276.642 40.568 276.654 40.514 276.678 40.442L281.304 29.48H275.166C275.046 29.48 274.95 29.444 274.878 29.372C274.806 29.3 274.77 29.204 274.77 29.084V28.814C274.77 28.682 274.806 28.58 274.878 28.508C274.95 28.436 275.046 28.4 275.166 28.4H282.114C282.246 28.4 282.348 28.436 282.42 28.508C282.492 28.58 282.528 28.682 282.528 28.814V29.084C282.528 29.228 282.516 29.348 282.492 29.444C282.48 29.528 282.45 29.63 282.402 29.75L277.848 40.55C277.8 40.646 277.74 40.748 277.668 40.856C277.608 40.952 277.512 41 277.38 41H277.002ZM286.908 41C286.752 41 286.632 40.964 286.548 40.892C286.464 40.82 286.392 40.706 286.332 40.55L283.794 32.198C283.77 32.126 283.758 32.06 283.758 32C283.758 31.904 283.794 31.82 283.866 31.748C283.938 31.676 284.022 31.64 284.118 31.64H284.46C284.58 31.64 284.67 31.676 284.73 31.748C284.802 31.808 284.844 31.862 284.856 31.91L287.07 39.398L289.428 32C289.452 31.928 289.5 31.85 289.572 31.766C289.644 31.682 289.758 31.64 289.914 31.64H290.274C290.43 31.64 290.544 31.682 290.616 31.766C290.7 31.85 290.748 31.928 290.76 32L293.118 39.398L295.332 31.91C295.344 31.862 295.38 31.808 295.44 31.748C295.512 31.676 295.608 31.64 295.728 31.64H296.07C296.166 31.64 296.25 31.676 296.322 31.748C296.394 31.82 296.43 31.904 296.43 32C296.43 32.06 296.418 32.126 296.394 32.198L293.856 40.55C293.808 40.706 293.742 40.82 293.658 40.892C293.574 40.964 293.448 41 293.28 41H292.974C292.818 41 292.686 40.964 292.578 40.892C292.482 40.82 292.41 40.706 292.362 40.55L290.094 33.458L287.826 40.55C287.778 40.706 287.706 40.82 287.61 40.892C287.514 40.964 287.382 41 287.214 41H286.908ZM299.258 41C299.138 41 299.042 40.964 298.97 40.892C298.898 40.82 298.862 40.724 298.862 40.604V28.796C298.862 28.676 298.898 28.58 298.97 28.508C299.042 28.436 299.138 28.4 299.258 28.4H299.6C299.72 28.4 299.816 28.436 299.888 28.508C299.96 28.58 299.996 28.676 299.996 28.796V39.92H306.206C306.338 39.92 306.44 39.956 306.512 40.028C306.584 40.1 306.62 40.202 306.62 40.334V40.604C306.62 40.724 306.584 40.82 306.512 40.892C306.44 40.964 306.338 41 306.206 41H299.258ZM312.026 42.512C311.93 42.512 311.846 42.476 311.774 42.404C311.702 42.332 311.666 42.248 311.666 42.152C311.666 42.092 311.684 42.02 311.72 41.936L317.912 27.122C317.936 27.074 317.978 27.02 318.038 26.96C318.098 26.888 318.188 26.852 318.308 26.852H318.614C318.71 26.852 318.794 26.888 318.866 26.96C318.938 27.032 318.974 27.116 318.974 27.212C318.974 27.26 318.956 27.332 318.92 27.428L312.728 42.242C312.716 42.29 312.674 42.344 312.602 42.404C312.542 42.476 312.452 42.512 312.332 42.512H312.026ZM325.414 41C325.294 41 325.198 40.964 325.126 40.892C325.054 40.82 325.018 40.724 325.018 40.604V40.334C325.018 40.214 325.048 40.1 325.108 39.992C325.18 39.872 325.3 39.734 325.468 39.578L330.13 34.916C330.586 34.496 330.934 34.13 331.174 33.818C331.414 33.506 331.576 33.2 331.66 32.9C331.756 32.588 331.804 32.246 331.804 31.874C331.804 31.07 331.57 30.44 331.102 29.984C330.646 29.528 329.992 29.3 329.14 29.3C328.6 29.3 328.132 29.408 327.736 29.624C327.34 29.84 327.028 30.146 326.8 30.542C326.572 30.926 326.422 31.376 326.35 31.892C326.338 32.036 326.284 32.144 326.188 32.216C326.092 32.276 326.008 32.306 325.936 32.306H325.576C325.456 32.306 325.36 32.276 325.288 32.216C325.228 32.144 325.198 32.06 325.198 31.964C325.21 31.556 325.294 31.136 325.45 30.704C325.606 30.26 325.84 29.852 326.152 29.48C326.476 29.108 326.884 28.808 327.376 28.58C327.868 28.34 328.456 28.22 329.14 28.22C330.052 28.22 330.784 28.394 331.336 28.742C331.9 29.09 332.308 29.54 332.56 30.092C332.812 30.644 332.938 31.238 332.938 31.874C332.938 32.366 332.866 32.822 332.722 33.242C332.578 33.65 332.362 34.052 332.074 34.448C331.786 34.832 331.42 35.228 330.976 35.636L326.764 39.92H332.794C332.926 39.92 333.028 39.956 333.1 40.028C333.172 40.1 333.208 40.202 333.208 40.334V40.604C333.208 40.724 333.172 40.82 333.1 40.892C333.028 40.964 332.926 41 332.794 41H325.414ZM339.698 41.18C338.882 41.18 338.198 41.048 337.646 40.784C337.106 40.52 336.668 40.16 336.332 39.704C336.008 39.236 335.774 38.702 335.63 38.102C335.486 37.502 335.402 36.872 335.378 36.212C335.378 35.888 335.372 35.558 335.36 35.222C335.36 34.886 335.36 34.55 335.36 34.214C335.372 33.866 335.378 33.524 335.378 33.188C335.39 32.528 335.468 31.898 335.612 31.298C335.768 30.698 336.008 30.17 336.332 29.714C336.668 29.246 337.106 28.88 337.646 28.616C338.198 28.352 338.882 28.22 339.698 28.22C340.514 28.22 341.192 28.352 341.732 28.616C342.284 28.88 342.722 29.246 343.046 29.714C343.382 30.17 343.622 30.698 343.766 31.298C343.922 31.898 344.006 32.528 344.018 33.188C344.03 33.524 344.036 33.866 344.036 34.214C344.036 34.55 344.036 34.886 344.036 35.222C344.036 35.558 344.03 35.888 344.018 36.212C344.006 36.872 343.922 37.502 343.766 38.102C343.622 38.702 343.382 39.236 343.046 39.704C342.722 40.16 342.284 40.52 341.732 40.784C341.192 41.048 340.514 41.18 339.698 41.18ZM339.698 40.1C340.766 40.1 341.558 39.746 342.074 39.038C342.59 38.33 342.86 37.358 342.884 36.122C342.896 35.774 342.902 35.45 342.902 35.15C342.902 34.838 342.902 34.532 342.902 34.232C342.902 33.92 342.896 33.602 342.884 33.278C342.86 32.066 342.59 31.1 342.074 30.38C341.558 29.66 340.766 29.3 339.698 29.3C338.642 29.3 337.85 29.66 337.322 30.38C336.806 31.1 336.536 32.066 336.512 33.278C336.512 33.602 336.506 33.92 336.494 34.232C336.494 34.532 336.494 34.838 336.494 35.15C336.506 35.45 336.512 35.774 336.512 36.122C336.536 37.358 336.806 38.33 337.322 39.038C337.85 39.746 338.642 40.1 339.698 40.1Z" fill="#4E4E4E"/>
</g>
<defs>
<filter id="filter0_d_444_86" x="0" y="0" width="394" height="129" filterUnits="userSpaceOnUse" color-interpolation-filters="sRGB">
<feFlood flood-opacity="0" result="BackgroundImageFix"/>
<feColorMatrix in="SourceAlpha" type="matrix" values="0 0 0 0 0 0 0 0 0 0 0 0 0 0 0 0 0 0 127 0" result="hardAlpha"/>
<feOffset dy="4"/>
<feGaussianBlur stdDeviation="2"/>
<feComposite in2="hardAlpha" operator="out"/>
<feColorMatrix type="matrix" values="0 0 0 0 0 0 0 0 0 0 0 0 0 0 0 0 0 0 0.25 0"/>
<feBlend mode="normal" in2="BackgroundImageFix" result="effect1_dropShadow_444_86"/>
<feBlend mode="normal" in="SourceGraphic" in2="effect1_dropShadow_444_86" result="shape"/>
</filter>
</defs>
</svg>
