<svg width="394" height="129" viewBox="0 0 394 129" fill="none" xmlns="http://www.w3.org/2000/svg">
<g filter="url(#filter0_d_45_210)">
<rect x="4" width="386" height="121" rx="5" fill="white"/>
<path d="M45.98 89C45.86 89 45.758 88.964 45.674 88.892C45.602 88.808 45.566 88.706 45.566 88.586V76.832C45.566 76.7 45.602 76.598 45.674 76.526C45.758 76.442 45.86 76.4 45.98 76.4H46.88C47.024 76.4 47.132 76.436 47.204 76.508C47.276 76.58 47.318 76.64 47.33 76.688L51.146 83.96L54.98 76.688C55.004 76.64 55.046 76.58 55.106 76.508C55.178 76.436 55.286 76.4 55.43 76.4H56.312C56.444 76.4 56.546 76.442 56.618 76.526C56.702 76.598 56.744 76.7 56.744 76.832V88.586C56.744 88.706 56.702 88.808 56.618 88.892C56.546 88.964 56.444 89 56.312 89H55.43C55.31 89 55.208 88.964 55.124 88.892C55.052 88.808 55.016 88.706 55.016 88.586V79.73L52.01 85.598C51.962 85.718 51.89 85.814 51.794 85.886C51.698 85.946 51.578 85.976 51.434 85.976H50.876C50.72 85.976 50.594 85.946 50.498 85.886C50.414 85.814 50.342 85.718 50.282 85.598L47.276 79.73V88.586C47.276 88.706 47.234 88.808 47.15 88.892C47.078 88.964 46.982 89 46.862 89H45.98ZM60.919 92.06C60.655 92.06 60.523 91.928 60.523 91.664V87.38L59.461 88.172C59.377 88.232 59.281 88.256 59.173 88.244C59.065 88.232 58.975 88.178 58.903 88.082L58.669 87.776C58.597 87.68 58.567 87.584 58.579 87.488C58.603 87.38 58.657 87.29 58.741 87.218L60.523 85.886C60.643 85.802 60.781 85.76 60.937 85.76H61.441C61.705 85.76 61.837 85.892 61.837 86.156V91.664C61.837 91.928 61.705 92.06 61.441 92.06H60.919ZM69.3363 81.872C69.2163 81.872 69.1203 81.836 69.0483 81.764C68.9763 81.692 68.9403 81.596 68.9403 81.476V81.224C68.9403 81.104 68.9763 81.008 69.0483 80.936C69.1203 80.864 69.2163 80.828 69.3363 80.828H76.0863C76.2063 80.828 76.3023 80.864 76.3743 80.936C76.4463 81.008 76.4823 81.104 76.4823 81.224V81.476C76.4823 81.596 76.4463 81.692 76.3743 81.764C76.3023 81.836 76.2063 81.872 76.0863 81.872H69.3363ZM69.3363 86.372C69.2163 86.372 69.1203 86.336 69.0483 86.264C68.9763 86.192 68.9403 86.096 68.9403 85.976V85.724C68.9403 85.604 68.9763 85.508 69.0483 85.436C69.1203 85.364 69.2163 85.328 69.3363 85.328H76.0863C76.2063 85.328 76.3023 85.364 76.3743 85.436C76.4463 85.508 76.4823 85.604 76.4823 85.724V85.976C76.4823 86.096 76.4463 86.192 76.3743 86.264C76.3023 86.336 76.2063 86.372 76.0863 86.372H69.3363ZM84.2241 84.122C84.1041 84.122 84.0081 84.086 83.9361 84.014C83.8641 83.942 83.8281 83.846 83.8281 83.726V83.474C83.8281 83.354 83.8641 83.258 83.9361 83.186C84.0081 83.114 84.1041 83.078 84.2241 83.078H89.5341C89.6541 83.078 89.7501 83.114 89.8221 83.186C89.8941 83.258 89.9301 83.354 89.9301 83.474V83.726C89.9301 83.846 89.8941 83.942 89.8221 84.014C89.7501 84.086 89.6541 84.122 89.5341 84.122H84.2241ZM93.1974 89C93.0774 89 92.9814 88.964 92.9094 88.892C92.8374 88.82 92.8014 88.724 92.8014 88.604V76.814C92.8014 76.682 92.8374 76.58 92.9094 76.508C92.9814 76.436 93.0774 76.4 93.1974 76.4H97.5714C98.4114 76.4 99.1374 76.544 99.7494 76.832C100.373 77.108 100.853 77.522 101.189 78.074C101.537 78.626 101.711 79.31 101.711 80.126C101.711 80.942 101.537 81.626 101.189 82.178C100.853 82.73 100.373 83.15 99.7494 83.438C99.1374 83.714 98.4114 83.852 97.5714 83.852H93.9354V88.604C93.9354 88.724 93.8994 88.82 93.8274 88.892C93.7554 88.964 93.6534 89 93.5214 89H93.1974ZM93.9354 82.772H97.4814C98.5254 82.772 99.2994 82.544 99.8034 82.088C100.319 81.632 100.577 80.978 100.577 80.126C100.577 79.274 100.319 78.62 99.8034 78.164C99.2994 77.708 98.5254 77.48 97.4814 77.48H93.9354V82.772ZM104.5 89C104.38 89 104.284 88.964 104.212 88.892C104.14 88.82 104.104 88.724 104.104 88.604V76.796C104.104 76.676 104.14 76.58 104.212 76.508C104.284 76.436 104.38 76.4 104.5 76.4H104.842C104.962 76.4 105.058 76.436 105.13 76.508C105.202 76.58 105.238 76.676 105.238 76.796V87.92H111.448C111.58 87.92 111.682 87.956 111.754 88.028C111.826 88.1 111.862 88.202 111.862 88.334V88.604C111.862 88.724 111.826 88.82 111.754 88.892C111.682 88.964 111.58 89 111.448 89H104.5ZM117.76 90.512C117.664 90.512 117.58 90.476 117.508 90.404C117.436 90.332 117.4 90.248 117.4 90.152C117.4 90.092 117.418 90.02 117.454 89.936L123.646 75.122C123.67 75.074 123.712 75.02 123.772 74.96C123.832 74.888 123.922 74.852 124.042 74.852H124.348C124.444 74.852 124.528 74.888 124.6 74.96C124.672 75.032 124.708 75.116 124.708 75.212C124.708 75.26 124.69 75.332 124.654 75.428L118.462 90.242C118.45 90.29 118.408 90.344 118.336 90.404C118.276 90.476 118.186 90.512 118.066 90.512H117.76ZM135.378 89.18C134.766 89.18 134.184 89.102 133.632 88.946C133.092 88.778 132.618 88.538 132.21 88.226C131.802 87.902 131.478 87.512 131.238 87.056C131.01 86.588 130.896 86.054 130.896 85.454C130.896 84.686 131.082 84.038 131.454 83.51C131.826 82.97 132.318 82.556 132.93 82.268C132.45 81.992 132.066 81.626 131.778 81.17C131.49 80.714 131.346 80.168 131.346 79.532C131.346 78.8 131.526 78.194 131.886 77.714C132.246 77.222 132.732 76.85 133.344 76.598C133.956 76.346 134.634 76.22 135.378 76.22C136.122 76.22 136.8 76.346 137.412 76.598C138.024 76.85 138.51 77.222 138.87 77.714C139.23 78.194 139.41 78.8 139.41 79.532C139.41 80.168 139.266 80.714 138.978 81.17C138.69 81.626 138.306 81.992 137.826 82.268C138.438 82.556 138.93 82.97 139.302 83.51C139.674 84.038 139.86 84.686 139.86 85.454C139.86 86.258 139.656 86.936 139.248 87.488C138.852 88.04 138.312 88.46 137.628 88.748C136.956 89.036 136.206 89.18 135.378 89.18ZM135.378 88.1C136.002 88.1 136.566 87.992 137.07 87.776C137.574 87.56 137.976 87.254 138.276 86.858C138.576 86.462 138.726 85.994 138.726 85.454C138.726 84.902 138.576 84.434 138.276 84.05C137.976 83.654 137.574 83.354 137.07 83.15C136.566 82.934 136.002 82.826 135.378 82.826C134.766 82.826 134.202 82.934 133.686 83.15C133.182 83.354 132.78 83.654 132.48 84.05C132.18 84.434 132.03 84.902 132.03 85.454C132.03 85.994 132.18 86.462 132.48 86.858C132.78 87.254 133.182 87.56 133.686 87.776C134.202 87.992 134.766 88.1 135.378 88.1ZM135.378 81.746C135.894 81.734 136.368 81.638 136.8 81.458C137.244 81.278 137.598 81.026 137.862 80.702C138.138 80.378 138.276 79.988 138.276 79.532C138.276 79.064 138.144 78.668 137.88 78.344C137.628 78.008 137.28 77.75 136.836 77.57C136.404 77.39 135.918 77.3 135.378 77.3C134.85 77.3 134.364 77.39 133.92 77.57C133.476 77.75 133.122 78.008 132.858 78.344C132.606 78.668 132.48 79.064 132.48 79.532C132.48 80 132.606 80.402 132.858 80.738C133.122 81.062 133.476 81.314 133.92 81.494C134.364 81.662 134.85 81.746 135.378 81.746Z" fill="#4E4E4E"/>
<path d="M238.98 89C238.86 89 238.758 88.964 238.674 88.892C238.602 88.808 238.566 88.706 238.566 88.586V76.832C238.566 76.7 238.602 76.598 238.674 76.526C238.758 76.442 238.86 76.4 238.98 76.4H239.88C240.024 76.4 240.132 76.436 240.204 76.508C240.276 76.58 240.318 76.64 240.33 76.688L244.146 83.96L247.98 76.688C248.004 76.64 248.046 76.58 248.106 76.508C248.178 76.436 248.286 76.4 248.43 76.4H249.312C249.444 76.4 249.546 76.442 249.618 76.526C249.702 76.598 249.744 76.7 249.744 76.832V88.586C249.744 88.706 249.702 88.808 249.618 88.892C249.546 88.964 249.444 89 249.312 89H248.43C248.31 89 248.208 88.964 248.124 88.892C248.052 88.808 248.016 88.706 248.016 88.586V79.73L245.01 85.598C244.962 85.718 244.89 85.814 244.794 85.886C244.698 85.946 244.578 85.976 244.434 85.976H243.876C243.72 85.976 243.594 85.946 243.498 85.886C243.414 85.814 243.342 85.718 243.282 85.598L240.276 79.73V88.586C240.276 88.706 240.234 88.808 240.15 88.892C240.078 88.964 239.982 89 239.862 89H238.98ZM252.227 92.06C251.963 92.06 251.831 91.928 251.831 91.664V91.268C251.831 91.172 251.861 91.076 251.921 90.98C251.981 90.896 252.095 90.794 252.263 90.674C252.995 90.134 253.589 89.702 254.045 89.378C254.501 89.054 254.831 88.766 255.035 88.514C255.239 88.262 255.341 87.986 255.341 87.686C255.341 87.422 255.245 87.212 255.053 87.056C254.861 86.888 254.621 86.804 254.333 86.804C254.045 86.804 253.829 86.852 253.685 86.948C253.553 87.032 253.457 87.128 253.397 87.236C253.337 87.344 253.289 87.434 253.253 87.506C253.181 87.638 253.115 87.728 253.055 87.776C252.995 87.812 252.917 87.83 252.821 87.83H252.317C252.077 87.83 251.969 87.716 251.993 87.488C252.017 87.164 252.131 86.87 252.335 86.606C252.551 86.33 252.833 86.108 253.181 85.94C253.529 85.76 253.913 85.67 254.333 85.67C255.041 85.67 255.599 85.868 256.007 86.264C256.427 86.66 256.637 87.128 256.637 87.668C256.637 88.1 256.541 88.478 256.349 88.802C256.157 89.114 255.863 89.432 255.467 89.756C255.071 90.08 254.561 90.458 253.937 90.89H256.493C256.757 90.89 256.889 91.022 256.889 91.286V91.664C256.889 91.928 256.757 92.06 256.493 92.06H252.227ZM263.83 81.872C263.71 81.872 263.614 81.836 263.542 81.764C263.47 81.692 263.434 81.596 263.434 81.476V81.224C263.434 81.104 263.47 81.008 263.542 80.936C263.614 80.864 263.71 80.828 263.83 80.828H270.58C270.7 80.828 270.796 80.864 270.868 80.936C270.94 81.008 270.976 81.104 270.976 81.224V81.476C270.976 81.596 270.94 81.692 270.868 81.764C270.796 81.836 270.7 81.872 270.58 81.872H263.83ZM263.83 86.372C263.71 86.372 263.614 86.336 263.542 86.264C263.47 86.192 263.434 86.096 263.434 85.976V85.724C263.434 85.604 263.47 85.508 263.542 85.436C263.614 85.364 263.71 85.328 263.83 85.328H270.58C270.7 85.328 270.796 85.364 270.868 85.436C270.94 85.508 270.976 85.604 270.976 85.724V85.976C270.976 86.096 270.94 86.192 270.868 86.264C270.796 86.336 270.7 86.372 270.58 86.372H263.83ZM279.078 89C278.958 89 278.862 88.964 278.79 88.892C278.718 88.82 278.682 88.724 278.682 88.604V76.814C278.682 76.682 278.718 76.58 278.79 76.508C278.862 76.436 278.958 76.4 279.078 76.4H283.452C284.292 76.4 285.018 76.544 285.63 76.832C286.254 77.108 286.734 77.522 287.07 78.074C287.418 78.626 287.592 79.31 287.592 80.126C287.592 80.942 287.418 81.626 287.07 82.178C286.734 82.73 286.254 83.15 285.63 83.438C285.018 83.714 284.292 83.852 283.452 83.852H279.816V88.604C279.816 88.724 279.78 88.82 279.708 88.892C279.636 88.964 279.534 89 279.402 89H279.078ZM279.816 82.772H283.362C284.406 82.772 285.18 82.544 285.684 82.088C286.2 81.632 286.458 80.978 286.458 80.126C286.458 79.274 286.2 78.62 285.684 78.164C285.18 77.708 284.406 77.48 283.362 77.48H279.816V82.772ZM290.381 89C290.261 89 290.165 88.964 290.093 88.892C290.021 88.82 289.985 88.724 289.985 88.604V76.796C289.985 76.676 290.021 76.58 290.093 76.508C290.165 76.436 290.261 76.4 290.381 76.4H290.723C290.843 76.4 290.939 76.436 291.011 76.508C291.083 76.58 291.119 76.676 291.119 76.796V87.92H297.329C297.461 87.92 297.563 87.956 297.635 88.028C297.707 88.1 297.743 88.202 297.743 88.334V88.604C297.743 88.724 297.707 88.82 297.635 88.892C297.563 88.964 297.461 89 297.329 89H290.381ZM303.149 90.512C303.053 90.512 302.969 90.476 302.897 90.404C302.825 90.332 302.789 90.248 302.789 90.152C302.789 90.092 302.807 90.02 302.843 89.936L309.035 75.122C309.059 75.074 309.101 75.02 309.161 74.96C309.221 74.888 309.311 74.852 309.431 74.852H309.737C309.833 74.852 309.917 74.888 309.989 74.96C310.061 75.032 310.097 75.116 310.097 75.212C310.097 75.26 310.079 75.332 310.043 75.428L303.851 90.242C303.839 90.29 303.797 90.344 303.725 90.404C303.665 90.476 303.575 90.512 303.455 90.512H303.149ZM320.767 89.18C320.155 89.18 319.573 89.102 319.021 88.946C318.481 88.778 318.007 88.538 317.599 88.226C317.191 87.902 316.867 87.512 316.627 87.056C316.399 86.588 316.285 86.054 316.285 85.454C316.285 84.686 316.471 84.038 316.843 83.51C317.215 82.97 317.707 82.556 318.319 82.268C317.839 81.992 317.455 81.626 317.167 81.17C316.879 80.714 316.735 80.168 316.735 79.532C316.735 78.8 316.915 78.194 317.275 77.714C317.635 77.222 318.121 76.85 318.733 76.598C319.345 76.346 320.023 76.22 320.767 76.22C321.511 76.22 322.189 76.346 322.801 76.598C323.413 76.85 323.899 77.222 324.259 77.714C324.619 78.194 324.799 78.8 324.799 79.532C324.799 80.168 324.655 80.714 324.367 81.17C324.079 81.626 323.695 81.992 323.215 82.268C323.827 82.556 324.319 82.97 324.691 83.51C325.063 84.038 325.249 84.686 325.249 85.454C325.249 86.258 325.045 86.936 324.637 87.488C324.241 88.04 323.701 88.46 323.017 88.748C322.345 89.036 321.595 89.18 320.767 89.18ZM320.767 88.1C321.391 88.1 321.955 87.992 322.459 87.776C322.963 87.56 323.365 87.254 323.665 86.858C323.965 86.462 324.115 85.994 324.115 85.454C324.115 84.902 323.965 84.434 323.665 84.05C323.365 83.654 322.963 83.354 322.459 83.15C321.955 82.934 321.391 82.826 320.767 82.826C320.155 82.826 319.591 82.934 319.075 83.15C318.571 83.354 318.169 83.654 317.869 84.05C317.569 84.434 317.419 84.902 317.419 85.454C317.419 85.994 317.569 86.462 317.869 86.858C318.169 87.254 318.571 87.56 319.075 87.776C319.591 87.992 320.155 88.1 320.767 88.1ZM320.767 81.746C321.283 81.734 321.757 81.638 322.189 81.458C322.633 81.278 322.987 81.026 323.251 80.702C323.527 80.378 323.665 79.988 323.665 79.532C323.665 79.064 323.533 78.668 323.269 78.344C323.017 78.008 322.669 77.75 322.225 77.57C321.793 77.39 321.307 77.3 320.767 77.3C320.239 77.3 319.753 77.39 319.309 77.57C318.865 77.75 318.511 78.008 318.247 78.344C317.995 78.668 317.869 79.064 317.869 79.532C317.869 80 317.995 80.402 318.247 80.738C318.511 81.062 318.865 81.314 319.309 81.494C319.753 81.662 320.239 81.746 320.767 81.746Z" fill="#4E4E4E"/>
<path d="M49.31 41C49.13 41 48.986 40.958 48.878 40.874C48.782 40.79 48.704 40.676 48.644 40.532L44.63 28.958C44.606 28.886 44.594 28.82 44.594 28.76C44.594 28.664 44.63 28.58 44.702 28.508C44.774 28.436 44.858 28.4 44.954 28.4H45.89C46.034 28.4 46.142 28.442 46.214 28.526C46.298 28.598 46.346 28.664 46.358 28.724L49.886 38.93L53.414 28.724C53.438 28.664 53.486 28.598 53.558 28.526C53.63 28.442 53.738 28.4 53.882 28.4H54.818C54.914 28.4 54.998 28.436 55.07 28.508C55.154 28.58 55.196 28.664 55.196 28.76C55.196 28.82 55.184 28.886 55.16 28.958L51.128 40.532C51.08 40.676 51.002 40.79 50.894 40.874C50.798 40.958 50.66 41 50.48 41H49.31ZM58.4053 44.06C58.1413 44.06 58.0093 43.928 58.0093 43.664V39.38L56.9473 40.172C56.8633 40.232 56.7673 40.256 56.6593 40.244C56.5513 40.232 56.4613 40.178 56.3893 40.082L56.1553 39.776C56.0833 39.68 56.0533 39.584 56.0653 39.488C56.0893 39.38 56.1433 39.29 56.2273 39.218L58.0093 37.886C58.1293 37.802 58.2673 37.76 58.4233 37.76H58.9273C59.1913 37.76 59.3233 37.892 59.3233 38.156V43.664C59.3233 43.928 59.1913 44.06 58.9273 44.06H58.4053ZM66.5941 33.872C66.4741 33.872 66.3781 33.836 66.3061 33.764C66.2341 33.692 66.1981 33.596 66.1981 33.476V33.224C66.1981 33.104 66.2341 33.008 66.3061 32.936C66.3781 32.864 66.4741 32.828 66.5941 32.828H73.3441C73.4641 32.828 73.5601 32.864 73.6321 32.936C73.7041 33.008 73.7401 33.104 73.7401 33.224V33.476C73.7401 33.596 73.7041 33.692 73.6321 33.764C73.5601 33.836 73.4641 33.872 73.3441 33.872H66.5941ZM66.5941 38.372C66.4741 38.372 66.3781 38.336 66.3061 38.264C66.2341 38.192 66.1981 38.096 66.1981 37.976V37.724C66.1981 37.604 66.2341 37.508 66.3061 37.436C66.3781 37.364 66.4741 37.328 66.5941 37.328H73.3441C73.4641 37.328 73.5601 37.364 73.6321 37.436C73.7041 37.508 73.7401 37.604 73.7401 37.724V37.976C73.7401 38.096 73.7041 38.192 73.6321 38.264C73.5601 38.336 73.4641 38.372 73.3441 38.372H66.5941ZM81.8419 41C81.7219 41 81.6259 40.964 81.5539 40.892C81.4819 40.82 81.4459 40.724 81.4459 40.604V28.814C81.4459 28.682 81.4819 28.58 81.5539 28.508C81.6259 28.436 81.7219 28.4 81.8419 28.4H86.2159C87.0559 28.4 87.7819 28.544 88.3939 28.832C89.0179 29.108 89.4979 29.522 89.8339 30.074C90.1819 30.626 90.3559 31.31 90.3559 32.126C90.3559 32.942 90.1819 33.626 89.8339 34.178C89.4979 34.73 89.0179 35.15 88.3939 35.438C87.7819 35.714 87.0559 35.852 86.2159 35.852H82.5799V40.604C82.5799 40.724 82.5439 40.82 82.4719 40.892C82.3999 40.964 82.2979 41 82.1659 41H81.8419ZM82.5799 34.772H86.1259C87.1699 34.772 87.9439 34.544 88.4479 34.088C88.9639 33.632 89.2219 32.978 89.2219 32.126C89.2219 31.274 88.9639 30.62 88.4479 30.164C87.9439 29.708 87.1699 29.48 86.1259 29.48H82.5799V34.772ZM96.1214 42.512C96.0254 42.512 95.9414 42.476 95.8694 42.404C95.7974 42.332 95.7614 42.248 95.7614 42.152C95.7614 42.092 95.7794 42.02 95.8154 41.936L102.007 27.122C102.031 27.074 102.073 27.02 102.133 26.96C102.193 26.888 102.283 26.852 102.403 26.852H102.709C102.805 26.852 102.889 26.888 102.961 26.96C103.033 27.032 103.069 27.116 103.069 27.212C103.069 27.26 103.051 27.332 103.015 27.428L96.8234 42.242C96.8114 42.29 96.7694 42.344 96.6974 42.404C96.6374 42.476 96.5474 42.512 96.4274 42.512H96.1214ZM109.51 41C109.39 41 109.294 40.964 109.222 40.892C109.15 40.82 109.114 40.724 109.114 40.604V40.334C109.114 40.214 109.144 40.1 109.204 39.992C109.276 39.872 109.396 39.734 109.564 39.578L114.226 34.916C114.682 34.496 115.03 34.13 115.27 33.818C115.51 33.506 115.672 33.2 115.756 32.9C115.852 32.588 115.9 32.246 115.9 31.874C115.9 31.07 115.666 30.44 115.198 29.984C114.742 29.528 114.088 29.3 113.236 29.3C112.696 29.3 112.228 29.408 111.832 29.624C111.436 29.84 111.124 30.146 110.896 30.542C110.668 30.926 110.518 31.376 110.446 31.892C110.434 32.036 110.38 32.144 110.284 32.216C110.188 32.276 110.104 32.306 110.032 32.306H109.672C109.552 32.306 109.456 32.276 109.384 32.216C109.324 32.144 109.294 32.06 109.294 31.964C109.306 31.556 109.39 31.136 109.546 30.704C109.702 30.26 109.936 29.852 110.248 29.48C110.572 29.108 110.98 28.808 111.472 28.58C111.964 28.34 112.552 28.22 113.236 28.22C114.148 28.22 114.88 28.394 115.432 28.742C115.996 29.09 116.404 29.54 116.656 30.092C116.908 30.644 117.034 31.238 117.034 31.874C117.034 32.366 116.962 32.822 116.818 33.242C116.674 33.65 116.458 34.052 116.17 34.448C115.882 34.832 115.516 35.228 115.072 35.636L110.86 39.92H116.89C117.022 39.92 117.124 39.956 117.196 40.028C117.268 40.1 117.304 40.202 117.304 40.334V40.604C117.304 40.724 117.268 40.82 117.196 40.892C117.124 40.964 117.022 41 116.89 41H109.51Z" fill="#4E4E4E"/>
<path d="M242.31 41C242.13 41 241.986 40.958 241.878 40.874C241.782 40.79 241.704 40.676 241.644 40.532L237.63 28.958C237.606 28.886 237.594 28.82 237.594 28.76C237.594 28.664 237.63 28.58 237.702 28.508C237.774 28.436 237.858 28.4 237.954 28.4H238.89C239.034 28.4 239.142 28.442 239.214 28.526C239.298 28.598 239.346 28.664 239.358 28.724L242.886 38.93L246.414 28.724C246.438 28.664 246.486 28.598 246.558 28.526C246.63 28.442 246.738 28.4 246.882 28.4H247.818C247.914 28.4 247.998 28.436 248.07 28.508C248.154 28.58 248.196 28.664 248.196 28.76C248.196 28.82 248.184 28.886 248.16 28.958L244.128 40.532C244.08 40.676 244.002 40.79 243.894 40.874C243.798 40.958 243.66 41 243.48 41H242.31ZM249.713 44.06C249.449 44.06 249.317 43.928 249.317 43.664V43.268C249.317 43.172 249.347 43.076 249.407 42.98C249.467 42.896 249.581 42.794 249.749 42.674C250.481 42.134 251.075 41.702 251.531 41.378C251.987 41.054 252.317 40.766 252.521 40.514C252.725 40.262 252.827 39.986 252.827 39.686C252.827 39.422 252.731 39.212 252.539 39.056C252.347 38.888 252.107 38.804 251.819 38.804C251.531 38.804 251.315 38.852 251.171 38.948C251.039 39.032 250.943 39.128 250.883 39.236C250.823 39.344 250.775 39.434 250.739 39.506C250.667 39.638 250.601 39.728 250.541 39.776C250.481 39.812 250.403 39.83 250.307 39.83H249.803C249.563 39.83 249.455 39.716 249.479 39.488C249.503 39.164 249.617 38.87 249.821 38.606C250.037 38.33 250.319 38.108 250.667 37.94C251.015 37.76 251.399 37.67 251.819 37.67C252.527 37.67 253.085 37.868 253.493 38.264C253.913 38.66 254.123 39.128 254.123 39.668C254.123 40.1 254.027 40.478 253.835 40.802C253.643 41.114 253.349 41.432 252.953 41.756C252.557 42.08 252.047 42.458 251.423 42.89H253.979C254.243 42.89 254.375 43.022 254.375 43.286V43.664C254.375 43.928 254.243 44.06 253.979 44.06H249.713ZM261.088 33.872C260.968 33.872 260.872 33.836 260.8 33.764C260.728 33.692 260.692 33.596 260.692 33.476V33.224C260.692 33.104 260.728 33.008 260.8 32.936C260.872 32.864 260.968 32.828 261.088 32.828H267.838C267.958 32.828 268.054 32.864 268.126 32.936C268.198 33.008 268.234 33.104 268.234 33.224V33.476C268.234 33.596 268.198 33.692 268.126 33.764C268.054 33.836 267.958 33.872 267.838 33.872H261.088ZM261.088 38.372C260.968 38.372 260.872 38.336 260.8 38.264C260.728 38.192 260.692 38.096 260.692 37.976V37.724C260.692 37.604 260.728 37.508 260.8 37.436C260.872 37.364 260.968 37.328 261.088 37.328H267.838C267.958 37.328 268.054 37.364 268.126 37.436C268.198 37.508 268.234 37.604 268.234 37.724V37.976C268.234 38.096 268.198 38.192 268.126 38.264C268.054 38.336 267.958 38.372 267.838 38.372H261.088ZM276.336 41C276.216 41 276.12 40.964 276.048 40.892C275.976 40.82 275.94 40.724 275.94 40.604V28.814C275.94 28.682 275.976 28.58 276.048 28.508C276.12 28.436 276.216 28.4 276.336 28.4H280.71C281.55 28.4 282.276 28.544 282.888 28.832C283.512 29.108 283.992 29.522 284.328 30.074C284.676 30.626 284.85 31.31 284.85 32.126C284.85 32.942 284.676 33.626 284.328 34.178C283.992 34.73 283.512 35.15 282.888 35.438C282.276 35.714 281.55 35.852 280.71 35.852H277.074V40.604C277.074 40.724 277.038 40.82 276.966 40.892C276.894 40.964 276.792 41 276.66 41H276.336ZM277.074 34.772H280.62C281.664 34.772 282.438 34.544 282.942 34.088C283.458 33.632 283.716 32.978 283.716 32.126C283.716 31.274 283.458 30.62 282.942 30.164C282.438 29.708 281.664 29.48 280.62 29.48H277.074V34.772ZM290.616 42.512C290.52 42.512 290.436 42.476 290.364 42.404C290.292 42.332 290.256 42.248 290.256 42.152C290.256 42.092 290.274 42.02 290.31 41.936L296.502 27.122C296.526 27.074 296.568 27.02 296.628 26.96C296.688 26.888 296.778 26.852 296.898 26.852H297.204C297.3 26.852 297.384 26.888 297.456 26.96C297.528 27.032 297.564 27.116 297.564 27.212C297.564 27.26 297.546 27.332 297.51 27.428L291.318 42.242C291.306 42.29 291.264 42.344 291.192 42.404C291.132 42.476 291.042 42.512 290.922 42.512H290.616ZM304.004 41C303.884 41 303.788 40.964 303.716 40.892C303.644 40.82 303.608 40.724 303.608 40.604V40.334C303.608 40.214 303.638 40.1 303.698 39.992C303.77 39.872 303.89 39.734 304.058 39.578L308.72 34.916C309.176 34.496 309.524 34.13 309.764 33.818C310.004 33.506 310.166 33.2 310.25 32.9C310.346 32.588 310.394 32.246 310.394 31.874C310.394 31.07 310.16 30.44 309.692 29.984C309.236 29.528 308.582 29.3 307.73 29.3C307.19 29.3 306.722 29.408 306.326 29.624C305.93 29.84 305.618 30.146 305.39 30.542C305.162 30.926 305.012 31.376 304.94 31.892C304.928 32.036 304.874 32.144 304.778 32.216C304.682 32.276 304.598 32.306 304.526 32.306H304.166C304.046 32.306 303.95 32.276 303.878 32.216C303.818 32.144 303.788 32.06 303.788 31.964C303.8 31.556 303.884 31.136 304.04 30.704C304.196 30.26 304.43 29.852 304.742 29.48C305.066 29.108 305.474 28.808 305.966 28.58C306.458 28.34 307.046 28.22 307.73 28.22C308.642 28.22 309.374 28.394 309.926 28.742C310.49 29.09 310.898 29.54 311.15 30.092C311.402 30.644 311.528 31.238 311.528 31.874C311.528 32.366 311.456 32.822 311.312 33.242C311.168 33.65 310.952 34.052 310.664 34.448C310.376 34.832 310.01 35.228 309.566 35.636L305.354 39.92H311.384C311.516 39.92 311.618 39.956 311.69 40.028C311.762 40.1 311.798 40.202 311.798 40.334V40.604C311.798 40.724 311.762 40.82 311.69 40.892C311.618 40.964 311.516 41 311.384 41H304.004Z" fill="#4E4E4E"/>
</g>
<defs>
<filter id="filter0_d_45_210" x="0" y="0" width="394" height="129" filterUnits="userSpaceOnUse" color-interpolation-filters="sRGB">
<feFlood flood-opacity="0" result="BackgroundImageFix"/>
<feColorMatrix in="SourceAlpha" type="matrix" values="0 0 0 0 0 0 0 0 0 0 0 0 0 0 0 0 0 0 127 0" result="hardAlpha"/>
<feOffset dy="4"/>
<feGaussianBlur stdDeviation="2"/>
<feComposite in2="hardAlpha" operator="out"/>
<feColorMatrix type="matrix" values="0 0 0 0 0 0 0 0 0 0 0 0 0 0 0 0 0 0 0.25 0"/>
<feBlend mode="normal" in2="BackgroundImageFix" result="effect1_dropShadow_45_210"/>
<feBlend mode="normal" in="SourceGraphic" in2="effect1_dropShadow_45_210" result="shape"/>
</filter>
</defs>
</svg>
