<svg width="394" height="129" viewBox="0 0 394 129" fill="none" xmlns="http://www.w3.org/2000/svg">
<g filter="url(#filter0_d_45_174)">
<rect x="4" width="386" height="121" rx="5" fill="white"/>
<path d="M90 52L199 52L308 52" stroke="#252323"/>
<circle cx="86" cy="52" r="4" transform="rotate(-180 86 52)" fill="#CADEFC" stroke="black"/>
<circle cx="312" cy="52" r="4" transform="rotate(-180 312 52)" fill="#CADEFC" stroke="black"/>
<path d="M86 64L83.1132 69H88.8868L86 64ZM86.5 94V68.5H85.5V94H86.5Z" fill="#4E4E4E"/>
<path d="M99.8409 89C99.7023 89 99.5903 88.968 99.5049 88.904C99.4196 88.84 99.3503 88.744 99.2969 88.616L95.5849 78.296C95.5636 78.232 95.5529 78.1733 95.5529 78.12C95.5529 78.0347 95.5849 77.96 95.6489 77.896C95.7129 77.832 95.7876 77.8 95.8729 77.8H96.2089C96.3156 77.8 96.3956 77.832 96.4489 77.896C96.5129 77.9493 96.5503 77.9973 96.5609 78.04L100.065 87.832L103.569 78.04C103.59 77.9973 103.628 77.9493 103.681 77.896C103.734 77.832 103.814 77.8 103.921 77.8H104.257C104.342 77.8 104.417 77.832 104.481 77.896C104.545 77.96 104.577 78.0347 104.577 78.12C104.577 78.1733 104.566 78.232 104.545 78.296L100.833 88.616C100.79 88.744 100.726 88.84 100.641 88.904C100.556 88.968 100.438 89 100.289 89H99.8409ZM107.5 91.72C107.265 91.72 107.148 91.6027 107.148 91.368V87.352L106.14 88.104C106.065 88.1573 105.98 88.1787 105.884 88.168C105.788 88.1573 105.708 88.1093 105.644 88.024L105.532 87.864C105.468 87.7787 105.441 87.6933 105.452 87.608C105.473 87.512 105.521 87.432 105.596 87.368L107.132 86.232C107.239 86.1573 107.361 86.12 107.5 86.12H107.724C107.959 86.12 108.076 86.2373 108.076 86.472V91.368C108.076 91.6027 107.959 91.72 107.724 91.72H107.5Z" fill="#4E4E4E"/>
<path d="M38.6923 53C38.5856 53 38.495 52.968 38.4203 52.904C38.3563 52.84 38.3243 52.7547 38.3243 52.648V42.168C38.3243 42.0507 38.3563 41.96 38.4203 41.896C38.495 41.832 38.5856 41.8 38.6923 41.8H39.0923C39.199 41.8 39.279 41.8267 39.3323 41.88C39.3856 41.9333 39.4176 41.976 39.4283 42.008L43.0603 49.08L46.7083 42.008C46.7296 41.976 46.7616 41.9333 46.8043 41.88C46.8576 41.8267 46.9376 41.8 47.0443 41.8H47.4283C47.5456 41.8 47.6363 41.832 47.7003 41.896C47.7643 41.96 47.7963 42.0507 47.7963 42.168V52.648C47.7963 52.7547 47.7643 52.84 47.7003 52.904C47.6363 52.968 47.5456 53 47.4283 53H47.1403C47.0336 53 46.9483 52.968 46.8843 52.904C46.8203 52.84 46.7883 52.7547 46.7883 52.648V43.976L43.7323 49.992C43.6896 50.0987 43.6256 50.1787 43.5403 50.232C43.4656 50.2853 43.3643 50.312 43.2363 50.312H42.8843C42.7563 50.312 42.655 50.2853 42.5803 50.232C42.5056 50.1787 42.4416 50.0987 42.3883 49.992L39.3323 43.976V52.648C39.3323 52.7547 39.3003 52.84 39.2363 52.904C39.1723 52.968 39.087 53 38.9803 53H38.6923ZM51.6407 55.72C51.406 55.72 51.2887 55.6027 51.2887 55.368V51.352L50.2807 52.104C50.206 52.1573 50.1207 52.1787 50.0247 52.168C49.9287 52.1573 49.8487 52.1093 49.7847 52.024L49.6727 51.864C49.6087 51.7787 49.582 51.6933 49.5927 51.608C49.614 51.512 49.662 51.432 49.7367 51.368L51.2727 50.232C51.3794 50.1573 51.502 50.12 51.6407 50.12H51.8647C52.0994 50.12 52.2167 50.2373 52.2167 50.472V55.368C52.2167 55.6027 52.0994 55.72 51.8647 55.72H51.6407Z" fill="#4E4E4E"/>
<path d="M348.95 55C348.843 55 348.753 54.968 348.678 54.904C348.614 54.84 348.582 54.7547 348.582 54.648V44.168C348.582 44.0507 348.614 43.96 348.678 43.896C348.753 43.832 348.843 43.8 348.95 43.8H349.35C349.457 43.8 349.537 43.8267 349.59 43.88C349.643 43.9333 349.675 43.976 349.686 44.008L353.318 51.08L356.966 44.008C356.987 43.976 357.019 43.9333 357.062 43.88C357.115 43.8267 357.195 43.8 357.302 43.8H357.686C357.803 43.8 357.894 43.832 357.958 43.896C358.022 43.96 358.054 44.0507 358.054 44.168V54.648C358.054 54.7547 358.022 54.84 357.958 54.904C357.894 54.968 357.803 55 357.686 55H357.398C357.291 55 357.206 54.968 357.142 54.904C357.078 54.84 357.046 54.7547 357.046 54.648V45.976L353.99 51.992C353.947 52.0987 353.883 52.1787 353.798 52.232C353.723 52.2853 353.622 52.312 353.494 52.312H353.142C353.014 52.312 352.913 52.2853 352.838 52.232C352.763 52.1787 352.699 52.0987 352.646 51.992L349.59 45.976V54.648C349.59 54.7547 349.558 54.84 349.494 54.904C349.43 54.968 349.345 55 349.238 55H348.95ZM360.411 57.72C360.176 57.72 360.059 57.6027 360.059 57.368V57.096C360.059 57.0107 360.085 56.9253 360.139 56.84C360.192 56.7653 360.293 56.6747 360.443 56.568C361.125 56.0773 361.669 55.6827 362.075 55.384C362.491 55.096 362.789 54.8347 362.971 54.6C363.163 54.3653 363.259 54.104 363.259 53.816C363.259 53.5387 363.152 53.32 362.939 53.16C362.736 53 362.496 52.92 362.219 52.92C361.931 52.92 361.712 52.968 361.562 53.064C361.424 53.1493 361.323 53.2453 361.259 53.352C361.205 53.4587 361.163 53.544 361.131 53.608C361.067 53.7253 361.008 53.8053 360.955 53.848C360.901 53.88 360.832 53.896 360.747 53.896H360.507C360.293 53.896 360.197 53.7947 360.219 53.592C360.24 53.336 360.341 53.0907 360.523 52.856C360.704 52.6213 360.944 52.4293 361.243 52.28C361.541 52.12 361.867 52.04 362.219 52.04C362.827 52.04 363.307 52.2213 363.659 52.584C364.011 52.936 364.187 53.3467 364.187 53.816C364.187 54.2107 364.101 54.5573 363.931 54.856C363.76 55.144 363.488 55.4373 363.115 55.736C362.741 56.0453 362.251 56.408 361.643 56.824H364.075C364.309 56.824 364.427 56.9413 364.427 57.176V57.368C364.427 57.6027 364.309 57.72 364.075 57.72H360.411Z" fill="#4E4E4E"/>
<path d="M312 64L309.113 69H314.887L312 64ZM312.5 94V68.5H311.5V94H312.5Z" fill="#4E4E4E"/>
<path d="M292.099 89C291.96 89 291.848 88.968 291.763 88.904C291.677 88.84 291.608 88.744 291.555 88.616L287.843 78.296C287.821 78.232 287.811 78.1733 287.811 78.12C287.811 78.0347 287.843 77.96 287.907 77.896C287.971 77.832 288.045 77.8 288.131 77.8H288.467C288.573 77.8 288.653 77.832 288.707 77.896C288.771 77.9493 288.808 77.9973 288.819 78.04L292.323 87.832L295.827 78.04C295.848 77.9973 295.885 77.9493 295.939 77.896C295.992 77.832 296.072 77.8 296.179 77.8H296.515C296.6 77.8 296.675 77.832 296.739 77.896C296.803 77.96 296.835 78.0347 296.835 78.12C296.835 78.1733 296.824 78.232 296.803 78.296L293.091 88.616C293.048 88.744 292.984 88.84 292.899 88.904C292.813 88.968 292.696 89 292.547 89H292.099ZM298.27 91.72C298.035 91.72 297.918 91.6027 297.918 91.368V91.096C297.918 91.0107 297.945 90.9253 297.998 90.84C298.051 90.7653 298.153 90.6747 298.302 90.568C298.985 90.0773 299.529 89.6827 299.934 89.384C300.35 89.096 300.649 88.8347 300.83 88.6C301.022 88.3653 301.118 88.104 301.118 87.816C301.118 87.5387 301.011 87.32 300.798 87.16C300.595 87 300.355 86.92 300.078 86.92C299.79 86.92 299.571 86.968 299.422 87.064C299.283 87.1493 299.182 87.2453 299.118 87.352C299.065 87.4587 299.022 87.544 298.99 87.608C298.926 87.7253 298.867 87.8053 298.814 87.848C298.761 87.88 298.691 87.896 298.606 87.896H298.366C298.153 87.896 298.057 87.7947 298.078 87.592C298.099 87.336 298.201 87.0907 298.382 86.856C298.563 86.6213 298.803 86.4293 299.102 86.28C299.401 86.12 299.726 86.04 300.078 86.04C300.686 86.04 301.166 86.2213 301.518 86.584C301.87 86.936 302.046 87.3467 302.046 87.816C302.046 88.2107 301.961 88.5573 301.79 88.856C301.619 89.144 301.347 89.4373 300.974 89.736C300.601 90.0453 300.11 90.408 299.502 90.824H301.934C302.169 90.824 302.286 90.9413 302.286 91.176V91.368C302.286 91.6027 302.169 91.72 301.934 91.72H298.27Z" fill="#4E4E4E"/>
<path d="M73.6152 37.8347L68.4847 35.1869L68.7568 40.954L73.6152 37.8347ZM70.0024 63.3741C64.2883 62.3005 61.6827 56.9338 61.76 51.2711C61.7984 48.4539 62.508 45.6198 63.7995 43.3119C65.0909 41.0042 66.9463 39.2507 69.2692 38.5241L68.9706 37.5697C66.3432 38.3917 64.3081 40.3554 62.9269 42.8235C61.5458 45.2913 60.8006 48.2916 60.7601 51.2574C60.6795 57.1607 63.4192 63.1547 69.8177 64.3569L70.0024 63.3741Z" fill="#4E4E4E"/>
<path d="M327.235 63.0308L332.366 65.6787L332.094 59.9116L327.235 63.0308ZM330.848 37.4914C336.562 38.5651 339.168 43.9317 339.091 49.5945C339.052 52.4116 338.343 55.2457 337.051 57.5537C335.76 59.8613 333.904 61.6148 331.581 62.3415L331.88 63.2959C334.508 62.4739 336.543 60.5102 337.924 58.042C339.305 55.5742 340.05 52.574 340.091 49.6081C340.171 43.7049 337.431 37.7109 331.033 36.5086L330.848 37.4914Z" fill="#4E4E4E"/>
<path d="M196.5 50.5L199.387 45.5H193.613L196.5 50.5ZM197 46V21.5H196V46H197Z" fill="#4E4E4E"/>
<path d="M193.833 17C193.726 17 193.641 16.968 193.577 16.904C193.513 16.84 193.481 16.7547 193.481 16.648V6.168C193.481 6.05067 193.513 5.96 193.577 5.896C193.641 5.832 193.726 5.8 193.833 5.8H197.721C198.467 5.8 199.113 5.928 199.657 6.184C200.211 6.42933 200.638 6.79733 200.937 7.288C201.246 7.77867 201.401 8.38667 201.401 9.112C201.401 9.83733 201.246 10.4453 200.937 10.936C200.638 11.4267 200.211 11.8 199.657 12.056C199.113 12.3013 198.467 12.424 197.721 12.424H194.489V16.648C194.489 16.7547 194.457 16.84 194.393 16.904C194.329 16.968 194.238 17 194.121 17H193.833ZM194.489 11.464H197.641C198.569 11.464 199.257 11.2613 199.705 10.856C200.163 10.4507 200.393 9.86933 200.393 9.112C200.393 8.35467 200.163 7.77333 199.705 7.368C199.257 6.96267 198.569 6.76 197.641 6.76H194.489V11.464Z" fill="#4E4E4E"/>
<path d="M131.903 71C131.796 71 131.711 70.968 131.647 70.904C131.583 70.84 131.551 70.7547 131.551 70.648V60.152C131.551 60.0453 131.583 59.96 131.647 59.896C131.711 59.832 131.796 59.8 131.903 59.8H132.207C132.314 59.8 132.399 59.832 132.463 59.896C132.527 59.96 132.559 60.0453 132.559 60.152V70.04H138.079C138.196 70.04 138.287 70.072 138.351 70.136C138.415 70.2 138.447 70.2907 138.447 70.408V70.648C138.447 70.7547 138.415 70.84 138.351 70.904C138.287 70.968 138.196 71 138.079 71H131.903ZM139.565 72.344C139.479 72.344 139.405 72.312 139.34 72.248C139.277 72.184 139.245 72.1093 139.245 72.024C139.245 71.9707 139.261 71.9067 139.293 71.832L144.797 58.664C144.818 58.6213 144.855 58.5733 144.909 58.52C144.962 58.456 145.042 58.424 145.149 58.424H145.421C145.506 58.424 145.581 58.456 145.645 58.52C145.709 58.584 145.741 58.6587 145.741 58.744C145.741 58.7867 145.725 58.8507 145.693 58.936L140.189 72.104C140.178 72.1467 140.141 72.1947 140.077 72.248C140.023 72.312 139.943 72.344 139.837 72.344H139.565ZM147.184 71C147.077 71 146.992 70.968 146.928 70.904C146.864 70.84 146.832 70.7547 146.832 70.648V70.408C146.832 70.3013 146.859 70.2 146.912 70.104C146.976 69.9973 147.083 69.8747 147.232 69.736L151.376 65.592C151.781 65.2187 152.091 64.8933 152.304 64.616C152.517 64.3387 152.661 64.0667 152.736 63.8C152.821 63.5227 152.864 63.2187 152.864 62.888C152.864 62.1733 152.656 61.6133 152.24 61.208C151.835 60.8027 151.253 60.6 150.496 60.6C150.016 60.6 149.6 60.696 149.248 60.888C148.896 61.08 148.619 61.352 148.416 61.704C148.213 62.0453 148.08 62.4453 148.016 62.904C148.005 63.032 147.957 63.128 147.872 63.192C147.787 63.2453 147.712 63.272 147.648 63.272H147.328C147.221 63.272 147.136 63.2453 147.072 63.192C147.019 63.128 146.992 63.0533 146.992 62.968C147.003 62.6053 147.077 62.232 147.216 61.848C147.355 61.4533 147.563 61.0907 147.84 60.76C148.128 60.4293 148.491 60.1627 148.928 59.96C149.365 59.7467 149.888 59.64 150.496 59.64C151.307 59.64 151.957 59.7947 152.448 60.104C152.949 60.4133 153.312 60.8133 153.536 61.304C153.76 61.7947 153.872 62.3227 153.872 62.888C153.872 63.3253 153.808 63.7307 153.68 64.104C153.552 64.4667 153.36 64.824 153.104 65.176C152.848 65.5173 152.523 65.8693 152.128 66.232L148.384 70.04H153.744C153.861 70.04 153.952 70.072 154.016 70.136C154.08 70.2 154.112 70.2907 154.112 70.408V70.648C154.112 70.7547 154.08 70.84 154.016 70.904C153.952 70.968 153.861 71 153.744 71H147.184Z" fill="#4E4E4E"/>
<path d="M141.747 44.16C141.235 44.16 140.76 44.0533 140.323 43.84C139.896 43.6267 139.55 43.344 139.283 42.992C139.016 42.6293 138.883 42.224 138.883 41.776C138.883 41.0507 139.176 40.4693 139.763 40.032C140.35 39.5947 141.112 39.312 142.051 39.184L144.579 38.832V38.272C144.579 37.7067 144.403 37.264 144.051 36.944C143.71 36.6133 143.16 36.448 142.403 36.448C141.848 36.448 141.4 36.56 141.059 36.784C140.718 36.9973 140.483 37.28 140.355 37.632C140.302 37.792 140.2 37.872 140.051 37.872H139.795C139.667 37.872 139.576 37.84 139.523 37.776C139.47 37.7013 139.443 37.616 139.443 37.52C139.443 37.3707 139.496 37.184 139.603 36.96C139.72 36.736 139.896 36.5173 140.131 36.304C140.366 36.08 140.67 35.8933 141.043 35.744C141.416 35.5947 141.87 35.52 142.403 35.52C143.032 35.52 143.55 35.6053 143.955 35.776C144.371 35.9467 144.691 36.1707 144.915 36.448C145.15 36.7147 145.315 37.0133 145.411 37.344C145.507 37.6747 145.555 38 145.555 38.32V43.648C145.555 43.7547 145.523 43.84 145.459 43.904C145.395 43.968 145.31 44 145.203 44H144.931C144.824 44 144.739 43.968 144.675 43.904C144.611 43.84 144.579 43.7547 144.579 43.648V42.896C144.451 43.088 144.27 43.28 144.035 43.472C143.8 43.664 143.496 43.8293 143.123 43.968C142.76 44.096 142.302 44.16 141.747 44.16ZM141.907 43.232C142.398 43.232 142.846 43.1253 143.251 42.912C143.656 42.6987 143.976 42.3733 144.211 41.936C144.456 41.488 144.579 40.928 144.579 40.256V39.712L142.515 40C141.64 40.1173 140.979 40.32 140.531 40.608C140.083 40.896 139.859 41.2587 139.859 41.696C139.859 42.048 139.96 42.336 140.163 42.56C140.366 42.784 140.622 42.9547 140.931 43.072C141.251 43.1787 141.576 43.232 141.907 43.232Z" fill="#4E4E4E"/>
<path d="M254.335 44.16C253.674 44.16 253.125 44.0427 252.687 43.808C252.261 43.5627 251.914 43.2587 251.647 42.896V43.648C251.647 43.7547 251.615 43.84 251.551 43.904C251.487 43.968 251.402 44 251.295 44H251.023C250.917 44 250.831 43.968 250.767 43.904C250.703 43.84 250.671 43.7547 250.671 43.648V32.992C250.671 32.8853 250.703 32.8 250.767 32.736C250.831 32.672 250.917 32.64 251.023 32.64H251.295C251.402 32.64 251.487 32.672 251.551 32.736C251.615 32.8 251.647 32.8853 251.647 32.992V36.784C251.914 36.432 252.261 36.1333 252.687 35.888C253.125 35.6427 253.674 35.52 254.335 35.52C254.965 35.52 255.493 35.632 255.919 35.856C256.346 36.08 256.693 36.3787 256.959 36.752C257.226 37.1253 257.423 37.5413 257.551 38C257.679 38.4587 257.749 38.9227 257.759 39.392C257.77 39.552 257.775 39.7013 257.775 39.84C257.775 39.9787 257.77 40.128 257.759 40.288C257.749 40.7573 257.679 41.2213 257.551 41.68C257.423 42.1387 257.226 42.5547 256.959 42.928C256.693 43.3013 256.346 43.6 255.919 43.824C255.493 44.048 254.965 44.16 254.335 44.16ZM254.239 43.232C254.869 43.232 255.365 43.0933 255.727 42.816C256.09 42.5387 256.351 42.176 256.511 41.728C256.671 41.28 256.762 40.8 256.783 40.288C256.794 39.9893 256.794 39.6907 256.783 39.392C256.762 38.88 256.671 38.4 256.511 37.952C256.351 37.504 256.09 37.1413 255.727 36.864C255.365 36.5867 254.869 36.448 254.239 36.448C253.653 36.448 253.167 36.5867 252.783 36.864C252.41 37.1413 252.127 37.488 251.935 37.904C251.754 38.32 251.658 38.7413 251.647 39.168C251.637 39.328 251.631 39.536 251.631 39.792C251.631 40.048 251.637 40.256 251.647 40.416C251.669 40.8533 251.765 41.2907 251.935 41.728C252.117 42.1547 252.394 42.512 252.767 42.8C253.141 43.088 253.631 43.232 254.239 43.232Z" fill="#4E4E4E"/>
<path d="M243.903 71C243.796 71 243.711 70.968 243.647 70.904C243.583 70.84 243.551 70.7547 243.551 70.648V60.152C243.551 60.0453 243.583 59.96 243.647 59.896C243.711 59.832 243.796 59.8 243.903 59.8H244.207C244.314 59.8 244.399 59.832 244.463 59.896C244.527 59.96 244.559 60.0453 244.559 60.152V70.04H250.079C250.196 70.04 250.287 70.072 250.351 70.136C250.415 70.2 250.447 70.2907 250.447 70.408V70.648C250.447 70.7547 250.415 70.84 250.351 70.904C250.287 70.968 250.196 71 250.079 71H243.903ZM251.565 72.344C251.479 72.344 251.405 72.312 251.34 72.248C251.277 72.184 251.245 72.1093 251.245 72.024C251.245 71.9707 251.261 71.9067 251.293 71.832L256.797 58.664C256.818 58.6213 256.855 58.5733 256.909 58.52C256.962 58.456 257.042 58.424 257.149 58.424H257.421C257.506 58.424 257.581 58.456 257.645 58.52C257.709 58.584 257.741 58.6587 257.741 58.744C257.741 58.7867 257.725 58.8507 257.693 58.936L252.189 72.104C252.178 72.1467 252.141 72.1947 252.077 72.248C252.023 72.312 251.943 72.344 251.837 72.344H251.565ZM259.184 71C259.077 71 258.992 70.968 258.928 70.904C258.864 70.84 258.832 70.7547 258.832 70.648V70.408C258.832 70.3013 258.859 70.2 258.912 70.104C258.976 69.9973 259.083 69.8747 259.232 69.736L263.376 65.592C263.781 65.2187 264.091 64.8933 264.304 64.616C264.517 64.3387 264.661 64.0667 264.736 63.8C264.821 63.5227 264.864 63.2187 264.864 62.888C264.864 62.1733 264.656 61.6133 264.24 61.208C263.835 60.8027 263.253 60.6 262.496 60.6C262.016 60.6 261.6 60.696 261.248 60.888C260.896 61.08 260.619 61.352 260.416 61.704C260.213 62.0453 260.08 62.4453 260.016 62.904C260.005 63.032 259.957 63.128 259.872 63.192C259.787 63.2453 259.712 63.272 259.648 63.272H259.328C259.221 63.272 259.136 63.2453 259.072 63.192C259.019 63.128 258.992 63.0533 258.992 62.968C259.003 62.6053 259.077 62.232 259.216 61.848C259.355 61.4533 259.563 61.0907 259.84 60.76C260.128 60.4293 260.491 60.1627 260.928 59.96C261.365 59.7467 261.888 59.64 262.496 59.64C263.307 59.64 263.957 59.7947 264.448 60.104C264.949 60.4133 265.312 60.8133 265.536 61.304C265.76 61.7947 265.872 62.3227 265.872 62.888C265.872 63.3253 265.808 63.7307 265.68 64.104C265.552 64.4667 265.36 64.824 265.104 65.176C264.848 65.5173 264.523 65.8693 264.128 66.232L260.384 70.04H265.744C265.861 70.04 265.952 70.072 266.016 70.136C266.08 70.2 266.112 70.2907 266.112 70.408V70.648C266.112 70.7547 266.08 70.84 266.016 70.904C265.952 70.968 265.861 71 265.744 71H259.184Z" fill="#4E4E4E"/>
</g>
<defs>
<filter id="filter0_d_45_174" x="0" y="0" width="394" height="129" filterUnits="userSpaceOnUse" color-interpolation-filters="sRGB">
<feFlood flood-opacity="0" result="BackgroundImageFix"/>
<feColorMatrix in="SourceAlpha" type="matrix" values="0 0 0 0 0 0 0 0 0 0 0 0 0 0 0 0 0 0 127 0" result="hardAlpha"/>
<feOffset dy="4"/>
<feGaussianBlur stdDeviation="2"/>
<feComposite in2="hardAlpha" operator="out"/>
<feColorMatrix type="matrix" values="0 0 0 0 0 0 0 0 0 0 0 0 0 0 0 0 0 0 0.25 0"/>
<feBlend mode="normal" in2="BackgroundImageFix" result="effect1_dropShadow_45_174"/>
<feBlend mode="normal" in="SourceGraphic" in2="effect1_dropShadow_45_174" result="shape"/>
</filter>
</defs>
</svg>
