<svg width="394" height="129" viewBox="0 0 394 129" fill="none" xmlns="http://www.w3.org/2000/svg">
<g filter="url(#filter0_d_45_20)">
<rect x="4" width="386" height="121" rx="5" fill="white"/>
<path d="M90 52L199 52L308 52" stroke="#252323"/>
<circle cx="86" cy="52" r="4" transform="rotate(-180 86 52)" fill="#CADEFC" stroke="black"/>
<circle cx="312" cy="52" r="4" transform="rotate(-180 312 52)" fill="#CADEFC" stroke="black"/>
<path d="M86 64L83.1132 69H88.8868L86 64ZM86.5 94V68.5H85.5V94H86.5Z" fill="#4E4E4E"/>
<path d="M99.8409 89C99.7023 89 99.5903 88.968 99.5049 88.904C99.4196 88.84 99.3503 88.744 99.2969 88.616L95.5849 78.296C95.5636 78.232 95.5529 78.1733 95.5529 78.12C95.5529 78.0347 95.5849 77.96 95.6489 77.896C95.7129 77.832 95.7876 77.8 95.8729 77.8H96.2089C96.3156 77.8 96.3956 77.832 96.4489 77.896C96.5129 77.9493 96.5503 77.9973 96.5609 78.04L100.065 87.832L103.569 78.04C103.59 77.9973 103.628 77.9493 103.681 77.896C103.734 77.832 103.814 77.8 103.921 77.8H104.257C104.342 77.8 104.417 77.832 104.481 77.896C104.545 77.96 104.577 78.0347 104.577 78.12C104.577 78.1733 104.566 78.232 104.545 78.296L100.833 88.616C100.79 88.744 100.726 88.84 100.641 88.904C100.556 88.968 100.438 89 100.289 89H99.8409ZM107.5 91.72C107.265 91.72 107.148 91.6027 107.148 91.368V87.352L106.14 88.104C106.065 88.1573 105.98 88.1787 105.884 88.168C105.788 88.1573 105.708 88.1093 105.644 88.024L105.532 87.864C105.468 87.7787 105.441 87.6933 105.452 87.608C105.473 87.512 105.521 87.432 105.596 87.368L107.132 86.232C107.239 86.1573 107.361 86.12 107.5 86.12H107.724C107.959 86.12 108.076 86.2373 108.076 86.472V91.368C108.076 91.6027 107.959 91.72 107.724 91.72H107.5Z" fill="#4E4E4E"/>
<path d="M38.6923 53C38.5856 53 38.495 52.968 38.4203 52.904C38.3563 52.84 38.3243 52.7547 38.3243 52.648V42.168C38.3243 42.0507 38.3563 41.96 38.4203 41.896C38.495 41.832 38.5856 41.8 38.6923 41.8H39.0923C39.199 41.8 39.279 41.8267 39.3323 41.88C39.3856 41.9333 39.4176 41.976 39.4283 42.008L43.0603 49.08L46.7083 42.008C46.7296 41.976 46.7616 41.9333 46.8043 41.88C46.8576 41.8267 46.9376 41.8 47.0443 41.8H47.4283C47.5456 41.8 47.6363 41.832 47.7003 41.896C47.7643 41.96 47.7963 42.0507 47.7963 42.168V52.648C47.7963 52.7547 47.7643 52.84 47.7003 52.904C47.6363 52.968 47.5456 53 47.4283 53H47.1403C47.0336 53 46.9483 52.968 46.8843 52.904C46.8203 52.84 46.7883 52.7547 46.7883 52.648V43.976L43.7323 49.992C43.6896 50.0987 43.6256 50.1787 43.5403 50.232C43.4656 50.2853 43.3643 50.312 43.2363 50.312H42.8843C42.7563 50.312 42.655 50.2853 42.5803 50.232C42.5056 50.1787 42.4416 50.0987 42.3883 49.992L39.3323 43.976V52.648C39.3323 52.7547 39.3003 52.84 39.2363 52.904C39.1723 52.968 39.087 53 38.9803 53H38.6923ZM51.6407 55.72C51.406 55.72 51.2887 55.6027 51.2887 55.368V51.352L50.2807 52.104C50.206 52.1573 50.1207 52.1787 50.0247 52.168C49.9287 52.1573 49.8487 52.1093 49.7847 52.024L49.6727 51.864C49.6087 51.7787 49.582 51.6933 49.5927 51.608C49.614 51.512 49.662 51.432 49.7367 51.368L51.2727 50.232C51.3794 50.1573 51.502 50.12 51.6407 50.12H51.8647C52.0994 50.12 52.2167 50.2373 52.2167 50.472V55.368C52.2167 55.6027 52.0994 55.72 51.8647 55.72H51.6407Z" fill="#4E4E4E"/>
<path d="M348.95 55C348.843 55 348.753 54.968 348.678 54.904C348.614 54.84 348.582 54.7547 348.582 54.648V44.168C348.582 44.0507 348.614 43.96 348.678 43.896C348.753 43.832 348.843 43.8 348.95 43.8H349.35C349.457 43.8 349.537 43.8267 349.59 43.88C349.643 43.9333 349.675 43.976 349.686 44.008L353.318 51.08L356.966 44.008C356.987 43.976 357.019 43.9333 357.062 43.88C357.115 43.8267 357.195 43.8 357.302 43.8H357.686C357.803 43.8 357.894 43.832 357.958 43.896C358.022 43.96 358.054 44.0507 358.054 44.168V54.648C358.054 54.7547 358.022 54.84 357.958 54.904C357.894 54.968 357.803 55 357.686 55H357.398C357.291 55 357.206 54.968 357.142 54.904C357.078 54.84 357.046 54.7547 357.046 54.648V45.976L353.99 51.992C353.947 52.0987 353.883 52.1787 353.798 52.232C353.723 52.2853 353.622 52.312 353.494 52.312H353.142C353.014 52.312 352.913 52.2853 352.838 52.232C352.763 52.1787 352.699 52.0987 352.646 51.992L349.59 45.976V54.648C349.59 54.7547 349.558 54.84 349.494 54.904C349.43 54.968 349.345 55 349.238 55H348.95ZM360.411 57.72C360.176 57.72 360.059 57.6027 360.059 57.368V57.096C360.059 57.0107 360.085 56.9253 360.139 56.84C360.192 56.7653 360.293 56.6747 360.443 56.568C361.125 56.0773 361.669 55.6827 362.075 55.384C362.491 55.096 362.789 54.8347 362.971 54.6C363.163 54.3653 363.259 54.104 363.259 53.816C363.259 53.5387 363.152 53.32 362.939 53.16C362.736 53 362.496 52.92 362.219 52.92C361.931 52.92 361.712 52.968 361.562 53.064C361.424 53.1493 361.323 53.2453 361.259 53.352C361.205 53.4587 361.163 53.544 361.131 53.608C361.067 53.7253 361.008 53.8053 360.955 53.848C360.901 53.88 360.832 53.896 360.747 53.896H360.507C360.293 53.896 360.197 53.7947 360.219 53.592C360.24 53.336 360.341 53.0907 360.523 52.856C360.704 52.6213 360.944 52.4293 361.243 52.28C361.541 52.12 361.867 52.04 362.219 52.04C362.827 52.04 363.307 52.2213 363.659 52.584C364.011 52.936 364.187 53.3467 364.187 53.816C364.187 54.2107 364.101 54.5573 363.931 54.856C363.76 55.144 363.488 55.4373 363.115 55.736C362.741 56.0453 362.251 56.408 361.643 56.824H364.075C364.309 56.824 364.427 56.9413 364.427 57.176V57.368C364.427 57.6027 364.309 57.72 364.075 57.72H360.411Z" fill="#4E4E4E"/>
<path d="M312 64L309.113 69H314.887L312 64ZM312.5 94V68.5H311.5V94H312.5Z" fill="#4E4E4E"/>
<path d="M292.099 89C291.96 89 291.848 88.968 291.763 88.904C291.677 88.84 291.608 88.744 291.555 88.616L287.843 78.296C287.821 78.232 287.811 78.1733 287.811 78.12C287.811 78.0347 287.843 77.96 287.907 77.896C287.971 77.832 288.045 77.8 288.131 77.8H288.467C288.573 77.8 288.653 77.832 288.707 77.896C288.771 77.9493 288.808 77.9973 288.819 78.04L292.323 87.832L295.827 78.04C295.848 77.9973 295.885 77.9493 295.939 77.896C295.992 77.832 296.072 77.8 296.179 77.8H296.515C296.6 77.8 296.675 77.832 296.739 77.896C296.803 77.96 296.835 78.0347 296.835 78.12C296.835 78.1733 296.824 78.232 296.803 78.296L293.091 88.616C293.048 88.744 292.984 88.84 292.899 88.904C292.813 88.968 292.696 89 292.547 89H292.099ZM298.27 91.72C298.035 91.72 297.918 91.6027 297.918 91.368V91.096C297.918 91.0107 297.945 90.9253 297.998 90.84C298.051 90.7653 298.153 90.6747 298.302 90.568C298.985 90.0773 299.529 89.6827 299.934 89.384C300.35 89.096 300.649 88.8347 300.83 88.6C301.022 88.3653 301.118 88.104 301.118 87.816C301.118 87.5387 301.011 87.32 300.798 87.16C300.595 87 300.355 86.92 300.078 86.92C299.79 86.92 299.571 86.968 299.422 87.064C299.283 87.1493 299.182 87.2453 299.118 87.352C299.065 87.4587 299.022 87.544 298.99 87.608C298.926 87.7253 298.867 87.8053 298.814 87.848C298.761 87.88 298.691 87.896 298.606 87.896H298.366C298.153 87.896 298.057 87.7947 298.078 87.592C298.099 87.336 298.201 87.0907 298.382 86.856C298.563 86.6213 298.803 86.4293 299.102 86.28C299.401 86.12 299.726 86.04 300.078 86.04C300.686 86.04 301.166 86.2213 301.518 86.584C301.87 86.936 302.046 87.3467 302.046 87.816C302.046 88.2107 301.961 88.5573 301.79 88.856C301.619 89.144 301.347 89.4373 300.974 89.736C300.601 90.0453 300.11 90.408 299.502 90.824H301.934C302.169 90.824 302.286 90.9413 302.286 91.176V91.368C302.286 91.6027 302.169 91.72 301.934 91.72H298.27Z" fill="#4E4E4E"/>
<path d="M90 32V48H308V32H90Z" stroke="#252323" stroke-width="0.5"/>
<path d="M99 32V48" stroke="#252323" stroke-width="0.5"/>
<path d="M109 32V48" stroke="#252323" stroke-width="0.5"/>
<path d="M119 32V48" stroke="#252323" stroke-width="0.5"/>
<path d="M129 32V48" stroke="#252323" stroke-width="0.5"/>
<path d="M139 32V48" stroke="#252323" stroke-width="0.5"/>
<path d="M149 32V48" stroke="#252323" stroke-width="0.5"/>
<path d="M159 32V48" stroke="#252323" stroke-width="0.5"/>
<path d="M169 32V48" stroke="#252323" stroke-width="0.5"/>
<path d="M179 32V48" stroke="#252323" stroke-width="0.5"/>
<path d="M189 32V48" stroke="#252323" stroke-width="0.5"/>
<path d="M199 32V48" stroke="#252323" stroke-width="0.5"/>
<path d="M209 32V48" stroke="#252323" stroke-width="0.5"/>
<path d="M219 32V48" stroke="#252323" stroke-width="0.5"/>
<path d="M229 32V48" stroke="#252323" stroke-width="0.5"/>
<path d="M239 32V48" stroke="#252323" stroke-width="0.5"/>
<path d="M249 32V48" stroke="#252323" stroke-width="0.5"/>
<path d="M259 32V48" stroke="#252323" stroke-width="0.5"/>
<path d="M269 32V48" stroke="#252323" stroke-width="0.5"/>
<path d="M279 32V48" stroke="#252323" stroke-width="0.5"/>
<path d="M289 32V48" stroke="#252323" stroke-width="0.5"/>
<path d="M299 32V48" stroke="#252323" stroke-width="0.5"/>
<path d="M194.135 26C194.007 26 193.906 25.9733 193.831 25.92C193.767 25.856 193.719 25.7547 193.687 25.616L191.495 15.312C191.485 15.2693 191.474 15.232 191.463 15.2C191.463 15.1573 191.463 15.1307 191.463 15.12C191.463 15.0347 191.495 14.96 191.559 14.896C191.623 14.832 191.698 14.8 191.783 14.8H192.119C192.322 14.8 192.439 14.88 192.471 15.04L194.343 24.16L196.327 17.648C196.359 17.552 196.413 17.4667 196.487 17.392C196.573 17.3173 196.685 17.28 196.823 17.28H197.175C197.325 17.28 197.437 17.3173 197.511 17.392C197.586 17.4667 197.639 17.552 197.671 17.648L199.655 24.16L201.527 15.04C201.559 14.88 201.677 14.8 201.879 14.8H202.215C202.301 14.8 202.375 14.832 202.439 14.896C202.503 14.96 202.535 15.0347 202.535 15.12C202.535 15.1307 202.53 15.1573 202.519 15.2C202.519 15.232 202.514 15.2693 202.503 15.312L200.311 25.616C200.279 25.7547 200.226 25.856 200.151 25.92C200.087 25.9733 199.991 26 199.863 26H199.623C199.495 26 199.389 25.968 199.303 25.904C199.229 25.84 199.17 25.744 199.127 25.616L196.999 18.864L194.871 25.616C194.829 25.744 194.765 25.84 194.679 25.904C194.605 25.968 194.503 26 194.375 26H194.135Z" fill="#4E4E4E"/>
<path d="M194.473 71C194.367 71 194.281 70.968 194.217 70.904C194.153 70.84 194.121 70.7547 194.121 70.648V60.152C194.121 60.0453 194.153 59.96 194.217 59.896C194.281 59.832 194.367 59.8 194.473 59.8H194.777C194.884 59.8 194.969 59.832 195.033 59.896C195.097 59.96 195.129 60.0453 195.129 60.152V70.04H200.649C200.767 70.04 200.857 70.072 200.921 70.136C200.985 70.2 201.017 70.2907 201.017 70.408V70.648C201.017 70.7547 200.985 70.84 200.921 70.904C200.857 70.968 200.767 71 200.649 71H194.473Z" fill="#4E4E4E"/>
<path d="M73.6152 37.8347L68.4847 35.1869L68.7568 40.954L73.6152 37.8347ZM70.0024 63.3741C64.2883 62.3005 61.6827 56.9338 61.76 51.2711C61.7984 48.4539 62.508 45.6198 63.7995 43.3119C65.0909 41.0042 66.9463 39.2507 69.2692 38.5241L68.9706 37.5697C66.3432 38.3917 64.3081 40.3554 62.9269 42.8235C61.5458 45.2913 60.8006 48.2916 60.7601 51.2574C60.6795 57.1607 63.4192 63.1547 69.8177 64.3569L70.0024 63.3741Z" fill="#4E4E4E"/>
<path d="M327.235 63.0308L332.366 65.6787L332.094 59.9116L327.235 63.0308ZM330.848 37.4914C336.562 38.5651 339.168 43.9317 339.091 49.5945C339.052 52.4116 338.343 55.2457 337.051 57.5537C335.76 59.8613 333.904 61.6148 331.582 62.3415L331.88 63.2959C334.508 62.4739 336.543 60.5102 337.924 58.042C339.305 55.5742 340.05 52.574 340.091 49.6081C340.171 43.7049 337.431 37.7109 331.033 36.5086L330.848 37.4914Z" fill="#4E4E4E"/>
</g>
<defs>
<filter id="filter0_d_45_20" x="0" y="0" width="394" height="129" filterUnits="userSpaceOnUse" color-interpolation-filters="sRGB">
<feFlood flood-opacity="0" result="BackgroundImageFix"/>
<feColorMatrix in="SourceAlpha" type="matrix" values="0 0 0 0 0 0 0 0 0 0 0 0 0 0 0 0 0 0 127 0" result="hardAlpha"/>
<feOffset dy="4"/>
<feGaussianBlur stdDeviation="2"/>
<feComposite in2="hardAlpha" operator="out"/>
<feColorMatrix type="matrix" values="0 0 0 0 0 0 0 0 0 0 0 0 0 0 0 0 0 0 0.25 0"/>
<feBlend mode="normal" in2="BackgroundImageFix" result="effect1_dropShadow_45_20"/>
<feBlend mode="normal" in="SourceGraphic" in2="effect1_dropShadow_45_20" result="shape"/>
</filter>
</defs>
</svg>
