<svg width="394" height="129" viewBox="0 0 394 129" fill="none" xmlns="http://www.w3.org/2000/svg">
<g filter="url(#filter0_d_446_212)">
<rect x="4" width="386" height="121" rx="5" fill="white"/>
<path d="M88 68L197 68L306 68" stroke="#252323"/>
<circle cx="84" cy="68" r="4" transform="rotate(-180 84 68)" fill="#CADEFC" stroke="black"/>
<circle cx="310" cy="68" r="4" transform="rotate(-180 310 68)" fill="#CADEFC" stroke="black"/>
<path d="M65.7451 90C65.6064 90 65.4997 89.968 65.4251 89.904C65.3504 89.84 65.2864 89.7387 65.2331 89.6L62.9771 82.176C62.9557 82.112 62.9451 82.0533 62.9451 82C62.9451 81.9147 62.9771 81.84 63.0411 81.776C63.1051 81.712 63.1797 81.68 63.2651 81.68H63.5691C63.6757 81.68 63.7557 81.712 63.8091 81.776C63.8731 81.8293 63.9104 81.8773 63.9211 81.92L65.8891 88.576L67.9851 82C68.0064 81.936 68.0491 81.8667 68.1131 81.792C68.1771 81.7173 68.2784 81.68 68.4171 81.68H68.7371C68.8757 81.68 68.9771 81.7173 69.0411 81.792C69.1157 81.8667 69.1584 81.936 69.1691 82L71.2651 88.576L73.2331 81.92C73.2437 81.8773 73.2757 81.8293 73.3291 81.776C73.3931 81.712 73.4784 81.68 73.5851 81.68H73.8891C73.9744 81.68 74.0491 81.712 74.1131 81.776C74.1771 81.84 74.2091 81.9147 74.2091 82C74.2091 82.0533 74.1984 82.112 74.1771 82.176L71.9211 89.6C71.8784 89.7387 71.8197 89.84 71.7451 89.904C71.6704 89.968 71.5584 90 71.4091 90H71.1371C70.9984 90 70.8811 89.968 70.7851 89.904C70.6997 89.84 70.6357 89.7387 70.5931 89.6L68.5771 83.296L66.5611 89.6C66.5184 89.7387 66.4544 89.84 66.3691 89.904C66.2837 89.968 66.1664 90 66.0171 90H65.7451ZM76.5312 90C76.4245 90 76.3392 89.968 76.2752 89.904C76.2112 89.84 76.1792 89.7547 76.1792 89.648V78.992C76.1792 78.8853 76.2112 78.8 76.2752 78.736C76.3392 78.672 76.4245 78.64 76.5312 78.64H76.8032C76.9099 78.64 76.9952 78.672 77.0592 78.736C77.1232 78.8 77.1552 78.8853 77.1552 78.992V89.648C77.1552 89.7547 77.1232 89.84 77.0592 89.904C76.9952 89.968 76.9099 90 76.8032 90H76.5312ZM84.1539 83.664C84.0473 83.664 83.9619 83.632 83.8979 83.568C83.8339 83.504 83.8019 83.4187 83.8019 83.312V83.088C83.8019 82.9813 83.8339 82.896 83.8979 82.832C83.9619 82.768 84.0473 82.736 84.1539 82.736H90.1539C90.2606 82.736 90.3459 82.768 90.4099 82.832C90.4739 82.896 90.5059 82.9813 90.5059 83.088V83.312C90.5059 83.4187 90.4739 83.504 90.4099 83.568C90.3459 83.632 90.2606 83.664 90.1539 83.664H84.1539ZM84.1539 87.664C84.0473 87.664 83.9619 87.632 83.8979 87.568C83.8339 87.504 83.8019 87.4187 83.8019 87.312V87.088C83.8019 86.9813 83.8339 86.896 83.8979 86.832C83.9619 86.768 84.0473 86.736 84.1539 86.736H90.1539C90.2606 86.736 90.3459 86.768 90.4099 86.832C90.4739 86.896 90.5059 86.9813 90.5059 87.088V87.312C90.5059 87.4187 90.4739 87.504 90.4099 87.568C90.3459 87.632 90.2606 87.664 90.1539 87.664H84.1539ZM100.78 90.16C100.054 90.16 99.4462 90.0427 98.9556 89.808C98.4756 89.5733 98.0862 89.2533 97.7876 88.848C97.4996 88.432 97.2916 87.9573 97.1636 87.424C97.0356 86.8907 96.9609 86.3307 96.9396 85.744C96.9396 85.456 96.9342 85.1627 96.9236 84.864C96.9236 84.5653 96.9236 84.2667 96.9236 83.968C96.9342 83.6587 96.9396 83.3547 96.9396 83.056C96.9502 82.4693 97.0196 81.9093 97.1476 81.376C97.2862 80.8427 97.4996 80.3733 97.7876 79.968C98.0862 79.552 98.4756 79.2267 98.9556 78.992C99.4462 78.7573 100.054 78.64 100.78 78.64C101.505 78.64 102.108 78.7573 102.588 78.992C103.078 79.2267 103.468 79.552 103.756 79.968C104.054 80.3733 104.268 80.8427 104.396 81.376C104.534 81.9093 104.609 82.4693 104.62 83.056C104.63 83.3547 104.636 83.6587 104.636 83.968C104.636 84.2667 104.636 84.5653 104.636 84.864C104.636 85.1627 104.63 85.456 104.62 85.744C104.609 86.3307 104.534 86.8907 104.396 87.424C104.268 87.9573 104.054 88.432 103.756 88.848C103.468 89.2533 103.078 89.5733 102.588 89.808C102.108 90.0427 101.505 90.16 100.78 90.16ZM100.78 89.2C101.729 89.2 102.433 88.8853 102.892 88.256C103.35 87.6267 103.59 86.7627 103.612 85.664C103.622 85.3547 103.628 85.0667 103.628 84.8C103.628 84.5227 103.628 84.2507 103.628 83.984C103.628 83.7067 103.622 83.424 103.612 83.136C103.59 82.0587 103.35 81.2 102.892 80.56C102.433 79.92 101.729 79.6 100.78 79.6C99.8409 79.6 99.1369 79.92 98.6676 80.56C98.2089 81.2 97.9689 82.0587 97.9476 83.136C97.9476 83.424 97.9422 83.7067 97.9316 83.984C97.9316 84.2507 97.9316 84.5227 97.9316 84.8C97.9422 85.0667 97.9476 85.3547 97.9476 85.664C97.9689 86.7627 98.2089 87.6267 98.6676 88.256C99.1369 88.8853 99.8409 89.2 100.78 89.2Z" fill="#4E4E4E"/>
<path d="M289.581 90C289.442 90 289.336 89.968 289.261 89.904C289.186 89.84 289.122 89.7387 289.069 89.6L286.813 82.176C286.792 82.112 286.781 82.0533 286.781 82C286.781 81.9147 286.813 81.84 286.877 81.776C286.941 81.712 287.016 81.68 287.101 81.68H287.405C287.512 81.68 287.592 81.712 287.645 81.776C287.709 81.8293 287.746 81.8773 287.757 81.92L289.725 88.576L291.821 82C291.842 81.936 291.885 81.8667 291.949 81.792C292.013 81.7173 292.114 81.68 292.253 81.68H292.573C292.712 81.68 292.813 81.7173 292.877 81.792C292.952 81.8667 292.994 81.936 293.005 82L295.101 88.576L297.069 81.92C297.08 81.8773 297.112 81.8293 297.165 81.776C297.229 81.712 297.314 81.68 297.421 81.68H297.725C297.81 81.68 297.885 81.712 297.949 81.776C298.013 81.84 298.045 81.9147 298.045 82C298.045 82.0533 298.034 82.112 298.013 82.176L295.757 89.6C295.714 89.7387 295.656 89.84 295.581 89.904C295.506 89.968 295.394 90 295.245 90H294.973C294.834 90 294.717 89.968 294.621 89.904C294.536 89.84 294.472 89.7387 294.429 89.6L292.413 83.296L290.397 89.6C290.354 89.7387 290.29 89.84 290.205 89.904C290.12 89.968 290.002 90 289.853 90H289.581ZM300.351 90C300.244 90 300.159 89.968 300.095 89.904C300.031 89.84 299.999 89.7547 299.999 89.648V82.048C299.999 81.9413 300.031 81.856 300.095 81.792C300.159 81.7173 300.244 81.68 300.351 81.68H300.607C300.714 81.68 300.799 81.7173 300.863 81.792C300.938 81.856 300.975 81.9413 300.975 82.048V82.784C301.167 82.4107 301.444 82.1333 301.807 81.952C302.17 81.7707 302.618 81.68 303.151 81.68H303.743C303.85 81.68 303.935 81.712 303.999 81.776C304.063 81.84 304.095 81.9253 304.095 82.032V82.256C304.095 82.3627 304.063 82.448 303.999 82.512C303.935 82.576 303.85 82.608 303.743 82.608H303.055C302.415 82.608 301.908 82.7947 301.535 83.168C301.162 83.5413 300.975 84.048 300.975 84.688V89.648C300.975 89.7547 300.938 89.84 300.863 89.904C300.799 89.968 300.714 90 300.607 90H300.351ZM309.568 83.664C309.461 83.664 309.376 83.632 309.312 83.568C309.248 83.504 309.216 83.4187 309.216 83.312V83.088C309.216 82.9813 309.248 82.896 309.312 82.832C309.376 82.768 309.461 82.736 309.568 82.736H315.568C315.675 82.736 315.76 82.768 315.824 82.832C315.888 82.896 315.92 82.9813 315.92 83.088V83.312C315.92 83.4187 315.888 83.504 315.824 83.568C315.76 83.632 315.675 83.664 315.568 83.664H309.568ZM309.568 87.664C309.461 87.664 309.376 87.632 309.312 87.568C309.248 87.504 309.216 87.4187 309.216 87.312V87.088C309.216 86.9813 309.248 86.896 309.312 86.832C309.376 86.768 309.461 86.736 309.568 86.736H315.568C315.675 86.736 315.76 86.768 315.824 86.832C315.888 86.896 315.92 86.9813 315.92 87.088V87.312C315.92 87.4187 315.888 87.504 315.824 87.568C315.76 87.632 315.675 87.664 315.568 87.664H309.568ZM324.706 90C324.578 90 324.476 89.9733 324.402 89.92C324.338 89.856 324.29 89.7547 324.258 89.616L322.066 79.312C322.055 79.2693 322.044 79.232 322.034 79.2C322.034 79.1573 322.034 79.1307 322.034 79.12C322.034 79.0347 322.066 78.96 322.13 78.896C322.194 78.832 322.268 78.8 322.354 78.8H322.69C322.892 78.8 323.01 78.88 323.042 79.04L324.914 88.16L326.898 81.648C326.93 81.552 326.983 81.4667 327.058 81.392C327.143 81.3173 327.255 81.28 327.394 81.28H327.746C327.895 81.28 328.007 81.3173 328.082 81.392C328.156 81.4667 328.21 81.552 328.242 81.648L330.226 88.16L332.098 79.04C332.13 78.88 332.247 78.8 332.45 78.8H332.786C332.871 78.8 332.946 78.832 333.01 78.896C333.074 78.96 333.106 79.0347 333.106 79.12C333.106 79.1307 333.1 79.1573 333.09 79.2C333.09 79.232 333.084 79.2693 333.074 79.312L330.882 89.616C330.85 89.7547 330.796 89.856 330.722 89.92C330.658 89.9733 330.562 90 330.434 90H330.194C330.066 90 329.959 89.968 329.874 89.904C329.799 89.84 329.74 89.744 329.698 89.616L327.57 82.864L325.442 89.616C325.399 89.744 325.335 89.84 325.25 89.904C325.175 89.968 325.074 90 324.946 90H324.706Z" fill="#4E4E4E"/>
<path d="M306 29V64H88L306 29Z" stroke="#252323" stroke-width="0.5"/>
<path d="M297 30.4442L297 64" stroke="#252323" stroke-width="0.5"/>
<path d="M287 32V64" stroke="#252323" stroke-width="0.5"/>
<path d="M277 33.5V64" stroke="#252323" stroke-width="0.5"/>
<path d="M267 35.2677V64" stroke="#252323" stroke-width="0.5"/>
<path d="M257 37V64" stroke="#252323" stroke-width="0.5"/>
<path d="M247 38.5V64" stroke="#252323" stroke-width="0.5"/>
<path d="M237 40V64" stroke="#252323" stroke-width="0.5"/>
<path d="M227 41.5L227 64" stroke="#252323" stroke-width="0.5"/>
<path d="M217 43.5V64" stroke="#252323" stroke-width="0.5"/>
<path d="M207 45V64" stroke="#252323" stroke-width="0.5"/>
<path d="M197 46.5V64" stroke="#252323" stroke-width="0.5"/>
<path d="M187 48V64" stroke="#252323" stroke-width="0.5"/>
<path d="M177 49.5V64" stroke="#252323" stroke-width="0.5"/>
<path d="M167 51.5V64" stroke="#252323" stroke-width="0.5"/>
<path d="M157 53V64" stroke="#252323" stroke-width="0.5"/>
<path d="M147 54.5V64" stroke="#252323" stroke-width="0.5"/>
<path d="M137 56V64" stroke="#252323" stroke-width="0.5"/>
<path d="M127 57.7148V64" stroke="#252323" stroke-width="0.5"/>
<path d="M117 59.5V64" stroke="#252323" stroke-width="0.5"/>
<path d="M107 61V64" stroke="#252323" stroke-width="0.5"/>
<path d="M97 62.5V64" stroke="#252323" stroke-width="0.5"/>
</g>
<defs>
<filter id="filter0_d_446_212" x="0" y="0" width="394" height="129" filterUnits="userSpaceOnUse" color-interpolation-filters="sRGB">
<feFlood flood-opacity="0" result="BackgroundImageFix"/>
<feColorMatrix in="SourceAlpha" type="matrix" values="0 0 0 0 0 0 0 0 0 0 0 0 0 0 0 0 0 0 127 0" result="hardAlpha"/>
<feOffset dy="4"/>
<feGaussianBlur stdDeviation="2"/>
<feComposite in2="hardAlpha" operator="out"/>
<feColorMatrix type="matrix" values="0 0 0 0 0 0 0 0 0 0 0 0 0 0 0 0 0 0 0.25 0"/>
<feBlend mode="normal" in2="BackgroundImageFix" result="effect1_dropShadow_446_212"/>
<feBlend mode="normal" in="SourceGraphic" in2="effect1_dropShadow_446_212" result="shape"/>
</filter>
</defs>
</svg>
