<svg width="394" height="129" viewBox="0 0 394 129" fill="none" xmlns="http://www.w3.org/2000/svg">
<g filter="url(#filter0_d_446_174)">
<rect x="4" width="386" height="121" rx="5" fill="white"/>
<path d="M88 68L197 68L306 68" stroke="#252323"/>
<circle cx="84" cy="68" r="4" transform="rotate(-180 84 68)" fill="#CADEFC" stroke="black"/>
<circle cx="310" cy="68" r="4" transform="rotate(-180 310 68)" fill="#CADEFC" stroke="black"/>
<path d="M88 29V64H306L88 29Z" stroke="#252323" stroke-width="0.5"/>
<path d="M97 30.4442L97 64" stroke="#252323" stroke-width="0.5"/>
<path d="M107 32V64" stroke="#252323" stroke-width="0.5"/>
<path d="M117 33.5V64" stroke="#252323" stroke-width="0.5"/>
<path d="M127 35.2677V64" stroke="#252323" stroke-width="0.5"/>
<path d="M137 37V64" stroke="#252323" stroke-width="0.5"/>
<path d="M147 38.5V64" stroke="#252323" stroke-width="0.5"/>
<path d="M157 40V64" stroke="#252323" stroke-width="0.5"/>
<path d="M167 41.5L167 64" stroke="#252323" stroke-width="0.5"/>
<path d="M177 43.5V64" stroke="#252323" stroke-width="0.5"/>
<path d="M187 45V64" stroke="#252323" stroke-width="0.5"/>
<path d="M197 46.5V64" stroke="#252323" stroke-width="0.5"/>
<path d="M207 48V64" stroke="#252323" stroke-width="0.5"/>
<path d="M217 49.5V64" stroke="#252323" stroke-width="0.5"/>
<path d="M227 51.5V64" stroke="#252323" stroke-width="0.5"/>
<path d="M237 53V64" stroke="#252323" stroke-width="0.5"/>
<path d="M247 54.5V64" stroke="#252323" stroke-width="0.5"/>
<path d="M257 56V64" stroke="#252323" stroke-width="0.5"/>
<path d="M267 57.7148V64" stroke="#252323" stroke-width="0.5"/>
<path d="M277 59.5V64" stroke="#252323" stroke-width="0.5"/>
<path d="M287 61V64" stroke="#252323" stroke-width="0.5"/>
<path d="M297 62.5V64" stroke="#252323" stroke-width="0.5"/>
<path d="M64.3701 90C64.2314 90 64.1247 89.968 64.0501 89.904C63.9754 89.84 63.9114 89.7387 63.8581 89.6L61.6021 82.176C61.5807 82.112 61.5701 82.0533 61.5701 82C61.5701 81.9147 61.6021 81.84 61.6661 81.776C61.7301 81.712 61.8047 81.68 61.8901 81.68H62.1941C62.3007 81.68 62.3807 81.712 62.4341 81.776C62.4981 81.8293 62.5354 81.8773 62.5461 81.92L64.5141 88.576L66.6101 82C66.6314 81.936 66.6741 81.8667 66.7381 81.792C66.8021 81.7173 66.9034 81.68 67.0421 81.68H67.3621C67.5007 81.68 67.6021 81.7173 67.6661 81.792C67.7407 81.8667 67.7834 81.936 67.7941 82L69.8901 88.576L71.8581 81.92C71.8687 81.8773 71.9007 81.8293 71.9541 81.776C72.0181 81.712 72.1034 81.68 72.2101 81.68H72.5141C72.5994 81.68 72.6741 81.712 72.7381 81.776C72.8021 81.84 72.8341 81.9147 72.8341 82C72.8341 82.0533 72.8234 82.112 72.8021 82.176L70.5461 89.6C70.5034 89.7387 70.4447 89.84 70.3701 89.904C70.2954 89.968 70.1834 90 70.0341 90H69.7621C69.6234 90 69.5061 89.968 69.4101 89.904C69.3247 89.84 69.2607 89.7387 69.2181 89.6L67.2021 83.296L65.1861 89.6C65.1434 89.7387 65.0794 89.84 64.9941 89.904C64.9087 89.968 64.7914 90 64.6421 90H64.3701ZM75.1562 90C75.0495 90 74.9642 89.968 74.9002 89.904C74.8362 89.84 74.8042 89.7547 74.8042 89.648V78.992C74.8042 78.8853 74.8362 78.8 74.9002 78.736C74.9642 78.672 75.0495 78.64 75.1562 78.64H75.4282C75.5349 78.64 75.6202 78.672 75.6842 78.736C75.7482 78.8 75.7802 78.8853 75.7802 78.992V89.648C75.7802 89.7547 75.7482 89.84 75.6842 89.904C75.6202 89.968 75.5349 90 75.4282 90H75.1562ZM82.7789 83.664C82.6723 83.664 82.5869 83.632 82.5229 83.568C82.4589 83.504 82.4269 83.4187 82.4269 83.312V83.088C82.4269 82.9813 82.4589 82.896 82.5229 82.832C82.5869 82.768 82.6723 82.736 82.7789 82.736H88.7789C88.8856 82.736 88.9709 82.768 89.0349 82.832C89.0989 82.896 89.1309 82.9813 89.1309 83.088V83.312C89.1309 83.4187 89.0989 83.504 89.0349 83.568C88.9709 83.632 88.8856 83.664 88.7789 83.664H82.7789ZM82.7789 87.664C82.6723 87.664 82.5869 87.632 82.5229 87.568C82.4589 87.504 82.4269 87.4187 82.4269 87.312V87.088C82.4269 86.9813 82.4589 86.896 82.5229 86.832C82.5869 86.768 82.6723 86.736 82.7789 86.736H88.7789C88.8856 86.736 88.9709 86.768 89.0349 86.832C89.0989 86.896 89.1309 86.9813 89.1309 87.088V87.312C89.1309 87.4187 89.0989 87.504 89.0349 87.568C88.9709 87.632 88.8856 87.664 88.7789 87.664H82.7789ZM97.9166 90C97.7886 90 97.6872 89.9733 97.6126 89.92C97.5486 89.856 97.5006 89.7547 97.4686 89.616L95.2766 79.312C95.2659 79.2693 95.2552 79.232 95.2446 79.2C95.2446 79.1573 95.2446 79.1307 95.2446 79.12C95.2446 79.0347 95.2766 78.96 95.3406 78.896C95.4046 78.832 95.4792 78.8 95.5646 78.8H95.9006C96.1032 78.8 96.2206 78.88 96.2526 79.04L98.1246 88.16L100.109 81.648C100.141 81.552 100.194 81.4667 100.269 81.392C100.354 81.3173 100.466 81.28 100.605 81.28H100.957C101.106 81.28 101.218 81.3173 101.293 81.392C101.367 81.4667 101.421 81.552 101.453 81.648L103.437 88.16L105.309 79.04C105.341 78.88 105.458 78.8 105.661 78.8H105.997C106.082 78.8 106.157 78.832 106.221 78.896C106.285 78.96 106.317 79.0347 106.317 79.12C106.317 79.1307 106.311 79.1573 106.301 79.2C106.301 79.232 106.295 79.2693 106.285 79.312L104.093 89.616C104.061 89.7547 104.007 89.856 103.933 89.92C103.869 89.9733 103.773 90 103.645 90H103.405C103.277 90 103.17 89.968 103.085 89.904C103.01 89.84 102.951 89.744 102.909 89.616L100.781 82.864L98.6526 89.616C98.6099 89.744 98.5459 89.84 98.4606 89.904C98.3859 89.968 98.2846 90 98.1566 90H97.9166Z" fill="#4E4E4E"/>
<path d="M290.956 90C290.817 90 290.711 89.968 290.636 89.904C290.561 89.84 290.497 89.7387 290.444 89.6L288.188 82.176C288.167 82.112 288.156 82.0533 288.156 82C288.156 81.9147 288.188 81.84 288.252 81.776C288.316 81.712 288.391 81.68 288.476 81.68H288.78C288.887 81.68 288.967 81.712 289.02 81.776C289.084 81.8293 289.121 81.8773 289.132 81.92L291.1 88.576L293.196 82C293.217 81.936 293.26 81.8667 293.324 81.792C293.388 81.7173 293.489 81.68 293.628 81.68H293.948C294.087 81.68 294.188 81.7173 294.252 81.792C294.327 81.8667 294.369 81.936 294.38 82L296.476 88.576L298.444 81.92C298.455 81.8773 298.487 81.8293 298.54 81.776C298.604 81.712 298.689 81.68 298.796 81.68H299.1C299.185 81.68 299.26 81.712 299.324 81.776C299.388 81.84 299.42 81.9147 299.42 82C299.42 82.0533 299.409 82.112 299.388 82.176L297.132 89.6C297.089 89.7387 297.031 89.84 296.956 89.904C296.881 89.968 296.769 90 296.62 90H296.348C296.209 90 296.092 89.968 295.996 89.904C295.911 89.84 295.847 89.7387 295.804 89.6L293.788 83.296L291.772 89.6C291.729 89.7387 291.665 89.84 291.58 89.904C291.495 89.968 291.377 90 291.228 90H290.956ZM301.726 90C301.619 90 301.534 89.968 301.47 89.904C301.406 89.84 301.374 89.7547 301.374 89.648V82.048C301.374 81.9413 301.406 81.856 301.47 81.792C301.534 81.7173 301.619 81.68 301.726 81.68H301.982C302.089 81.68 302.174 81.7173 302.238 81.792C302.313 81.856 302.35 81.9413 302.35 82.048V82.784C302.542 82.4107 302.819 82.1333 303.182 81.952C303.545 81.7707 303.993 81.68 304.526 81.68H305.118C305.225 81.68 305.31 81.712 305.374 81.776C305.438 81.84 305.47 81.9253 305.47 82.032V82.256C305.47 82.3627 305.438 82.448 305.374 82.512C305.31 82.576 305.225 82.608 305.118 82.608H304.43C303.79 82.608 303.283 82.7947 302.91 83.168C302.537 83.5413 302.35 84.048 302.35 84.688V89.648C302.35 89.7547 302.313 89.84 302.238 89.904C302.174 89.968 302.089 90 301.982 90H301.726ZM310.943 83.664C310.836 83.664 310.751 83.632 310.687 83.568C310.623 83.504 310.591 83.4187 310.591 83.312V83.088C310.591 82.9813 310.623 82.896 310.687 82.832C310.751 82.768 310.836 82.736 310.943 82.736H316.943C317.05 82.736 317.135 82.768 317.199 82.832C317.263 82.896 317.295 82.9813 317.295 83.088V83.312C317.295 83.4187 317.263 83.504 317.199 83.568C317.135 83.632 317.05 83.664 316.943 83.664H310.943ZM310.943 87.664C310.836 87.664 310.751 87.632 310.687 87.568C310.623 87.504 310.591 87.4187 310.591 87.312V87.088C310.591 86.9813 310.623 86.896 310.687 86.832C310.751 86.768 310.836 86.736 310.943 86.736H316.943C317.05 86.736 317.135 86.768 317.199 86.832C317.263 86.896 317.295 86.9813 317.295 87.088V87.312C317.295 87.4187 317.263 87.504 317.199 87.568C317.135 87.632 317.05 87.664 316.943 87.664H310.943ZM327.569 90.16C326.843 90.16 326.235 90.0427 325.745 89.808C325.265 89.5733 324.875 89.2533 324.577 88.848C324.289 88.432 324.081 87.9573 323.953 87.424C323.825 86.8907 323.75 86.3307 323.729 85.744C323.729 85.456 323.723 85.1627 323.713 84.864C323.713 84.5653 323.713 84.2667 323.713 83.968C323.723 83.6587 323.729 83.3547 323.729 83.056C323.739 82.4693 323.809 81.9093 323.937 81.376C324.075 80.8427 324.289 80.3733 324.577 79.968C324.875 79.552 325.265 79.2267 325.745 78.992C326.235 78.7573 326.843 78.64 327.569 78.64C328.294 78.64 328.897 78.7573 329.377 78.992C329.867 79.2267 330.257 79.552 330.545 79.968C330.843 80.3733 331.057 80.8427 331.185 81.376C331.323 81.9093 331.398 82.4693 331.409 83.056C331.419 83.3547 331.425 83.6587 331.425 83.968C331.425 84.2667 331.425 84.5653 331.425 84.864C331.425 85.1627 331.419 85.456 331.409 85.744C331.398 86.3307 331.323 86.8907 331.185 87.424C331.057 87.9573 330.843 88.432 330.545 88.848C330.257 89.2533 329.867 89.5733 329.377 89.808C328.897 90.0427 328.294 90.16 327.569 90.16ZM327.569 89.2C328.518 89.2 329.222 88.8853 329.681 88.256C330.139 87.6267 330.379 86.7627 330.401 85.664C330.411 85.3547 330.417 85.0667 330.417 84.8C330.417 84.5227 330.417 84.2507 330.417 83.984C330.417 83.7067 330.411 83.424 330.401 83.136C330.379 82.0587 330.139 81.2 329.681 80.56C329.222 79.92 328.518 79.6 327.569 79.6C326.63 79.6 325.926 79.92 325.457 80.56C324.998 81.2 324.758 82.0587 324.737 83.136C324.737 83.424 324.731 83.7067 324.721 83.984C324.721 84.2507 324.721 84.5227 324.721 84.8C324.731 85.0667 324.737 85.3547 324.737 85.664C324.758 86.7627 324.998 87.6267 325.457 88.256C325.926 88.8853 326.63 89.2 327.569 89.2Z" fill="#4E4E4E"/>
</g>
<defs>
<filter id="filter0_d_446_174" x="0" y="0" width="394" height="129" filterUnits="userSpaceOnUse" color-interpolation-filters="sRGB">
<feFlood flood-opacity="0" result="BackgroundImageFix"/>
<feColorMatrix in="SourceAlpha" type="matrix" values="0 0 0 0 0 0 0 0 0 0 0 0 0 0 0 0 0 0 127 0" result="hardAlpha"/>
<feOffset dy="4"/>
<feGaussianBlur stdDeviation="2"/>
<feComposite in2="hardAlpha" operator="out"/>
<feColorMatrix type="matrix" values="0 0 0 0 0 0 0 0 0 0 0 0 0 0 0 0 0 0 0.25 0"/>
<feBlend mode="normal" in2="BackgroundImageFix" result="effect1_dropShadow_446_174"/>
<feBlend mode="normal" in="SourceGraphic" in2="effect1_dropShadow_446_174" result="shape"/>
</filter>
</defs>
</svg>
