<svg width="100" height="85" viewBox="0 0 100 85" fill="none" xmlns="http://www.w3.org/2000/svg">
<rect width="100" height="84" fill="#334155"/>
<path d="M28 10L29 15V17.5V21C29 31 26 30.5 26 44V75" stroke="white" stroke-width="2" stroke-linecap="square"/>
<path d="M77 9.5L77.5 17C77.5 27 74 30.5 74 44V75" stroke="white" stroke-width="2" stroke-linecap="square"/>
<path d="M28 10L35.5 8.5C40 7.5 44 8.75 56.25 8.75C65 8.75 65.5 10 77 9" stroke="white" stroke-width="2" stroke-linecap="round"/>
<path d="M26 10C26 8.89543 26.8954 8 28 8C29.1046 8 30 8.89543 30 10C30 11.1046 29.1046 12 28 12C26.8954 12 26 11.1046 26 10Z" fill="#A3A9B2" stroke="#334155"/>
<path d="M75 9C75 7.89543 75.8954 7 77 7C78.1046 7 79 7.89543 79 9C79 10.1046 78.1046 11 77 11C75.8954 11 75 10.1046 75 9Z" fill="#A3A9B2" stroke="#334155"/>
<g filter="url(#filter0_d_308_67)">
<path d="M17 76H35" stroke="#A3A9B2" stroke-linecap="square"/>
</g>
<g filter="url(#filter1_d_308_67)">
<path d="M65 76L83 76" stroke="#A3A9B2" stroke-linecap="square"/>
</g>
<defs>
<filter id="filter0_d_308_67" x="12.5" y="75.5" width="27" height="9" filterUnits="userSpaceOnUse" color-interpolation-filters="sRGB">
<feFlood flood-opacity="0" result="BackgroundImageFix"/>
<feColorMatrix in="SourceAlpha" type="matrix" values="0 0 0 0 0 0 0 0 0 0 0 0 0 0 0 0 0 0 127 0" result="hardAlpha"/>
<feOffset dy="4"/>
<feGaussianBlur stdDeviation="2"/>
<feComposite in2="hardAlpha" operator="out"/>
<feColorMatrix type="matrix" values="0 0 0 0 0 0 0 0 0 0 0 0 0 0 0 0 0 0 0.25 0"/>
<feBlend mode="normal" in2="BackgroundImageFix" result="effect1_dropShadow_308_67"/>
<feBlend mode="normal" in="SourceGraphic" in2="effect1_dropShadow_308_67" result="shape"/>
</filter>
<filter id="filter1_d_308_67" x="60.5" y="75.5" width="27" height="9" filterUnits="userSpaceOnUse" color-interpolation-filters="sRGB">
<feFlood flood-opacity="0" result="BackgroundImageFix"/>
<feColorMatrix in="SourceAlpha" type="matrix" values="0 0 0 0 0 0 0 0 0 0 0 0 0 0 0 0 0 0 127 0" result="hardAlpha"/>
<feOffset dy="4"/>
<feGaussianBlur stdDeviation="2"/>
<feComposite in2="hardAlpha" operator="out"/>
<feColorMatrix type="matrix" values="0 0 0 0 0 0 0 0 0 0 0 0 0 0 0 0 0 0 0.25 0"/>
<feBlend mode="normal" in2="BackgroundImageFix" result="effect1_dropShadow_308_67"/>
<feBlend mode="normal" in="SourceGraphic" in2="effect1_dropShadow_308_67" result="shape"/>
</filter>
</defs>
</svg>
