<svg width="105" height="58" viewBox="0 0 105 58" fill="none" xmlns="http://www.w3.org/2000/svg">
<rect width="100" height="55" transform="translate(2)" fill="#334155"/>
<g filter="url(#filter0_d_2_1220)">
<path d="M97.5 47C97.5 48.1046 96.6046 49 95.5 49C94.3954 49 93.5 48.1046 93.5 47C93.5 45.8954 94.3954 45 95.5 45C96.6046 45 97.5 45.8954 97.5 47Z" fill="#A3A9B2"/>
<path d="M97.5 47C97.5 48.1046 96.6046 49 95.5 49C94.3954 49 93.5 48.1046 93.5 47C93.5 45.8954 94.3954 45 95.5 45C96.6046 45 97.5 45.8954 97.5 47Z" stroke="#334155"/>
</g>
<g filter="url(#filter1_d_2_1220)">
<path d="M9.5 44L12.5 49H9.5H6.5L9.5 44Z" fill="#A3A9B2"/>
<path d="M9.5 44L12.5 49H9.5H6.5L9.5 44Z" stroke="#334155"/>
</g>
<g filter="url(#filter2_d_2_1220)">
<path d="M54.4 6L74 23L93.6 40" stroke="white" stroke-width="2" stroke-linecap="round"/>
</g>
<g filter="url(#filter3_d_2_1220)">
<path d="M93.6 6L74 23L54.4 40" stroke="white" stroke-width="2" stroke-linecap="round"/>
</g>
<g filter="url(#filter4_d_2_1220)">
<path d="M50.6 6L31 23L11.4 40" stroke="white" stroke-width="2" stroke-linecap="round"/>
</g>
<g filter="url(#filter5_d_2_1220)">
<path d="M55.1 41.5H74H93" stroke="white" stroke-width="2" stroke-linecap="round"/>
</g>
<g filter="url(#filter6_d_2_1220)">
<path d="M52.5 39L52.5463 23L52.5463 7" stroke="white" stroke-width="2" stroke-linecap="round"/>
</g>
<g filter="url(#filter7_d_2_1220)">
<path d="M95.5 39L95.5 23L95.5 7" stroke="white" stroke-width="2" stroke-linecap="round"/>
</g>
<g filter="url(#filter8_d_2_1220)">
<path d="M55 4.5H74L92.9 4.5" stroke="white" stroke-width="2" stroke-linecap="round"/>
</g>
<g filter="url(#filter9_d_2_1220)">
<path d="M12 41.5H31H49.9" stroke="white" stroke-width="2" stroke-linecap="round"/>
</g>
<path d="M50.5 4.5C50.5 3.39543 51.3954 2.5 52.5 2.5C53.6046 2.5 54.5 3.39543 54.5 4.5C54.5 5.60457 53.6046 6.5 52.5 6.5C51.3954 6.5 50.5 5.60457 50.5 4.5Z" fill="#A3A9B2" stroke="#334155"/>
<path d="M50.5 41.5C50.5 40.3954 51.3954 39.5 52.5 39.5C53.6046 39.5 54.5 40.3954 54.5 41.5C54.5 42.6046 53.6046 43.5 52.5 43.5C51.3954 43.5 50.5 42.6046 50.5 41.5Z" fill="#A3A9B2" stroke="#334155"/>
<path d="M93.5 4.5C93.5 3.39543 94.3954 2.5 95.5 2.5C96.6046 2.5 97.5 3.39543 97.5 4.5C97.5 5.60457 96.6046 6.5 95.5 6.5C94.3954 6.5 93.5 5.60457 93.5 4.5Z" fill="#A3A9B2" stroke="#334155"/>
<path d="M93.5 41.5C93.5 40.3954 94.3954 39.5 95.5 39.5C96.6046 39.5 97.5 40.3954 97.5 41.5C97.5 42.6046 96.6046 43.5 95.5 43.5C94.3954 43.5 93.5 42.6046 93.5 41.5Z" fill="#A3A9B2" stroke="#334155"/>
<path d="M7.5 41.5C7.5 40.3954 8.39543 39.5 9.5 39.5C10.6046 39.5 11.5 40.3954 11.5 41.5C11.5 42.6046 10.6046 43.5 9.5 43.5C8.39543 43.5 7.5 42.6046 7.5 41.5Z" fill="#A3A9B2" stroke="#334155"/>
<g filter="url(#filter10_d_2_1220)">
<path d="M4.5 49.5H14.5" stroke="white" stroke-width="0.5" stroke-linecap="round"/>
</g>
<g filter="url(#filter11_d_2_1220)">
<path d="M90.5 49.5H100.5" stroke="white" stroke-width="0.5" stroke-linecap="round"/>
</g>
<defs>
<filter id="filter0_d_2_1220" x="89" y="44.5" width="13" height="13" filterUnits="userSpaceOnUse" color-interpolation-filters="sRGB">
<feFlood flood-opacity="0" result="BackgroundImageFix"/>
<feColorMatrix in="SourceAlpha" type="matrix" values="0 0 0 0 0 0 0 0 0 0 0 0 0 0 0 0 0 0 127 0" result="hardAlpha"/>
<feOffset dy="4"/>
<feGaussianBlur stdDeviation="2"/>
<feComposite in2="hardAlpha" operator="out"/>
<feColorMatrix type="matrix" values="0 0 0 0 0 0 0 0 0 0 0 0 0 0 0 0 0 0 0.25 0"/>
<feBlend mode="normal" in2="BackgroundImageFix" result="effect1_dropShadow_2_1220"/>
<feBlend mode="normal" in="SourceGraphic" in2="effect1_dropShadow_2_1220" result="shape"/>
</filter>
<filter id="filter1_d_2_1220" x="1.61691" y="43.0282" width="15.7662" height="14.4718" filterUnits="userSpaceOnUse" color-interpolation-filters="sRGB">
<feFlood flood-opacity="0" result="BackgroundImageFix"/>
<feColorMatrix in="SourceAlpha" type="matrix" values="0 0 0 0 0 0 0 0 0 0 0 0 0 0 0 0 0 0 127 0" result="hardAlpha"/>
<feOffset dy="4"/>
<feGaussianBlur stdDeviation="2"/>
<feComposite in2="hardAlpha" operator="out"/>
<feColorMatrix type="matrix" values="0 0 0 0 0 0 0 0 0 0 0 0 0 0 0 0 0 0 0.25 0"/>
<feBlend mode="normal" in2="BackgroundImageFix" result="effect1_dropShadow_2_1220"/>
<feBlend mode="normal" in="SourceGraphic" in2="effect1_dropShadow_2_1220" result="shape"/>
</filter>
<filter id="filter2_d_2_1220" x="49.5491" y="4.87016" width="48.9017" height="44.2597" filterUnits="userSpaceOnUse" color-interpolation-filters="sRGB">
<feFlood flood-opacity="0" result="BackgroundImageFix"/>
<feColorMatrix in="SourceAlpha" type="matrix" values="0 0 0 0 0 0 0 0 0 0 0 0 0 0 0 0 0 0 127 0" result="hardAlpha"/>
<feOffset dy="4"/>
<feGaussianBlur stdDeviation="2"/>
<feComposite in2="hardAlpha" operator="out"/>
<feColorMatrix type="matrix" values="0 0 0 0 0 0 0 0 0 0 0 0 0 0 0 0 0 0 0.25 0"/>
<feBlend mode="normal" in2="BackgroundImageFix" result="effect1_dropShadow_2_1220"/>
<feBlend mode="normal" in="SourceGraphic" in2="effect1_dropShadow_2_1220" result="shape"/>
</filter>
<filter id="filter3_d_2_1220" x="49.5491" y="4.87016" width="48.9017" height="44.2597" filterUnits="userSpaceOnUse" color-interpolation-filters="sRGB">
<feFlood flood-opacity="0" result="BackgroundImageFix"/>
<feColorMatrix in="SourceAlpha" type="matrix" values="0 0 0 0 0 0 0 0 0 0 0 0 0 0 0 0 0 0 127 0" result="hardAlpha"/>
<feOffset dy="4"/>
<feGaussianBlur stdDeviation="2"/>
<feComposite in2="hardAlpha" operator="out"/>
<feColorMatrix type="matrix" values="0 0 0 0 0 0 0 0 0 0 0 0 0 0 0 0 0 0 0.25 0"/>
<feBlend mode="normal" in2="BackgroundImageFix" result="effect1_dropShadow_2_1220"/>
<feBlend mode="normal" in="SourceGraphic" in2="effect1_dropShadow_2_1220" result="shape"/>
</filter>
<filter id="filter4_d_2_1220" x="6.54916" y="4.87016" width="48.9017" height="44.2597" filterUnits="userSpaceOnUse" color-interpolation-filters="sRGB">
<feFlood flood-opacity="0" result="BackgroundImageFix"/>
<feColorMatrix in="SourceAlpha" type="matrix" values="0 0 0 0 0 0 0 0 0 0 0 0 0 0 0 0 0 0 127 0" result="hardAlpha"/>
<feOffset dy="4"/>
<feGaussianBlur stdDeviation="2"/>
<feComposite in2="hardAlpha" operator="out"/>
<feColorMatrix type="matrix" values="0 0 0 0 0 0 0 0 0 0 0 0 0 0 0 0 0 0 0.25 0"/>
<feBlend mode="normal" in2="BackgroundImageFix" result="effect1_dropShadow_2_1220"/>
<feBlend mode="normal" in="SourceGraphic" in2="effect1_dropShadow_2_1220" result="shape"/>
</filter>
<filter id="filter5_d_2_1220" x="50.1" y="40.5" width="47.9" height="10" filterUnits="userSpaceOnUse" color-interpolation-filters="sRGB">
<feFlood flood-opacity="0" result="BackgroundImageFix"/>
<feColorMatrix in="SourceAlpha" type="matrix" values="0 0 0 0 0 0 0 0 0 0 0 0 0 0 0 0 0 0 127 0" result="hardAlpha"/>
<feOffset dy="4"/>
<feGaussianBlur stdDeviation="2"/>
<feComposite in2="hardAlpha" operator="out"/>
<feColorMatrix type="matrix" values="0 0 0 0 0 0 0 0 0 0 0 0 0 0 0 0 0 0 0.25 0"/>
<feBlend mode="normal" in2="BackgroundImageFix" result="effect1_dropShadow_2_1220"/>
<feBlend mode="normal" in="SourceGraphic" in2="effect1_dropShadow_2_1220" result="shape"/>
</filter>
<filter id="filter6_d_2_1220" x="47.5" y="6" width="10.0463" height="42" filterUnits="userSpaceOnUse" color-interpolation-filters="sRGB">
<feFlood flood-opacity="0" result="BackgroundImageFix"/>
<feColorMatrix in="SourceAlpha" type="matrix" values="0 0 0 0 0 0 0 0 0 0 0 0 0 0 0 0 0 0 127 0" result="hardAlpha"/>
<feOffset dy="4"/>
<feGaussianBlur stdDeviation="2"/>
<feComposite in2="hardAlpha" operator="out"/>
<feColorMatrix type="matrix" values="0 0 0 0 0 0 0 0 0 0 0 0 0 0 0 0 0 0 0.25 0"/>
<feBlend mode="normal" in2="BackgroundImageFix" result="effect1_dropShadow_2_1220"/>
<feBlend mode="normal" in="SourceGraphic" in2="effect1_dropShadow_2_1220" result="shape"/>
</filter>
<filter id="filter7_d_2_1220" x="90.5" y="6" width="10" height="42" filterUnits="userSpaceOnUse" color-interpolation-filters="sRGB">
<feFlood flood-opacity="0" result="BackgroundImageFix"/>
<feColorMatrix in="SourceAlpha" type="matrix" values="0 0 0 0 0 0 0 0 0 0 0 0 0 0 0 0 0 0 127 0" result="hardAlpha"/>
<feOffset dy="4"/>
<feGaussianBlur stdDeviation="2"/>
<feComposite in2="hardAlpha" operator="out"/>
<feColorMatrix type="matrix" values="0 0 0 0 0 0 0 0 0 0 0 0 0 0 0 0 0 0 0.25 0"/>
<feBlend mode="normal" in2="BackgroundImageFix" result="effect1_dropShadow_2_1220"/>
<feBlend mode="normal" in="SourceGraphic" in2="effect1_dropShadow_2_1220" result="shape"/>
</filter>
<filter id="filter8_d_2_1220" x="50" y="3.5" width="47.9" height="10" filterUnits="userSpaceOnUse" color-interpolation-filters="sRGB">
<feFlood flood-opacity="0" result="BackgroundImageFix"/>
<feColorMatrix in="SourceAlpha" type="matrix" values="0 0 0 0 0 0 0 0 0 0 0 0 0 0 0 0 0 0 127 0" result="hardAlpha"/>
<feOffset dy="4"/>
<feGaussianBlur stdDeviation="2"/>
<feComposite in2="hardAlpha" operator="out"/>
<feColorMatrix type="matrix" values="0 0 0 0 0 0 0 0 0 0 0 0 0 0 0 0 0 0 0.25 0"/>
<feBlend mode="normal" in2="BackgroundImageFix" result="effect1_dropShadow_2_1220"/>
<feBlend mode="normal" in="SourceGraphic" in2="effect1_dropShadow_2_1220" result="shape"/>
</filter>
<filter id="filter9_d_2_1220" x="7" y="40.5" width="47.9" height="10" filterUnits="userSpaceOnUse" color-interpolation-filters="sRGB">
<feFlood flood-opacity="0" result="BackgroundImageFix"/>
<feColorMatrix in="SourceAlpha" type="matrix" values="0 0 0 0 0 0 0 0 0 0 0 0 0 0 0 0 0 0 127 0" result="hardAlpha"/>
<feOffset dy="4"/>
<feGaussianBlur stdDeviation="2"/>
<feComposite in2="hardAlpha" operator="out"/>
<feColorMatrix type="matrix" values="0 0 0 0 0 0 0 0 0 0 0 0 0 0 0 0 0 0 0.25 0"/>
<feBlend mode="normal" in2="BackgroundImageFix" result="effect1_dropShadow_2_1220"/>
<feBlend mode="normal" in="SourceGraphic" in2="effect1_dropShadow_2_1220" result="shape"/>
</filter>
<filter id="filter10_d_2_1220" x="0.25" y="49.25" width="18.5" height="8.5" filterUnits="userSpaceOnUse" color-interpolation-filters="sRGB">
<feFlood flood-opacity="0" result="BackgroundImageFix"/>
<feColorMatrix in="SourceAlpha" type="matrix" values="0 0 0 0 0 0 0 0 0 0 0 0 0 0 0 0 0 0 127 0" result="hardAlpha"/>
<feOffset dy="4"/>
<feGaussianBlur stdDeviation="2"/>
<feComposite in2="hardAlpha" operator="out"/>
<feColorMatrix type="matrix" values="0 0 0 0 0 0 0 0 0 0 0 0 0 0 0 0 0 0 0.25 0"/>
<feBlend mode="normal" in2="BackgroundImageFix" result="effect1_dropShadow_2_1220"/>
<feBlend mode="normal" in="SourceGraphic" in2="effect1_dropShadow_2_1220" result="shape"/>
</filter>
<filter id="filter11_d_2_1220" x="86.25" y="49.25" width="18.5" height="8.5" filterUnits="userSpaceOnUse" color-interpolation-filters="sRGB">
<feFlood flood-opacity="0" result="BackgroundImageFix"/>
<feColorMatrix in="SourceAlpha" type="matrix" values="0 0 0 0 0 0 0 0 0 0 0 0 0 0 0 0 0 0 127 0" result="hardAlpha"/>
<feOffset dy="4"/>
<feGaussianBlur stdDeviation="2"/>
<feComposite in2="hardAlpha" operator="out"/>
<feColorMatrix type="matrix" values="0 0 0 0 0 0 0 0 0 0 0 0 0 0 0 0 0 0 0.25 0"/>
<feBlend mode="normal" in2="BackgroundImageFix" result="effect1_dropShadow_2_1220"/>
<feBlend mode="normal" in="SourceGraphic" in2="effect1_dropShadow_2_1220" result="shape"/>
</filter>
</defs>
</svg>
