<svg width="105" height="58" viewBox="0 0 105 58" fill="none" xmlns="http://www.w3.org/2000/svg">
<rect width="100" height="55" transform="translate(2)" fill="#334155"/>
<g filter="url(#filter0_d_308_45)">
<path d="M97.5 46.937C97.5 48.0416 96.6046 48.937 95.5 48.937C94.3954 48.937 93.5 48.0416 93.5 46.937C93.5 45.8324 94.3954 44.937 95.5 44.937C96.6046 44.937 97.5 45.8324 97.5 46.937Z" fill="#A3A9B2"/>
<path d="M97.5 46.937C97.5 48.0416 96.6046 48.937 95.5 48.937C94.3954 48.937 93.5 48.0416 93.5 46.937C93.5 45.8324 94.3954 44.937 95.5 44.937C96.6046 44.937 97.5 45.8324 97.5 46.937Z" stroke="#334155"/>
</g>
<g filter="url(#filter1_d_308_45)">
<path d="M9.5 44L12.5 49H9.5H6.5L9.5 44Z" fill="#A3A9B2"/>
<path d="M9.5 44L12.5 49H9.5H6.5L9.5 44Z" stroke="#334155"/>
</g>
<g filter="url(#filter2_d_308_45)">
<path d="M54.4 6L74 23L97 41.5" stroke="white" stroke-width="2" stroke-linecap="round"/>
</g>
<g filter="url(#filter3_d_308_45)">
<path d="M93.6 6L74 23L52.5 43" stroke="white" stroke-width="2" stroke-linecap="round"/>
</g>
<g filter="url(#filter4_d_308_45)">
<path d="M50.6 6L31 23L11.4 40" stroke="white" stroke-width="2" stroke-linecap="round"/>
</g>
<g filter="url(#filter5_d_308_45)">
<path d="M52.5 43L93.5 41.5H97" stroke="white" stroke-width="2" stroke-linecap="round"/>
</g>
<g filter="url(#filter6_d_308_45)">
<path d="M52.5463 41L52.5463 23L52.5463 7" stroke="white" stroke-width="2" stroke-linecap="round"/>
</g>
<g filter="url(#filter7_d_308_45)">
<path d="M97 41.5L95.5 7" stroke="white" stroke-width="2" stroke-linecap="round"/>
</g>
<g filter="url(#filter8_d_308_45)">
<path d="M55 4.5H74L92.9 4.5" stroke="white" stroke-width="2" stroke-linecap="round"/>
</g>
<g filter="url(#filter9_d_308_45)">
<path d="M12 41.5L50 43" stroke="white" stroke-width="2" stroke-linecap="round"/>
</g>
<path d="M50.5 4.5C50.5 3.39543 51.3954 2.5 52.5 2.5C53.6046 2.5 54.5 3.39543 54.5 4.5C54.5 5.60457 53.6046 6.5 52.5 6.5C51.3954 6.5 50.5 5.60457 50.5 4.5Z" fill="#A3A9B2" stroke="#334155"/>
<path d="M50.5 43.063C50.5 41.9584 51.3954 41.063 52.5 41.063C53.6046 41.063 54.5 41.9584 54.5 43.063C54.5 44.1676 53.6046 45.063 52.5 45.063C51.3954 45.063 50.5 44.1676 50.5 43.063Z" fill="#A3A9B2" stroke="#334155"/>
<path d="M93.5 4.5C93.5 3.39543 94.3954 2.5 95.5 2.5C96.6046 2.5 97.5 3.39543 97.5 4.5C97.5 5.60457 96.6046 6.5 95.5 6.5C94.3954 6.5 93.5 5.60457 93.5 4.5Z" fill="#A3A9B2" stroke="#334155"/>
<path d="M95 41.5C95 40.3954 95.8954 39.5 97 39.5C98.1046 39.5 99 40.3954 99 41.5C99 42.6046 98.1046 43.5 97 43.5C95.8954 43.5 95 42.6046 95 41.5Z" fill="#A3A9B2" stroke="#334155"/>
<path d="M7.5 41.5C7.5 40.3954 8.39543 39.5 9.5 39.5C10.6046 39.5 11.5 40.3954 11.5 41.5C11.5 42.6046 10.6046 43.5 9.5 43.5C8.39543 43.5 7.5 42.6046 7.5 41.5Z" fill="#A3A9B2" stroke="#334155"/>
<g filter="url(#filter10_d_308_45)">
<path d="M4.5 49.5H14.5" stroke="white" stroke-width="0.5" stroke-linecap="round"/>
</g>
<g filter="url(#filter11_d_308_45)">
<path d="M90.5 49.5H100.5" stroke="white" stroke-width="0.5" stroke-linecap="round"/>
</g>
<defs>
<filter id="filter0_d_308_45" x="89" y="44.437" width="13" height="13" filterUnits="userSpaceOnUse" color-interpolation-filters="sRGB">
<feFlood flood-opacity="0" result="BackgroundImageFix"/>
<feColorMatrix in="SourceAlpha" type="matrix" values="0 0 0 0 0 0 0 0 0 0 0 0 0 0 0 0 0 0 127 0" result="hardAlpha"/>
<feOffset dy="4"/>
<feGaussianBlur stdDeviation="2"/>
<feComposite in2="hardAlpha" operator="out"/>
<feColorMatrix type="matrix" values="0 0 0 0 0 0 0 0 0 0 0 0 0 0 0 0 0 0 0.25 0"/>
<feBlend mode="normal" in2="BackgroundImageFix" result="effect1_dropShadow_308_45"/>
<feBlend mode="normal" in="SourceGraphic" in2="effect1_dropShadow_308_45" result="shape"/>
</filter>
<filter id="filter1_d_308_45" x="1.6169" y="43.0282" width="15.7662" height="14.4718" filterUnits="userSpaceOnUse" color-interpolation-filters="sRGB">
<feFlood flood-opacity="0" result="BackgroundImageFix"/>
<feColorMatrix in="SourceAlpha" type="matrix" values="0 0 0 0 0 0 0 0 0 0 0 0 0 0 0 0 0 0 127 0" result="hardAlpha"/>
<feOffset dy="4"/>
<feGaussianBlur stdDeviation="2"/>
<feComposite in2="hardAlpha" operator="out"/>
<feColorMatrix type="matrix" values="0 0 0 0 0 0 0 0 0 0 0 0 0 0 0 0 0 0 0.25 0"/>
<feBlend mode="normal" in2="BackgroundImageFix" result="effect1_dropShadow_308_45"/>
<feBlend mode="normal" in="SourceGraphic" in2="effect1_dropShadow_308_45" result="shape"/>
</filter>
<filter id="filter2_d_308_45" x="49.5491" y="4.87016" width="52.3018" height="45.7597" filterUnits="userSpaceOnUse" color-interpolation-filters="sRGB">
<feFlood flood-opacity="0" result="BackgroundImageFix"/>
<feColorMatrix in="SourceAlpha" type="matrix" values="0 0 0 0 0 0 0 0 0 0 0 0 0 0 0 0 0 0 127 0" result="hardAlpha"/>
<feOffset dy="4"/>
<feGaussianBlur stdDeviation="2"/>
<feComposite in2="hardAlpha" operator="out"/>
<feColorMatrix type="matrix" values="0 0 0 0 0 0 0 0 0 0 0 0 0 0 0 0 0 0 0.25 0"/>
<feBlend mode="normal" in2="BackgroundImageFix" result="effect1_dropShadow_308_45"/>
<feBlend mode="normal" in="SourceGraphic" in2="effect1_dropShadow_308_45" result="shape"/>
</filter>
<filter id="filter3_d_308_45" x="47.6492" y="4.87016" width="50.8017" height="47.2596" filterUnits="userSpaceOnUse" color-interpolation-filters="sRGB">
<feFlood flood-opacity="0" result="BackgroundImageFix"/>
<feColorMatrix in="SourceAlpha" type="matrix" values="0 0 0 0 0 0 0 0 0 0 0 0 0 0 0 0 0 0 127 0" result="hardAlpha"/>
<feOffset dy="4"/>
<feGaussianBlur stdDeviation="2"/>
<feComposite in2="hardAlpha" operator="out"/>
<feColorMatrix type="matrix" values="0 0 0 0 0 0 0 0 0 0 0 0 0 0 0 0 0 0 0.25 0"/>
<feBlend mode="normal" in2="BackgroundImageFix" result="effect1_dropShadow_308_45"/>
<feBlend mode="normal" in="SourceGraphic" in2="effect1_dropShadow_308_45" result="shape"/>
</filter>
<filter id="filter4_d_308_45" x="6.54916" y="4.87016" width="48.9017" height="44.2597" filterUnits="userSpaceOnUse" color-interpolation-filters="sRGB">
<feFlood flood-opacity="0" result="BackgroundImageFix"/>
<feColorMatrix in="SourceAlpha" type="matrix" values="0 0 0 0 0 0 0 0 0 0 0 0 0 0 0 0 0 0 127 0" result="hardAlpha"/>
<feOffset dy="4"/>
<feGaussianBlur stdDeviation="2"/>
<feComposite in2="hardAlpha" operator="out"/>
<feColorMatrix type="matrix" values="0 0 0 0 0 0 0 0 0 0 0 0 0 0 0 0 0 0 0.25 0"/>
<feBlend mode="normal" in2="BackgroundImageFix" result="effect1_dropShadow_308_45"/>
<feBlend mode="normal" in="SourceGraphic" in2="effect1_dropShadow_308_45" result="shape"/>
</filter>
<filter id="filter5_d_308_45" x="47.5" y="40.5" width="54.5" height="11.5" filterUnits="userSpaceOnUse" color-interpolation-filters="sRGB">
<feFlood flood-opacity="0" result="BackgroundImageFix"/>
<feColorMatrix in="SourceAlpha" type="matrix" values="0 0 0 0 0 0 0 0 0 0 0 0 0 0 0 0 0 0 127 0" result="hardAlpha"/>
<feOffset dy="4"/>
<feGaussianBlur stdDeviation="2"/>
<feComposite in2="hardAlpha" operator="out"/>
<feColorMatrix type="matrix" values="0 0 0 0 0 0 0 0 0 0 0 0 0 0 0 0 0 0 0.25 0"/>
<feBlend mode="normal" in2="BackgroundImageFix" result="effect1_dropShadow_308_45"/>
<feBlend mode="normal" in="SourceGraphic" in2="effect1_dropShadow_308_45" result="shape"/>
</filter>
<filter id="filter6_d_308_45" x="47.5463" y="6" width="10" height="44" filterUnits="userSpaceOnUse" color-interpolation-filters="sRGB">
<feFlood flood-opacity="0" result="BackgroundImageFix"/>
<feColorMatrix in="SourceAlpha" type="matrix" values="0 0 0 0 0 0 0 0 0 0 0 0 0 0 0 0 0 0 127 0" result="hardAlpha"/>
<feOffset dy="4"/>
<feGaussianBlur stdDeviation="2"/>
<feComposite in2="hardAlpha" operator="out"/>
<feColorMatrix type="matrix" values="0 0 0 0 0 0 0 0 0 0 0 0 0 0 0 0 0 0 0.25 0"/>
<feBlend mode="normal" in2="BackgroundImageFix" result="effect1_dropShadow_308_45"/>
<feBlend mode="normal" in="SourceGraphic" in2="effect1_dropShadow_308_45" result="shape"/>
</filter>
<filter id="filter7_d_308_45" x="90.5" y="5.99998" width="11.5001" height="44.5" filterUnits="userSpaceOnUse" color-interpolation-filters="sRGB">
<feFlood flood-opacity="0" result="BackgroundImageFix"/>
<feColorMatrix in="SourceAlpha" type="matrix" values="0 0 0 0 0 0 0 0 0 0 0 0 0 0 0 0 0 0 127 0" result="hardAlpha"/>
<feOffset dy="4"/>
<feGaussianBlur stdDeviation="2"/>
<feComposite in2="hardAlpha" operator="out"/>
<feColorMatrix type="matrix" values="0 0 0 0 0 0 0 0 0 0 0 0 0 0 0 0 0 0 0.25 0"/>
<feBlend mode="normal" in2="BackgroundImageFix" result="effect1_dropShadow_308_45"/>
<feBlend mode="normal" in="SourceGraphic" in2="effect1_dropShadow_308_45" result="shape"/>
</filter>
<filter id="filter8_d_308_45" x="50" y="3.5" width="47.9" height="10" filterUnits="userSpaceOnUse" color-interpolation-filters="sRGB">
<feFlood flood-opacity="0" result="BackgroundImageFix"/>
<feColorMatrix in="SourceAlpha" type="matrix" values="0 0 0 0 0 0 0 0 0 0 0 0 0 0 0 0 0 0 127 0" result="hardAlpha"/>
<feOffset dy="4"/>
<feGaussianBlur stdDeviation="2"/>
<feComposite in2="hardAlpha" operator="out"/>
<feColorMatrix type="matrix" values="0 0 0 0 0 0 0 0 0 0 0 0 0 0 0 0 0 0 0.25 0"/>
<feBlend mode="normal" in2="BackgroundImageFix" result="effect1_dropShadow_308_45"/>
<feBlend mode="normal" in="SourceGraphic" in2="effect1_dropShadow_308_45" result="shape"/>
</filter>
<filter id="filter9_d_308_45" x="6.99998" y="40.5" width="48" height="11.5" filterUnits="userSpaceOnUse" color-interpolation-filters="sRGB">
<feFlood flood-opacity="0" result="BackgroundImageFix"/>
<feColorMatrix in="SourceAlpha" type="matrix" values="0 0 0 0 0 0 0 0 0 0 0 0 0 0 0 0 0 0 127 0" result="hardAlpha"/>
<feOffset dy="4"/>
<feGaussianBlur stdDeviation="2"/>
<feComposite in2="hardAlpha" operator="out"/>
<feColorMatrix type="matrix" values="0 0 0 0 0 0 0 0 0 0 0 0 0 0 0 0 0 0 0.25 0"/>
<feBlend mode="normal" in2="BackgroundImageFix" result="effect1_dropShadow_308_45"/>
<feBlend mode="normal" in="SourceGraphic" in2="effect1_dropShadow_308_45" result="shape"/>
</filter>
<filter id="filter10_d_308_45" x="0.25" y="49.25" width="18.5" height="8.5" filterUnits="userSpaceOnUse" color-interpolation-filters="sRGB">
<feFlood flood-opacity="0" result="BackgroundImageFix"/>
<feColorMatrix in="SourceAlpha" type="matrix" values="0 0 0 0 0 0 0 0 0 0 0 0 0 0 0 0 0 0 127 0" result="hardAlpha"/>
<feOffset dy="4"/>
<feGaussianBlur stdDeviation="2"/>
<feComposite in2="hardAlpha" operator="out"/>
<feColorMatrix type="matrix" values="0 0 0 0 0 0 0 0 0 0 0 0 0 0 0 0 0 0 0.25 0"/>
<feBlend mode="normal" in2="BackgroundImageFix" result="effect1_dropShadow_308_45"/>
<feBlend mode="normal" in="SourceGraphic" in2="effect1_dropShadow_308_45" result="shape"/>
</filter>
<filter id="filter11_d_308_45" x="86.25" y="49.25" width="18.5" height="8.5" filterUnits="userSpaceOnUse" color-interpolation-filters="sRGB">
<feFlood flood-opacity="0" result="BackgroundImageFix"/>
<feColorMatrix in="SourceAlpha" type="matrix" values="0 0 0 0 0 0 0 0 0 0 0 0 0 0 0 0 0 0 127 0" result="hardAlpha"/>
<feOffset dy="4"/>
<feGaussianBlur stdDeviation="2"/>
<feComposite in2="hardAlpha" operator="out"/>
<feColorMatrix type="matrix" values="0 0 0 0 0 0 0 0 0 0 0 0 0 0 0 0 0 0 0.25 0"/>
<feBlend mode="normal" in2="BackgroundImageFix" result="effect1_dropShadow_308_45"/>
<feBlend mode="normal" in="SourceGraphic" in2="effect1_dropShadow_308_45" result="shape"/>
</filter>
</defs>
</svg>
